<?xml version="1.0" encoding="UTF-8" standalone="no"?>
<svg
   xmlns:dc="http://purl.org/dc/elements/1.1/"
   xmlns:cc="http://creativecommons.org/ns#"
   xmlns:rdf="http://www.w3.org/1999/02/22-rdf-syntax-ns#"
   xmlns:svg="http://www.w3.org/2000/svg"
   xmlns="http://www.w3.org/2000/svg"
   xmlns:sodipodi="http://sodipodi.sourceforge.net/DTD/sodipodi-0.dtd"
   xmlns:inkscape="http://www.inkscape.org/namespaces/inkscape"
   id="Layer_1"
   data-name="Layer 1"
   viewBox="0 0 370 106.75"
   version="1.1"
   sodipodi:docname="AcademiasGulbenkianConhecimento.svg"
   width="370"
   height="106.75"
   inkscape:version="0.92.4 (5da689c313, 2019-01-14)">
  <metadata
     id="metadata4304">
    <rdf:RDF>
      <cc:Work
         rdf:about="">
        <dc:format>image/svg+xml</dc:format>
        <dc:type
           rdf:resource="http://purl.org/dc/dcmitype/StillImage" />
        <dc:title></dc:title>
      </cc:Work>
    </rdf:RDF>
  </metadata>
  <sodipodi:namedview
     pagecolor="#ffffff"
     bordercolor="#666666"
     borderopacity="1"
     objecttolerance="10"
     gridtolerance="10"
     guidetolerance="10"
     inkscape:pageopacity="0"
     inkscape:pageshadow="2"
     inkscape:window-width="1842"
     inkscape:window-height="1051"
     id="namedview4302"
     showgrid="false"
     inkscape:zoom="1.165759"
     inkscape:cx="130.9203"
     inkscape:cy="51.905843"
     inkscape:window-x="69"
     inkscape:window-y="-9"
     inkscape:window-maximized="1"
     inkscape:current-layer="Layer_1" />
  <defs
     id="defs4153">
    <style
       id="style4151">.cls-1{fill:#1d1d1b;}.cls-2{fill:#141212;}.cls-3,.cls-5{fill:none;stroke:#141212;stroke-miterlimit:10;}.cls-3{stroke-width:0.53px;}.cls-4{fill:#fff;}.cls-5{stroke-width:3.68px;}.cls-6{fill:#64bb90;}.cls-7{fill:#048e66;}.cls-8{fill:#231f20;}.cls-9{fill:#e40134;}.cls-10{fill:#e30234;}.cls-11{fill:#009ee2;}</style>
  </defs>
  <path
     class="cls-1"
     d="m -89.698411,92.79 h 3.42 V 70.38 l 21.78,23.62 V 63 h -3.38 v 22.61 l -21.82,-23.82 z m -17.069999,-23.16 4.76,11 h -9.51 z m 0,-7.84 -13.51,31 h 3.84 l 3.87,-9.14 h 11.65 l 3.879999,9.14 h 3.83 z m -20.6,31 h 3.54 V 63 h -3.54 z m -24.49,0 h 3.5 V 76.72 l 13.43,16.07 h 4.59 l -14.06,-16.4 12.81,-13.39 h -4.25 l -12.52,13.22 V 63 h -3.5 z m -31.3,0 h 3.38 V 70.38 l 21.82,23.62 V 63 h -3.38 v 22.61 l -21.82,-23.82 z m -21.52,0 h 15.73 v -3.3 h -12.19 V 78.06 h 12.19 v -3.3 h -12.19 v -8.55 h 12.19 V 63 h -15.73 z m -23.24,0 h 6.21 c 4.26,0 7.18,-0.13 9.35,-2.26 a 8.82,8.82 0 0 0 2.46,-6.21 c 0,-4 -2.21,-6.8 -5.71,-7.34 a 5.94,5.94 0 0 0 4.42,-6.18 7.7,7.7 0 0 0 -3,-6.34 c -1.87,-1.38 -4.25,-1.5 -7.51,-1.5 h -6.21 z m 3.46,-14 h 3.8 c 1.83,0 3.29,0 4.54,0.79 a 5,5 0 0 1 2.47,4.72 5.34,5.34 0 0 1 -2,4.38 c -1.3,0.92 -3.26,1 -6.1,1 h -2.75 z m 0,-12.77 h 2.75 c 4.72,0 6.89,0.88 6.89,5.18 0,3.63 -2.09,4.8 -6.89,4.8 h -2.75 z m -22.69,26.77 h 14.81 v -3.38 h -11.27 V 63 h -3.54 z m -29.33,-29.79 v 18.52 c 0,8.06 3.79,12.06 11.55,12.06 7.76,0 11.56,-4 11.56,-12.06 V 63 h -3.59 v 18.52 c 0,6 -2.42,8.76 -8,8.76 -5.58,0 -8,-2.79 -8,-8.76 V 63 Z m -17,14.43 v 3.17 h 8.51 c -0.41,5.84 -4.84,9.81 -10.76,9.81 -6.8,0 -11.68,-5.05 -11.68,-12.18 0,-7.56 4.75,-12.69 11.68,-12.69 a 10.52,10.52 0 0 1 9.6,5.43 l 3,-2.38 c -2.8,-4.22 -7,-6.26 -12.68,-6.26 a 14.8,14.8 0 0 0 -10.6,3.88 c -3.21,3 -4.8,7 -4.8,12 0,6 2.8,11 7.68,13.64 a 15.75,15.75 0 0 0 7.51,1.75 c 9.09,0 14.89,-5.67 14.89,-15.19 v -1 z m -46.13,15.4 h 15.73 v -3.3 h -12.21 V 78.06 h 12.18 v -3.3 h -12.18 v -8.55 h 12.18 V 63 h -15.73 z m -17.19,0 h 3.52 V 66.34 h 8.39 V 63 h -20.39 v 3.38 h 8.42 z m -16.26,-16.61 -4.22,-1.87 c -2.71,-1.17 -4,-2.67 -4,-4.8 a 4.26,4.26 0 0 1 4.55,-4.34 c 2.13,0 3.75,1.17 5.05,3.42 l 2.92,-1.88 c -1.46,-3 -4.13,-4.5 -7.72,-4.5 -5,0 -8.39,3.17 -8.39,7.34 0,3.63 1.92,6.22 5.89,7.89 l 3.59,1.52 c 3.08,1.33 4.63,3.3 4.63,6 0,3.25 -2.38,5.54 -6,5.54 -3,0 -5.05,-1.87 -5.92,-5.5 l -3.22,1.58 c 1.13,4.43 4.43,6.93 9.14,6.93 5.76,0 9.56,-3.67 9.56,-9.14 0,-3.75 -2,-6.51 -5.89,-8.18 m -41.4,-13.23 v 18.52 c 0,8.06 3.8,12.06 11.56,12.06 7.76,0 11.56,-4 11.56,-12.06 V 63 h -3.59 v 18.52 c 0,6 -2.42,8.76 -8,8.76 -5.58,0 -8,-2.79 -8,-8.76 V 63 Z m -20.79,27.24 a 12,12 0 0 1 -8.64,-3.63 12.14,12.14 0 0 1 -3.59,-8.67 12.35,12.35 0 0 1 3.59,-8.77 12.2,12.2 0 0 1 17.27,0 12.24,12.24 0 0 1 3.59,8.77 12.33,12.33 0 0 1 -12.22,12.3 m 16,-12.3 a 15.2,15.2 0 0 0 -4.63,-11.1 16.28,16.28 0 0 0 -22.58,0 15.47,15.47 0 0 0 0,22.15 16.18,16.18 0 0 0 22.58,0 15.2,15.2 0 0 0 4.63,-11 m -47.9,14.8 h 14.81 v -3.38 h -11.26 V 63 h -3.55 z m -17.48,-23.16 4.76,11 h -9.52 z m 0,-7.84 -13.52,31 h 3.84 l 3.88,-9.14 h 11.64 l 3.88,9.14 h 3.84 z m -16.1,8.3 v -4.63 a 16.79,16.79 0 0 0 -9.81,-3.21 15.41,15.41 0 0 0 -11.1,4.38 15.86,15.86 0 0 0 2,24.2 15.41,15.41 0 0 0 8.8,2.75 17.2,17.2 0 0 0 10.06,-3.25 v -4.72 a 12.48,12.48 0 0 1 -9.77,4.72 12.14,12.14 0 0 1 -10,-5.3 11.9,11.9 0 0 1 -2,-7 12.06,12.06 0 0 1 11.94,-12.44 12.79,12.79 0 0 1 9.93,4.55"
     id="path4155"
     inkscape:connector-curvature="0"
     style="fill:#1d1d1b" />
  <path
     class="cls-1"
     d="m -482.73841,39.8 c 0,6 -2.42,8.76 -8,8.76 -5.58,0 -8,-2.79 -8,-8.76 V 21.24 h -3.54 V 39.8 c 0,8.05 3.8,12.06 11.56,12.06 7.76,0 11.56,-4 11.56,-12.06 V 21.24 h -3.59 z"
     id="path4157"
     inkscape:connector-curvature="0"
     style="fill:#1d1d1b" />
  <polygon
     class="cls-1"
     points="167.16,21.24 167.16,43.89 145.34,20.07 145.34,51.07 148.72,51.07 148.72,28.66 170.54,52.23 170.54,21.24 "
     id="polygon4159"
     style="fill:#1d1d1b"
     transform="translate(-618.27841)" />
  <path
     class="cls-1"
     d="m -305.00841,25.12 a 16.27,16.27 0 0 0 -22.57,0 15.47,15.47 0 0 0 0,22.15 16.17,16.17 0 0 0 22.57,0 15.56,15.56 0 0 0 0,-22.15 z m -2.67,19.77 a 12.23,12.23 0 0 1 -20.86,-8.68 12.3,12.3 0 0 1 3.59,-8.76 12.18,12.18 0 0 1 17.27,0 12.28,12.28 0 0 1 3.59,8.76 12.06,12.06 0 0 1 -3.59,8.68 z"
     id="path4161"
     inkscape:connector-curvature="0"
     style="fill:#1d1d1b" />
  <path
     class="cls-1"
     d="m -383.27841,24.91 a 15.09,15.09 0 0 0 -4.67,11.39 15.13,15.13 0 0 0 6.72,12.81 15.32,15.32 0 0 0 6.65,2.59 v 2.64 c 0.34,0 1,0 1.3,0 1.48,0 2.19,0.44 2.19,1.42 0,0.98 -0.68,1.35 -2,1.35 a 20,20 0 0 1 -4,-0.64 v 1.65 a 16,16 0 0 0 4.25,0.74 c 2.7,0 4.11,-1.11 4.11,-3.1 0,-1.99 -1.24,-3 -3.67,-3 h -0.47 v -0.91 h 0.48 a 17.08,17.08 0 0 0 10.01,-3.25 v -4.71 a 12.43,12.43 0 0 1 -9.76,4.71 12.1,12.1 0 0 1 -10,-5.29 11.9,11.9 0 0 1 -2.14,-7.05 12.18,12.18 0 0 1 3.42,-8.81 12,12 0 0 1 8.58,-3.63 12.78,12.78 0 0 1 9.93,4.55 v -4.63 a 16.74,16.74 0 0 0 -9.8,-3.21 15.41,15.41 0 0 0 -11.13,4.38 z"
     id="path4163"
     inkscape:connector-curvature="0"
     style="fill:#1d1d1b" />
  <polygon
     class="cls-1"
     points="109.05,24.49 109.05,21.24 93.32,21.24 93.32,51.07 96.86,51.07 96.86,36.34 109.05,36.34 109.05,33.04 96.86,33.04 96.86,24.49 "
     id="polygon4165"
     style="fill:#1d1d1b"
     transform="translate(-618.27841)" />
  <path
     class="cls-1"
     d="m -415.89841,51.07 h 3.83 l 3.88,-9.14 h 11.64 l 3.88,9.14 h 3.84 l -13.56,-31 z m 8.76,-12.19 4.75,-11 4.76,11 z"
     id="path4167"
     inkscape:connector-curvature="0"
     style="fill:#1d1d1b" />
  <path
     class="cls-1"
     d="m -359.99841,51.07 h 3.84 l 3.88,-9.14 h 11.64 l 3.88,9.14 h 3.84 l -13.56,-31 z m 8.72,-12.19 4.76,-11 4.75,11 z"
     id="path4169"
     inkscape:connector-curvature="0"
     style="fill:#1d1d1b" />
  <path
     class="cls-1"
     d="m -421.99841,24 c -3.63,-2.79 -7.92,-2.79 -13.51,-2.79 h -5.72 v 29.86 h 7 c 4.84,0 8.76,-0.13 12.22,-2.8 3.46,-2.67 5.22,-6.76 5.22,-12.1 0,-5.34 -1.78,-9.51 -5.21,-12.17 z m -2.28,21.6 c -2.5,2.09 -6.05,2.13 -11.14,2.13 h -2.25 v -23.2 h 2.25 c 5.13,0 8.68,0.09 11.14,2.17 2.46,2.08 3.76,5.22 3.76,9.43 0,4.21 -1.31,7.47 -3.76,9.47 z"
     id="path4171"
     inkscape:connector-curvature="0"
     style="fill:#1d1d1b" />
  <path
     class="cls-1"
     d="m -341.72841,15.05 h -1.4 a 1.55,1.55 0 0 1 -1.5,1.18 3.82,3.82 0 0 1 -0.85,-0.16 l -1.57,-0.46 a 3,3 0 0 0 -1,-0.13 c -1.57,0 -2.68,1.14 -3.07,3.27 h 1.4 a 1.52,1.52 0 0 1 1.44,-1.08 2.72,2.72 0 0 1 0.79,0.13 l 1.53,0.42 a 4,4 0 0 0 1.05,0.17 c 1.6,0 2.71,-1.15 3.13,-3.34"
     id="path4173"
     inkscape:connector-curvature="0"
     style="fill:#1d1d1b" />
  <path
     class="cls-1"
     d="m -579.82841,94.76 c -21.56,0 -38.45,-16.26 -38.45,-37.02 0,-22.28 16.17,-38.45 38.45,-38.45 13.88,0 24.52,5.55 31.62,16.5 l -3.18,2 c -6.44,-9.94 -15.75,-14.78 -28.44,-14.78 -20.09,0 -34.67,14.59 -34.67,34.69 0,18.69 15.22,33.3 34.67,33.3 16.47,0 29.41,-10.2 31.55,-24.52 h -11 v -3.76 h 15.18 l -0.16,2 c -1.35,17.39 -16.31,30 -35.57,30"
     id="path4175"
     inkscape:connector-curvature="0"
     style="fill:#1d1d1b" />
  <polyline
     class="cls-1"
     points="4.54 58.92 4.54 58.92 4.54 58.92 4.54 58.92"
     id="polyline4177"
     style="fill:#1d1d1b"
     transform="translate(-618.27841)" />
  <path
     class="cls-1"
     d="m -579.38841,41.26 c 0,-0.18 -0.59,-0.34 -0.52,-0.06 a 1.54,1.54 0 0 0 0.52,0.06"
     id="path4179"
     inkscape:connector-curvature="0"
     style="fill:#1d1d1b" />
  <path
     class="cls-1"
     d="m -611.89841,59.86 h -0.06 a 1.22,1.22 0 0 1 -0.73,0.37 c -0.34,0 -0.52,-0.34 -0.82,-0.3 0.16,0.74 1.54,0.84 1.61,0"
     id="path4181"
     inkscape:connector-curvature="0"
     style="fill:#1d1d1b" />
  <path
     class="cls-1"
     d="m -613.08841,51.29 v 0 c 0.41,-0.42 0.82,-0.83 1.21,-1.28 a 8.9,8.9 0 0 0 1,-1.32 c 0.46,-0.8 -0.62,-0.39 -0.33,-0.4 a 0.39,0.39 0 0 1 0.09,0.33 1.82,1.82 0 0 1 -0.53,0.84 c -0.52,0.56 -1,1 -1.53,1.55 -0.06,0.09 -0.13,0.4 0.05,0.29"
     id="path4183"
     inkscape:connector-curvature="0"
     style="fill:#1d1d1b" />
  <path
     class="cls-1"
     d="m -613.12841,52.41 v 0 c 0.51,-0.67 1,-1.28 1.49,-1.85 a 22.44,22.44 0 0 0 1.51,-1.87 c 0.11,-0.15 0.29,-0.37 0.2,-0.59 -0.28,0.17 -0.34,0.5 -0.49,0.74 a 11.91,11.91 0 0 1 -0.86,1.08 c -0.62,0.66 -1.32,1.27 -1.92,2 -0.14,0.19 -0.26,0.93 0.1,0.53"
     id="path4185"
     inkscape:connector-curvature="0"
     style="fill:#1d1d1b" />
  <path
     class="cls-1"
     d="m -549.27841,54.52 a 6.35,6.35 0 0 0 -0.42,-0.64 4.84,4.84 0 0 0 -1.36,-1 4.83,4.83 0 0 0 -0.94,-0.11 4,4 0 0 1 -0.92,-0.15 8.14,8.14 0 0 0 -1.55,-0.6 c -1.1,-0.1 -1.46,1 -2.53,1.1 a 9.9,9.9 0 0 0 -0.28,-1.12 c -0.16,-0.35 -0.48,-0.65 -0.52,-1 a 1.33,1.33 0 0 1 0.13,-0.6 3.12,3.12 0 0 0 0,-0.54 8,8 0 0 0 -0.28,-3.07 9.94,9.94 0 0 0 -0.66,-1.45 v 0 a 0.89,0.89 0 0 1 -0.13,-0.33 c 0,-0.19 0.51,-0.38 0.73,-0.49 0.61,-0.33 1,-0.52 1.57,-0.88 0.24,-0.16 0.48,-0.48 0.75,-0.47 0.27,0.01 0.29,0.15 0.45,0.25 v 0 0 a 1.38,1.38 0 0 0 0.29,0.17 c 0.19,0.08 0.68,0.18 0.73,-0.06 0.05,-0.24 -0.86,-0.32 -0.82,-0.75 0.04,-0.43 0.85,-0.14 1.12,-0.2 0.41,-1 -0.48,-1.46 -1.1,-1.86 a 8,8 0 0 0 -1,-0.62 20,20 0 0 0 -2.21,-1 1.33,1.33 0 0 0 -1.23,-0.84 c -0.23,-0.22 -0.16,-0.71 -0.42,-0.86 -0.26,-0.15 -0.53,0 -0.78,0.09 a 4.76,4.76 0 0 0 -1.33,0.56 c -0.18,0.11 -0.45,0.39 -0.37,0.51 0.08,0.12 0.33,-0.06 0.48,-0.15 a 3.8,3.8 0 0 1 0.49,-0.26 c 0.29,-0.11 0.85,-0.35 1,-0.15 0.15,0.2 -0.4,0.42 -0.63,0.52 -0.23,0.1 -0.34,0.06 -0.41,0.19 -0.07,0.13 0,0.61 -0.24,0.71 a 0.57,0.57 0 0 1 -0.36,0 c -0.42,-0.17 -0.75,-0.64 -1.22,-0.76 0,0.33 -0.13,0.53 -0.33,0.78 -0.2,0.25 -0.28,0.34 -0.4,0.36 -0.34,0.07 -0.5,-0.15 -0.67,-0.32 -0.17,-0.17 -0.52,-0.43 -0.6,-0.71 -0.08,-0.28 0.29,-0.69 0.24,-1 -0.05,-0.31 -0.49,-0.26 -0.82,-0.3 a 9.56,9.56 0 0 0 -1,-0.13 3.4,3.4 0 0 0 -1.46,0.3 c -0.2,0.09 -0.56,0.2 -0.5,0.36 0.06,0.16 0.45,-0.06 0.67,-0.15 a 4.18,4.18 0 0 1 2.15,0 c 0,0.1 -0.27,0.34 -0.52,0.36 a 2.72,2.72 0 0 1 -0.39,0 c -0.44,0 -1,0.14 -1,0.33 0,0.19 0.31,0.44 0.63,0.4 0.12,0 0.22,-0.13 0.36,-0.13 0.14,0 0.24,0.12 0.37,0.13 0.13,0.01 0.28,-0.1 0.4,-0.08 a 2,2 0 0 1 0.41,0.21 l 0.41,0.24 c 0.19,0.12 0.62,0.43 0.56,0.7 -0.11,0.48 -1.13,0 -1.35,0 -0.22,0 -0.65,0.3 -0.8,0 -0.15,-0.3 0.09,-0.32 0,-0.47 -0.09,-0.15 -0.17,0.09 -0.34,0.06 -0.29,-0.32 -0.43,-0.13 -0.79,-0.21 a 2.21,2.21 0 0 1 -0.78,-0.58 c -0.16,-0.2 -0.2,-0.49 -0.4,-0.49 -0.2,0 -0.32,0.14 -0.41,0.19 a 3.31,3.31 0 0 0 -1.35,1.49 c -0.13,0.27 -0.29,0.68 -0.58,0.67 -0.29,-0.01 -0.6,-0.46 -0.71,-0.75 a 2.54,2.54 0 0 0 -0.13,-0.48 c -0.12,-0.19 -0.4,-0.26 -0.55,-0.45 a 1.36,1.36 0 0 1 -0.24,-0.53 c 0,-0.27 0.34,-0.45 0.3,-0.71 -0.04,-0.26 -0.44,-0.32 -0.69,-0.43 a 4,4 0 0 0 -0.83,-0.3 4,4 0 0 0 -1.33,0.09 c -0.37,0.06 -1,0.17 -0.86,0.42 0.14,0.25 0.39,0 0.58,-0.1 a 3.5,3.5 0 0 1 1.52,-0.24 c 0.26,0.05 1.24,0.47 1.08,0.8 -0.16,0.33 -0.58,-0.18 -0.71,-0.26 -0.34,0 -0.64,-0.07 -1,-0.07 -0.36,0 -0.8,0 -0.86,0.26 -0.06,0.26 0.19,0.47 0.39,0.52 0.2,0.05 0.44,-0.06 0.6,0.06 0.16,0.12 0,0.41 0.13,0.43 0.13,0.02 0.25,-0.33 0.49,-0.37 a 1.23,1.23 0 0 1 0.77,0.24 c 0.1,0.1 0.14,0.38 0.2,0.47 0.15,0.25 0.45,0.28 0.45,0.52 0,0.24 -0.26,0.4 -0.52,0.43 -0.26,0.03 -0.68,-0.2 -0.77,-0.14 -0.09,0.06 0.1,0.21 0.17,0.29 a 2.16,2.16 0 0 1 0.54,1 2.08,2.08 0 0 1 -0.53,1.63 1.7,1.7 0 0 1 -1.18,0.19 2.29,2.29 0 0 1 -0.71,-0.71 c -0.06,-0.09 -0.12,-0.27 -0.23,-0.25 -0.11,0.02 0,0.36 0,0.36 a 6,6 0 0 0 0.4,0.82 c 0.16,0.21 0.41,0.35 0.56,0.53 a 7.44,7.44 0 0 1 0.69,1.2 0.79,0.79 0 0 1 0,0.2 c 0,0.12 -0.52,0.17 -0.8,0.19 -1.3,0.12 -2.55,0.22 -3.84,0.3 -0.68,0 -1.19,0.1 -1.56,-0.21 a 1.49,1.49 0 0 1 -0.21,-0.22 v 0 a 1.13,1.13 0 0 1 -0.27,-0.61 c 0,-0.27 0.67,-0.37 1,-0.49 0.51,-0.21 1.1,-0.67 1.8,-0.5 0.27,0.07 0.93,0.53 1.07,0 -0.24,-0.16 -0.76,-0.16 -0.77,-0.5 -0.01,-0.34 0.22,-0.37 0.43,-0.4 0.21,-0.03 0.77,0.19 1,0 0.09,-0.27 0,-0.48 0,-0.75 a 3,3 0 0 0 0.13,-0.54 c 0,-0.55 -0.58,-0.78 -1,-1 -0.42,-0.22 -0.74,-0.11 -0.74,-0.38 a 0.86,0.86 0 0 1 0.43,-0.73 c 0.14,0 0.39,0 0.58,0 0.19,0 0.63,-0.41 0.9,-0.39 0.27,0.02 0.44,0.53 0.72,0.34 0.28,-0.19 -0.18,-0.22 -0.27,-0.34 a 0.65,0.65 0 0 0 0,-0.25 c -0.57,-0.27 -0.63,-1 -1.22,-1.29 a 7.34,7.34 0 0 0 -1.72,1.43 c -0.15,0.2 -0.39,0.7 -0.66,0.73 -0.27,0.03 -0.9,-0.43 -1.07,-0.58 a 8,8 0 0 0 -0.9,-0.93 c -0.23,-0.12 -1.24,-0.25 -1.25,-0.55 a 0.13,0.13 0 0 1 0,-0.06 l 2.46,-0.68 c 2.14,-0.6 11,-3.14 11.82,-3.37 l 2.87,-0.83 c 0,0 0.39,-0.34 0.06,-0.41 l -1.66,0.48 -12.5,3.61 -2.8,0.78 c 0,-0.13 -0.09,-0.17 -0.37,-0.27 v 0 c -0.21,0 -0.42,-0.12 -0.62,-0.17 h -0.16 -0.06 a 4.61,4.61 0 0 0 -2.11,0.39 c -0.17,0.08 -0.5,0.29 -0.47,0.43 0.03,0.14 0.26,-0.06 0.37,-0.11 a 4.17,4.17 0 0 1 1.24,-0.46 c 0.43,-0.07 1.69,-0.16 1.61,0.34 0,0.27 -0.63,0.2 -1,0.22 -0.68,0 -1.39,0.18 -1.45,0.33 -0.06,0.15 0.44,0.5 0.68,0.5 0.24,0 0.24,-0.11 0.36,-0.1 0.12,0.01 0.25,0.19 0.39,0.19 0.14,0 0.23,-0.14 0.39,-0.11 0.16,0.03 0.18,0.26 0.3,0.35 0.27,-0.22 0.44,-0.51 0.88,-0.48 a 2.33,2.33 0 0 1 0.64,0.24 c 0.36,0.17 0.84,0.53 0.72,0.77 -0.12,0.24 -0.52,0.13 -0.85,0.24 -0.33,0.11 -0.57,0.32 -0.83,0.28 -0.26,-0.04 -0.35,-0.32 -0.58,-0.35 0,0.16 0,0.28 0,0.39 0.75,0.32 1.58,0.58 1.61,1.63 -0.37,0.45 -0.78,1.27 -1.59,1.07 -0.48,-0.11 -0.68,-0.61 -0.8,-1.07 0,-0.15 -0.14,-0.53 -0.23,-0.49 -0.09,0.04 -0.09,0.8 0,1 a 1.86,1.86 0 0 0 0.9,1 3.13,3.13 0 0 1 0.53,0.12 1,1 0 0 1 0.37,1 c -0.22,0.34 -0.7,0.38 -1.14,0.54 -1,0.33 -2,0.62 -3,0.86 a 2.09,2.09 0 0 1 -0.19,-1.1 c 0,-0.39 0,-0.8 -0.05,-1.2 a 7.17,7.17 0 0 1 0.26,-2.3 c 0.07,-0.17 0.27,-0.42 0.41,-0.66 a 3.66,3.66 0 0 1 0.43,-0.65 c 0.11,-0.11 0.44,-0.36 0.64,-0.34 0.2,0.02 0.59,0.55 0.66,0.5 0.07,-0.05 0,-0.36 0,-0.52 0,-0.16 0.32,-0.25 0.24,-0.39 -0.3,-0.05 -0.33,0.21 -0.6,0.22 a 1.45,1.45 0 0 1 -0.73,-0.28 2.08,2.08 0 0 1 -0.54,-0.47 c -0.32,-0.41 -0.8,-1.21 -0.91,-1.12 -0.11,0.09 0,0.22 0.09,0.39 v 0.09 a 0.55,0.55 0 0 1 0,0.17 0.46,0.46 0 0 1 -0.11,0.32 5.08,5.08 0 0 0 -0.32,0.4 l -0.3,0.09 c -0.31,0.09 -1.42,0.33 -1.73,0.39 a 1.24,1.24 0 0 0 -0.24,-0.16 0.42,0.42 0 0 0 -0.32,-0.06 c -0.11,0 -0.8,0.11 -1,0.11 a 2.42,2.42 0 0 0 -0.88,0.08 14.86,14.86 0 0 1 -3,0.7 15.14,15.14 0 0 0 -2.61,0.52 1.62,1.62 0 0 1 -0.5,0 7,7 0 0 0 -1.57,0 c -0.88,0.08 -1.05,-0.24 -1.46,-0.27 a 2.08,2.08 0 0 1 -0.48,-0.08 0.3,0.3 0 0 0 -0.09,-0.15 c -0.11,-0.12 0,-0.25 0.06,-0.37 -0.11,-0.37 -0.43,-0.71 -0.19,-1.13 -0.05,-0.17 -0.23,-0.29 -0.28,-0.47 -0.05,-0.18 0.06,-0.2 0.13,-0.3 a 1.07,1.07 0 0 0 -0.3,-0.77 3.32,3.32 0 0 0 -2.37,-0.25 3.46,3.46 0 0 0 -1.47,0.52 3.1,3.1 0 0 0 -1,2.51 c 0,0 0,0.15 0,0.22 0,0.07 0.11,0.13 0.17,0.15 0.21,0.06 0.49,0 0.69,0 a 0.13,0.13 0 0 1 0.11,0.09 c 0,0.08 0.08,0 0.1,0.08 a 0.42,0.42 0 0 1 -0.18,0.39 h -0.09 -0.05 a 1.64,1.64 0 0 0 -0.39,0.05 l -1,0.27 a 3.41,3.41 0 0 0 -1.53,0.69 9.22,9.22 0 0 0 -1,1.58 c -0.2,0.33 -1,0.89 -1.25,1.52 a 8.93,8.93 0 0 1 -0.65,1.52 1.73,1.73 0 0 0 -0.24,0.65 0.61,0.61 0 0 0 0.05,0.45 c 0.1,0.18 0.15,0.32 0.41,0.37 0.26,0.05 0.83,0.12 1.28,0.17 0.45,0.05 1.89,0.11 2.21,0.18 a 1,1 0 0 1 0.71,0.42 2,2 0 0 0 0.54,0.58 1,1 0 0 1 0.25,0.73 2.64,2.64 0 0 1 0,0.28 0.61,0.61 0 0 0 -0.2,0.41 1.81,1.81 0 0 0 -0.06,0.52 1.48,1.48 0 0 1 0,0.23 c -0.4,1.22 -1.19,1.91 -1.89,1.83 -0.27,-0.05 -0.5,-0.12 -0.66,-0.15 l -0.53,-0.08 c -0.41,-0.11 -0.25,-0.68 0,-0.85 a 5.38,5.38 0 0 0 1.21,-1.94 3.37,3.37 0 0 1 0.79,-1.3 0.58,0.58 0 0 0 0.11,-0.14 c 0.08,-0.12 0.07,-0.3 -0.17,-0.08 a 3.43,3.43 0 0 0 -0.78,1 11.58,11.58 0 0 1 -3.32,3.5 l -0.22,0.22 v 0 a 2.07,2.07 0 0 0 -1,1.71 2.3,2.3 0 0 0 0,0.66 5.25,5.25 0 0 0 0,1.71 c 0.1,0.17 0.18,-0.86 0.55,-0.79 a 2.11,2.11 0 0 0 0.71,0.43 c 0.34,0.13 0.42,0.37 0.36,0.57 v 0 a 0.83,0.83 0 0 0 0,0.15 c -0.13,0.52 0,1.73 -0.31,2 -0.31,0.27 -1,-0.15 -1.13,-0.3 v 0 c -0.2,-0.11 -0.17,0.16 0,0.3 a 1.88,1.88 0 0 0 0.8,0.44 0.73,0.73 0 0 0 0.75,-0.47 9.36,9.36 0 0 0 0.13,-1.65 3,3 0 0 1 0.18,-0.76 6.54,6.54 0 0 1 0.34,-0.68 2.67,2.67 0 0 1 1.38,-0.94 3.29,3.29 0 0 1 1.15,-0.11 2.61,2.61 0 0 1 1.66,1 2.08,2.08 0 0 0 1.71,0.9 c 0.18,-0.1 0.13,-0.32 0.15,-0.47 0.02,-0.15 0.09,-0.27 0.14,-0.39 0.05,-0.12 0.39,-0.61 0.64,-1 0.1,-0.13 0.22,-0.26 0.36,-0.42 a 9.83,9.83 0 0 1 1.07,-1.07 8.08,8.08 0 0 1 2.6,-1.68 14,14 0 0 1 3.82,-0.45 c 1,0 2.05,0 3.05,-0.13 a 6.38,6.38 0 0 0 1.65,-0.23 c 0.17,-0.06 0.38,-0.24 0.6,-0.24 0.22,0 0.19,0.15 0.34,0.15 0.15,0 0.29,-0.28 0.43,-0.47 0.39,-0.5 0.85,-1 1.25,-1.39 a 3.29,3.29 0 0 1 2.61,-1.23 c 0.23,0 0.61,0.21 0.66,0.06 0.05,-0.15 -0.25,-0.25 -0.38,-0.38 a 1.27,1.27 0 0 1 -0.45,-0.71 1.65,1.65 0 0 1 0.13,-1 c 0.12,-0.15 0.51,-0.19 0.84,-0.26 0.67,-0.14 1.09,-0.25 1.78,-0.41 a 9.19,9.19 0 0 0 1.31,-0.38 1.21,1.21 0 0 1 0.73,-0.2 c 0.27,0.06 0.57,0.68 0.73,1 a 6.9,6.9 0 0 1 1,2.36 4.58,4.58 0 0 1 0.04,1.77 1,1 0 0 1 -0.54,0.6 c -0.62,0.13 -0.87,-0.41 -1.4,-0.32 -0.05,0.23 0.18,0.35 0.33,0.45 a 2.38,2.38 0 0 0 0.49,0.3 c 0.69,0.29 1.52,0.31 1.63,1.16 a 1.52,1.52 0 0 1 -0.17,0.86 c -0.13,0.2 -0.47,0.3 -0.71,0.45 -0.24,0.15 -0.43,0.46 -0.75,0.39 -0.32,-0.07 -0.21,-0.43 -0.37,-0.55 -0.16,-0.12 -0.53,0.46 -0.72,0.78 a 3.66,3.66 0 0 0 -0.28,0.52 c -0.08,0.17 -0.23,0.45 -0.09,0.55 0.14,0.1 0.45,-0.42 0.71,-0.57 a 3.27,3.27 0 0 1 0.66,-0.24 6.37,6.37 0 0 0 1.7,-1 c 0.68,-0.5 1.27,-1.25 2.34,-1.27 a 8.24,8.24 0 0 1 2.29,0.5 c 0.74,0.2 1.43,0.39 2.24,0.53 a 2.27,2.27 0 0 1 0.6,0.93 c 0.15,0.33 0.37,0.57 0.19,1 0.06,0.29 0.61,0.51 0.56,0.88 -0.05,0.37 -0.56,0.18 -0.9,0.1 -0.34,-0.08 -0.53,-0.07 -0.58,-0.32 -0.05,-0.25 0.39,0 0.53,-0.08 a 0.46,0.46 0 0 0 0.07,-0.43 c -0.08,-0.26 -0.43,-0.27 -0.71,-0.39 a 2,2 0 0 1 -0.64,-0.41 3.36,3.36 0 0 1 -0.3,-0.6 c -0.27,-0.4 -0.8,-0.38 -1.29,-0.62 -0.31,-0.15 -0.57,-0.43 -1.1,-0.26 -0.15,0 -0.25,0.2 -0.4,0.28 a 2.94,2.94 0 0 1 -1,0.43 6.66,6.66 0 0 0 -1.33,0.19 c -0.36,0.13 -0.79,0.37 -0.88,0.65 -0.09,0.28 0,0.38 -0.07,0.56 a 2.08,2.08 0 0 1 -0.62,0.79 3.54,3.54 0 0 1 -2.3,1 2.77,2.77 0 0 1 -1.5,-0.37 c -0.34,-0.22 -0.54,-0.63 -1,-0.51 a 1,1 0 0 0 0.17,0.88 c 0.09,0.15 0.39,0.35 0.37,0.55 -0.02,0.2 -0.55,0.43 -0.67,0.5 a 9.36,9.36 0 0 1 -2.42,1 11.75,11.75 0 0 1 -4,0.43 6.65,6.65 0 0 1 -5.14,-2.95 c -0.12,-0.18 -0.31,-0.6 -0.49,-0.65 a 2.77,2.77 0 0 0 -1,0.15 c -0.26,0.09 -0.54,0.33 -0.47,0.5 0.07,0.17 0.41,0 0.68,0 0.27,0 1,0.32 1,0.58 0,0.26 -0.23,0.2 -0.2,0.33 0.03,0.13 0.53,0.25 0.8,0.43 a 2.53,2.53 0 0 1 0.68,3.29 c -0.11,0.18 -0.4,0.31 -0.37,0.44 0.03,0.13 0.38,0 0.52,0.09 0.14,0.09 0.39,0.63 0.41,0.84 a 3.61,3.61 0 0 1 -0.21,1.42 c -0.11,0.33 -0.42,1 -0.3,1.29 0.12,0.29 0.54,0.29 0.88,0.32 0.34,0.03 0.66,0 1,0 a 14.7,14.7 0 0 1 3,0 c 0.4,0.16 0.49,0.66 0.73,1 0.12,0.18 0.34,0.37 0.5,0.56 0.16,0.19 0.33,0.43 0.47,0.58 0.14,0.15 0.61,0.4 0.45,0.68 -0.16,0.28 -0.71,0.08 -0.82,0 -0.11,-0.08 -0.38,-1.15 -0.9,-1.48 -0.15,-0.1 -0.34,-0.15 -0.49,-0.24 -0.15,-0.09 -0.25,-0.28 -0.39,-0.3 -0.14,-0.02 -0.35,0.2 -0.51,0.28 -0.39,0 -0.79,0 -1.18,0 a 4.9,4.9 0 0 1 -1.18,-0.07 c -0.13,0 -0.23,-0.2 -0.34,-0.23 a 2,2 0 0 0 -1,0 c -0.13,0.07 -0.15,0.36 -0.32,0.41 -0.34,0.08 -0.88,-0.52 -0.9,-0.84 -0.02,-0.32 0.11,-0.4 0.12,-0.6 a 4.21,4.21 0 0 0 -0.27,-1.2 c 0,-0.12 -0.08,-0.24 -0.11,-0.37 v 0 c 0,-0.12 -0.07,-0.25 -0.1,-0.37 v 0 c 0,-0.14 -0.06,-0.27 -0.08,-0.39 -0.06,-0.6 0.35,-1.22 -0.32,-1.31 -0.31,0 -0.63,0 -1,0 a 4,4 0 0 0 -1,0 c -0.18,0.06 -0.23,0.26 -0.36,0.3 a 2,2 0 0 1 -0.92,0 l -0.27,-0.07 v 0 a 2.05,2.05 0 0 1 -0.4,-0.16 v 0 l -0.11,-0.07 c 0,0 0,0 0,0 l -0.23,-0.27 c -0.72,-0.66 -0.87,-2 -1.39,-2.86 -0.17,-0.29 -0.51,-0.68 -0.8,-0.73 a 5.94,5.94 0 0 0 -1.18,0.2 3.23,3.23 0 0 1 -1.35,-0.3 c -0.44,-0.23 -0.83,-0.69 -1.26,-1 a 2.25,2.25 0 0 0 -0.8,-0.34 2.36,2.36 0 0 0 -1.44,0.36 2.54,2.54 0 0 0 -0.79,0.69 c -0.41,0.62 -0.16,1.54 -0.24,2.47 0,0.54 -0.36,1.2 -0.92,1.26 a 1.71,1.71 0 0 1 -0.94,-0.22 c -0.18,-0.09 -0.17,0.28 0,0.35 v 0 a 1.48,1.48 0 0 0 0.78,0.14 c 0.26,0 0.74,-0.38 0.69,-0.21 a 1,1 0 0 1 -0.88,0.6 1.47,1.47 0 0 1 -0.63,-0.16 c 0,0 -0.07,0 -0.07,0 0,0 0,0.15 0,0.29 a 0.22,0.22 0 0 1 0,0.08 v 0 0 0 0 0 0 0.05 0 0 0 0 h 0.22 a 2.69,2.69 0 0 0 1.68,0.09 v 0 c 0.18,0.26 0.29,0.55 0.45,0.82 0.16,0.27 0.43,0.48 0.41,0.81 -0.57,0.14 -0.58,-0.33 -1.09,-0.23 a 0.74,0.74 0 0 0 -0.17,1.37 c 0.57,0.21 0.72,-0.33 1.35,-0.19 a 2,2 0 0 0 0.19,0.62 c -0.45,1 -0.9,2 -1.39,3 a 0.14,0.14 0 0 0 0,0.09 l 0.09,0.24 c 0,0 0,0 0,0 v 0 l 0.46,-0.93 c 0.11,-0.24 0.35,-1 0.64,-0.71 a 3,3 0 0 1 -0.32,0.9 c -0.18,0.4 -0.39,0.82 -0.6,1.24 a 0.19,0.19 0 0 0 0,0.13 l 0.1,0.26 c 0,0 0,0 0.05,0 0.44,-0.95 0.76,-1.88 1.18,-2.86 a 2.4,2.4 0 0 1 0.28,-0.58 c 0.24,-0.18 0.34,0.29 0.43,0.48 0.58,1.21 1.12,2.19 1.8,3.34 0.16,0.28 0.35,0.42 0.3,0.82 a 2.41,2.41 0 0 1 -2.71,1.64 c 0,0 0,0 0,0.08 a 1.22,1.22 0 0 0 0.09,0.17 c 0,0 0,0 0.06,0 a 3,3 0 0 0 0.67,0 3.21,3.21 0 0 0 2.47,-2.21 13.45,13.45 0 0 0 0.75,-3.2 18.24,18.24 0 0 0 -0.17,-6.1 c -0.09,-0.46 -0.45,-1.41 0.11,-1.48 0.4,-0.05 0.47,0.39 0.58,0.77 a 17.15,17.15 0 0 1 0.52,6.29 c -0.2,2.26 -0.69,4.79 -2,5.94 a 5.73,5.73 0 0 1 -1,0.69 3.43,3.43 0 0 1 -0.92,0.3 c -0.28,0 -0.28,-0.15 0.06,-0.21 h 0.14 a 3.09,3.09 0 0 0 1.11,-0.51 4.45,4.45 0 0 0 0.87,-1 c 0.14,-0.28 0.23,-0.41 0.13,-0.45 -0.1,-0.04 -0.37,0.43 -0.55,0.63 a 3.41,3.41 0 0 1 -2.05,1.03 h -0.25 -0.04 v 0 0 0 0 0 l 0.06,0.1 v 0 0 l 0.12,0.2 a 0.59,0.59 0 0 0 0,0.08 h 0.11 l 0.1,0.17 a 0.12,0.12 0 0 0 0.11,0 3.43,3.43 0 0 0 1.44,-0.44 5.82,5.82 0 0 0 2.44,-3.56 c 0.65,1.72 1.58,3.36 3.27,4 a 3.71,3.71 0 0 0 1.93,0.17 4.76,4.76 0 0 0 3.28,-2.58 10.24,10.24 0 0 0 1.15,-3.41 c 0.07,-0.38 0.13,-0.77 0.18,-1.16 a 14.72,14.72 0 0 1 2.36,-0.06 c 0.26,0 0.77,0.07 0.8,0.34 a 1.43,1.43 0 0 1 -0.18,0.41 11.7,11.7 0 0 1 -0.55,1.18 c -0.37,0.58 -1,0.72 -1,1.69 0,0.35 0.29,0.64 0.28,1 0,0.52 -0.58,0.71 -0.64,1.16 -0.05,0.3 0.08,0.5 0.06,0.71 -0.02,0.21 -0.53,0.58 -0.37,0.94 0.09,0.18 0.63,0.13 1,0.13 h 2.25 c 0.35,0 0.92,0 1,-0.11 a 0.33,0.33 0 0 0 0,-0.32 h 1.44 c 0.4,0 1.18,0.12 1.2,-0.24 0.02,-0.36 -0.32,-0.47 -0.45,-0.62 a 2.27,2.27 0 0 0 -0.55,-0.53 c -0.21,-0.11 -0.46,-0.11 -0.58,-0.3 -0.12,-0.19 -0.27,-0.45 -0.28,-0.69 -0.01,-0.24 0.17,-0.45 0.25,-0.71 a 2.85,2.85 0 0 0 0.16,-0.94 c 0.09,-0.28 0.58,-0.16 0.81,-0.3 0,-0.49 -0.46,-1 -0.47,-1.46 a 1.57,1.57 0 0 1 0.26,-0.73 c 0.11,-0.22 0.17,-0.43 0.3,-0.65 0.13,-0.22 0.59,-1 0.94,-0.94 0.35,0.06 0.36,0.41 0.52,0.62 0.16,0.21 0.48,0.14 0.51,0.35 0.03,0.21 -0.13,0.24 -0.17,0.4 a 0.92,0.92 0 0 0 0.06,0.84 8.74,8.74 0 0 0 2.79,0.36 c 0.1,-0.06 0,-0.2 0.11,-0.25 a 8,8 0 0 0 1.39,0.06 c 0.5,0 1.25,-0.06 1.31,-0.21 0.06,-0.15 -0.17,-0.44 -0.3,-0.65 a 2.71,2.71 0 0 0 -0.4,-0.58 c -0.2,-0.16 -0.5,-0.21 -0.65,-0.4 -0.3,-0.38 -0.41,-1 -0.77,-1.29 -0.14,-0.12 -0.3,-0.14 -0.47,-0.26 a 9.64,9.64 0 0 1 2.1,-0.08 c 0.29,0.08 0.49,0.32 0.75,0.4 0.26,0.08 0.34,0 0.47,0.09 0.13,0.09 0.07,0.41 0.09,0.6 a 1.11,1.11 0 0 0 0.51,0.75 3.65,3.65 0 0 0 1.08,0.07 c 0.54,0 1.19,0 1.29,-0.2 0.1,-0.2 -0.13,-0.56 -0.26,-0.77 a 2.93,2.93 0 0 0 -0.48,-0.62 c -0.38,-0.33 -0.68,-0.28 -0.92,-0.67 -0.07,-0.11 -0.1,-0.27 -0.19,-0.4 a 2.59,2.59 0 0 0 -0.6,-0.43 c -0.13,-0.09 -0.22,-0.22 -0.35,-0.26 a 1.65,1.65 0 0 0 -0.66,-0.07 c -0.37,0 -0.77,0.1 -1.2,0.11 -0.43,0.01 -0.81,0 -1.23,0 a 10.61,10.61 0 0 1 -2.42,-0.06 c -0.22,-0.05 -0.51,-0.2 -0.51,-0.3 0,-0.1 0.44,-0.45 0.57,-0.58 a 12.24,12.24 0 0 0 1.09,-0.86 7.78,7.78 0 0 1 0.49,-0.67 c 0.13,-0.12 0.64,-0.56 0.84,-0.56 0.2,0 0.33,0.22 0.51,0.37 0.18,0.15 0.38,0.27 0.52,0.38 a 4.74,4.74 0 0 0 1.09,0.71 l 1.27,0.52 a 4.21,4.21 0 0 1 1.2,0.6 3.65,3.65 0 0 1 0.75,1.12 4.23,4.23 0 0 1 0.45,1.41 2.26,2.26 0 0 0 0.26,1.18 1.37,1.37 0 0 0 1,0.39 c 0.27,0 0.52,-0.26 0.82,-0.35 a 7.25,7.25 0 0 1 1.41,0 7.45,7.45 0 0 1 1.25,0 3.07,3.07 0 0 1 1.11,0.41 c 0.31,0.15 0.91,0.29 1,0.56 0.09,0.27 -0.12,0.39 -0.15,0.53 a 1.22,1.22 0 0 0 0.09,0.73 c 0.09,0.15 0.44,0.24 0.7,0.32 a 3.38,3.38 0 0 0 1.27,0.24 c 0.32,0 0.79,-0.09 0.86,-0.21 a 2,2 0 0 0 -0.3,-0.93 c -0.21,-0.35 -0.72,-0.5 -0.88,-0.88 -0.16,-0.38 0,-0.69 -0.11,-1 -0.24,-0.72 -1,-0.76 -1.89,-0.8 -0.45,0 -0.94,0 -1.41,0 -0.47,0 -0.92,0 -1.4,-0.09 a 3.1,3.1 0 0 1 -1.23,-0.22 2.63,2.63 0 0 1 -0.81,-1.16 2.08,2.08 0 0 1 0.06,-0.86 5.15,5.15 0 0 0 0.17,-2 c 0,-0.25 -0.16,-0.44 -0.19,-0.69 a 2.51,2.51 0 0 1 0.13,-0.9 c 0.08,-0.23 0.22,-0.65 0.45,-0.65 0.23,0 0.23,0.22 0.32,0.3 0.09,0.08 0.32,0.19 0.43,0.35 a 1.77,1.77 0 0 1 0.21,0.51 2.2,2.2 0 0 0 0.2,0.54 c 0.18,0.24 0.7,0.27 0.6,0.6 -0.1,0.33 -0.38,0.18 -0.49,0.32 a 1,1 0 0 0 -0.07,0.88 c 0.1,0.18 0.4,0.31 0.6,0.45 0.2,0.14 0.44,0.29 0.65,0.41 a 3.54,3.54 0 0 1 1.22,0.8 c 0,0.72 0.13,1.23 1,1.14 0.51,-0.06 1.17,-0.15 1.84,-0.18 0.67,-0.03 1.37,0 1.89,0 0.23,0 0.4,0.15 0.58,0.17 0.18,0.02 0.65,0 0.69,0.22 0.04,0.22 -0.18,0.31 -0.19,0.47 a 1.07,1.07 0 0 0 0.4,0.9 3.26,3.26 0 0 0 0.69,0.13 7,7 0 0 0 1.44,0 c 0.63,-0.1 0.19,-0.5 0,-0.81 -0.19,-0.31 -0.23,-0.41 -0.37,-0.58 -0.14,-0.17 -0.54,-0.3 -0.69,-0.52 a 3.39,3.39 0 0 1 -0.15,-0.41 1.83,1.83 0 0 0 -0.51,-0.64 3.39,3.39 0 0 0 -2.17,-0.21 7.88,7.88 0 0 1 -2.06,0.1 1.94,1.94 0 0 1 -1.18,-1.18 c 0,-0.4 0.3,-0.73 0.32,-1.09 0,-0.54 -0.34,-1.35 0.18,-1.65 a 2,2 0 0 1 0.43,-0.13 c 0.52,-0.17 1,-0.54 1.6,-0.43 0.3,0.33 0.11,0.81 0.31,1.22 0,0.13 0.29,0.27 0.45,0.39 0.16,0.12 0.43,0.21 0.4,0.43 -0.03,0.22 -0.23,0.18 -0.32,0.3 a 1.26,1.26 0 0 0 -0.18,0.77 3.27,3.27 0 0 0 1.13,0.71 c 0.41,0.16 1.11,0.45 1.43,0.32 0.14,-0.07 0.09,-0.73 0,-1.07 a 2.57,2.57 0 0 0 -0.26,-0.56 2.1,2.1 0 0 1 -0.25,-0.56 c 0,-0.21 0.08,-0.5 0,-0.73 -0.08,-0.23 -0.39,-0.4 -0.56,-0.64 a 4.41,4.41 0 0 1 -0.24,-0.54 c -0.18,-0.36 -0.56,-0.6 -0.62,-0.94 0.95,0.08 2.61,0.05 2.82,0.12 0.21,0.07 0.38,0.6 0.49,1 0.14,0.16 0.54,0.24 0.49,0.49 -0.05,0.25 -0.25,0.13 -0.38,0.24 a 1.06,1.06 0 0 0 -0.07,0.69 c 0.1,0.25 0.75,0.54 1,0.66 0.25,0.12 0.84,0.61 1.07,0.52 0.23,-0.09 0.19,-0.32 0.19,-0.56 a 6.45,6.45 0 0 0 -0.19,-2.12 2.66,2.66 0 0 0 -0.67,-0.71 7.81,7.81 0 0 1 -0.64,-0.69 c 1,-0.41 1.78,-1.41 3.22,-1 -0.38,0.47 0,0.74 0.36,0.95 a 5,5 0 0 0 2.1,0.7 c 0.26,-0.11 0,-1.06 0,-1.54 0.47,-0.16 0.82,-0.46 1.33,-0.41 a 1.91,1.91 0 0 1 1.12,0.6 c 0.13,0.15 0.16,0.38 0.32,0.54 0.16,0.16 0.65,0.26 0.73,0.58 a 0.85,0.85 0 0 0 -0.19,0.88 3.07,3.07 0 0 0 1.9,0.59 c 0.15,-0.08 0,-1.18 -0.21,-1.6 -0.1,-0.19 -0.3,-0.29 -0.4,-0.49 -0.1,-0.2 -0.22,-0.82 -0.45,-1.07 a 2,2 0 0 0 -1,-0.33 3.21,3.21 0 0 1 -0.92,-0.36 5.54,5.54 0 0 0 -0.9,-0.62 c -0.92,-0.33 -1,-0.09 -1.06,-0.26 -0.06,-0.17 0.28,-0.35 0.46,-0.49 0.18,-0.14 0.29,-0.36 0.47,-0.48 a 3.34,3.34 0 0 1 0.68,-0.25 4.14,4.14 0 0 1 0.71,-0.26 c 0.7,-0.07 1,0.62 1.46,0.75 0.46,0.13 0.91,-0.23 1.11,-0.09 0.2,0.14 0.08,1 0.39,1.17 a 2.13,2.13 0 0 0 1.08,0.12 c 0.29,0 0.79,0 0.84,-0.29 0.05,-0.29 -0.18,-0.55 -0.29,-0.74 m -37.47,-15.94 a 0.45,0.45 0 0 1 0.43,0.3 c 0.06,0.39 -0.39,0.59 -0.54,0.84 a 8.52,8.52 0 0 0 -0.41,2 c -0.08,0.33 -0.37,0.64 -0.4,1 a 4.82,4.82 0 0 0 0.19,1.2 c 0.07,0.43 0.19,0.85 0.23,1.16 0.04,0.31 0,0.66 -0.47,0.68 a 10.49,10.49 0 0 1 -0.3,-1.11 5.4,5.4 0 0 1 -0.19,-1.68 12.89,12.89 0 0 1 0.41,-2.4 6.75,6.75 0 0 1 0.36,-1 c 0.13,-0.3 0.4,-0.88 0.69,-0.9 m -0.92,0.36 c 0,0.08 -0.07,0.16 -0.1,0.25 v 0 a 7.75,7.75 0 0 0 -0.7,2.37 c 0,0.52 0,1.11 0,1.68 a 17.75,17.75 0 0 0 0.13,2.42 c -0.21,0.23 -0.57,0.24 -0.88,0.32 a 56.33,56.33 0 0 1 -6.93,1.35 29.15,29.15 0 0 1 -6.57,-0.44 c -0.28,0 -0.6,-0.05 -1,-0.11 h -0.51 l -0.1,-0.08 c -0.05,-0.07 0,-0.1 0.09,-0.24 a 13.58,13.58 0 0 0 1.32,-1.86 c 0.32,-0.65 0.68,-1.59 0.7,-1.65 a 0.75,0.75 0 0 1 0.32,-0.27 3.63,3.63 0 0 1 1.88,-0.34 c 1.28,0 1.63,-0.26 2.28,-0.24 a 4,4 0 0 0 2.46,-0.4 c 1.14,-0.61 2.53,-1.51 3.19,-1.5 0.66,0.01 1.11,0.42 1.54,0.4 a 2.79,2.79 0 0 0 0.86,-0.24 c 0.12,0 0.33,0 0.45,-0.41 0.12,-0.41 0.18,-0.53 0.1,-0.71 l 1.47,-0.35 m -2.32,8.2 1.35,-0.24 c 0.08,0 0.11,0 0.1,0.14 -0.01,0.14 -0.37,0.18 -0.55,0.21 a 63.37,63.37 0 0 1 -7.7,1 h -1.38 a 4.68,4.68 0 0 1 -1.4,-0.14 23.28,23.28 0 0 1 2.93,-0.12 17.54,17.54 0 0 0 2.74,-0.28 c 1.32,-0.19 2.63,-0.4 3.91,-0.62 m -2.56,0.32 c 0,-0.07 0.28,-0.13 0.43,-0.17 0.77,-0.19 1.57,-0.36 2.41,-0.54 a 7.69,7.69 0 0 1 1.08,-0.21 0.35,0.35 0 0 1 0,0.21 39.89,39.89 0 0 1 -3.93,0.71 m -11.72,0.23 a 0.73,0.73 0 0 0 0.26,-0.13 h 0.06 1 c 0.22,0 0.64,-0.07 0.63,0.11 -0.01,0.18 -1.26,0.17 -1.9,0.13 h -0.22 c 0,-0.07 0.13,-0.09 0.16,-0.11 m 0.81,-0.39 h -0.44 a 0.52,0.52 0 0 0 -0.11,-0.19 9.36,9.36 0 0 1 2.31,0.29 c 0,0.13 -0.21,0.1 -0.32,0.09 -0.46,0 -0.9,-0.11 -1.44,-0.15 m -1.16,1 1.2,0.13 c 0.72,0.06 2.2,0.12 2.2,0.18 0,0.06 -0.38,0.11 -0.57,0.12 a 6.94,6.94 0 0 1 -0.79,0 c -0.31,0 -1.16,-0.12 -1.27,-0.13 -0.11,-0.01 -0.39,-0.09 -0.57,-0.13 l -0.26,-0.06 0.06,-0.11 m 3.19,-8 h 0.7 a 2.53,2.53 0 0 1 0.62,0.17 0.58,0.58 0 0 0 0.5,0 3.15,3.15 0 0 1 1.21,-0.07 4.24,4.24 0 0 0 0.95,0.09 16,16 0 0 0 1.93,-0.48 c 0.48,-0.13 1.05,-0.21 1.5,-0.31 0.45,-0.1 0.53,-0.13 1,-0.25 a 11.4,11.4 0 0 1 1.66,-0.5 c 0.33,0 0.93,0 1.08,0 a 2.31,2.31 0 0 1 0.58,0.15 c 0.06,0 0.18,0.16 0,0.27 a 1.14,1.14 0 0 1 -0.48,0.15 c -0.14,0 -0.18,0 -0.2,0.06 -0.02,0.06 -0.42,0.37 -0.51,0.41 a 0.46,0.46 0 0 1 -0.33,0 c -0.12,0 -0.49,-0.27 -0.52,-0.28 a 0.14,0.14 0 0 0 -0.13,0 11,11 0 0 0 -1.18,0.4 c -0.25,0.14 -0.7,0.45 -1.1,0.68 a 5.34,5.34 0 0 1 -2.44,0.9 1.39,1.39 0 0 1 -1,-0.29 0.3,0.3 0 0 0 -0.36,0 5.84,5.84 0 0 1 -2.36,0.33 c -0.75,0 -0.42,-0.54 -0.68,-0.52 -0.26,0.02 -0.92,0.56 -1.05,0.62 a 0.29,0.29 0 0 1 -0.4,-0.05 0.57,0.57 0 0 1 -0.11,-0.4 c 0,-0.1 -0.05,-0.17 0,-0.21 v 0 0 c 0.08,0 0.3,-0.07 0.38,-0.16 a 1.48,1.48 0 0 0 0.25,-0.26 0.35,0.35 0 0 0 0,-0.22 c 0,-0.07 0,-0.09 0,-0.11 a 0.49,0.49 0 0 1 0.38,-0.18 m -1.15,-1.29 c 0.19,0.08 0.19,-0.18 0.29,-0.28 a 1,1 0 0 1 0.38,0.24 c 0.11,0.16 0.26,0.35 0.16,0.54 -0.1,0.19 -0.23,0.07 -0.24,0.17 -0.01,0.1 -0.12,0.31 -0.21,0.45 0.11,0 0.26,0.08 0.28,0.2 0.02,0.12 0.05,0.36 -0.07,0.48 a 1.17,1.17 0 0 1 -0.63,0.08 4.48,4.48 0 0 1 -0.62,-0.11 0.14,0.14 0 0 0 -0.17,0.12 l -0.06,0.26 v 0 a 0.74,0.74 0 0 1 0,0.14 1.48,1.48 0 0 1 -0.13,0.35 v 0 c 0,0 0,0 -0.05,0 h -0.2 a 0.17,0.17 0 0 0 -0.12,0 c -0.06,0.06 0,0.19 -0.11,0.27 h -0.07 a 0.52,0.52 0 0 1 -0.33,-0.07 1.23,1.23 0 0 1 -0.38,-0.22 v 0 a 1.09,1.09 0 0 1 -0.14,-0.23 c -0.19,-0.28 -0.33,-0.51 -0.58,-0.82 l -0.05,-0.21 a 0.68,0.68 0 0 1 0.43,-0.56 1.76,1.76 0 0 1 1.46,0.28 v 0 l -0.09,-0.5 a 1.72,1.72 0 0 1 0.41,-1.58 1.14,1.14 0 0 1 0.53,-0.35 0.58,0.58 0 0 1 0.56,0.1 0.49,0.49 0 0 1 0.15,0.4 0.11,0.11 0 0 1 0,0.08 c -0.12,0.15 -0.33,0.07 -0.49,0.13 a 1.63,1.63 0 0 0 -0.44,0.43 1.45,1.45 0 0 1 0.56,0.15 m -3.75,0.12 a 0.59,0.59 0 0 1 -0.26,-0.38 c -0.16,-0.63 0.26,-1.09 0.7,-1.52 l 0.45,-0.32 a 4.07,4.07 0 0 1 2.17,-0.3 c 0.34,0.08 0.75,0 1,0.35 0,0.23 -0.27,0.21 -0.43,0.26 a 4.7,4.7 0 0 0 -1.77,1.28 1.91,1.91 0 0 1 -1.83,0.63 m -0.1,1.74 a 0.56,0.56 0 0 1 0.38,-0.13 0.36,0.36 0 0 1 0.24,0.08 c 0.08,0.06 0.15,0 0.36,0.46 0,0.05 0.1,0.21 0.14,0.27 a 2,2 0 0 0 0.11,0.26 1.24,1.24 0 0 0 0.46,0.38 1.12,1.12 0 0 0 0.25,0.11 0.85,0.85 0 0 0 0.23,0 h 0.2 a 1,1 0 0 0 0.65,-0.31 1.43,1.43 0 0 0 0.2,-0.23 0.78,0.78 0 0 0 0.19,-0.39 0.13,0.13 0 0 1 0.16,-0.11 c 0.07,0 0.05,0 0.07,0.07 0.02,0.07 0.1,0.41 0.13,0.48 a 3.1,3.1 0 0 1 0.08,1.5 6.21,6.21 0 0 1 -1.18,2.32 c -0.27,0.27 -0.62,0.43 -0.41,0 l 0.16,-0.38 a 4.41,4.41 0 0 0 0.14,-0.56 c 0.05,-0.16 -0.09,-0.11 -0.15,0 a 3.5,3.5 0 0 1 -0.94,1.41 1.26,1.26 0 0 1 -0.59,0.28 l -0.43,0.08 a 4.26,4.26 0 0 1 -0.51,0.09 c -0.06,0 -0.08,-0.07 0,-0.13 0.08,-0.06 0.23,-0.24 0.41,-0.49 l 0.46,-0.64 a 6.77,6.77 0 0 0 0.65,-1.47 c 0.06,-0.21 0,-0.21 -0.07,0 a 11.88,11.88 0 0 1 -0.88,1.49 11.77,11.77 0 0 1 -1,1.14 0.57,0.57 0 0 1 -0.54,0.07 6.84,6.84 0 0 1 -0.93,-0.44 c -0.08,-0.06 -0.11,-0.15 0,-0.22 a 18.49,18.49 0 0 0 2.63,-3.2 1.12,1.12 0 0 0 0.09,-0.69 1.33,1.33 0 0 0 -0.34,-0.8 4,4 0 0 0 -0.34,-0.22 0.09,0.09 0 0 1 0,-0.14 m -1.13,6.63 c -0.5,-0.11 -0.9,-0.28 -1.36,-0.34 -0.46,-0.06 -1.43,-0.03 -1.63,-0.03 a 1.1,1.1 0 0 1 -0.56,-0.17 l -0.42,-0.27 c -0.09,0 -0.39,-0.22 -0.32,-0.48 a 5.74,5.74 0 0 1 0.33,-0.73 4.76,4.76 0 0 1 0.34,-0.71 c 0.23,-0.28 1,-0.81 1.12,-1 a 4.51,4.51 0 0 1 0.28,-1 2.41,2.41 0 0 1 2.31,-1.51 c 0.39,0 1.32,0.12 1.08,1.09 a 1.84,1.84 0 0 1 -0.16,0.46 5.9,5.9 0 0 1 -0.68,0.91 1.52,1.52 0 0 1 -1.2,0.52 c -0.09,0 -0.15,0 -0.19,0.13 a 2.19,2.19 0 0 1 -0.73,1 2.65,2.65 0 0 1 -0.7,0.43 4.23,4.23 0 0 1 0.65,0.27 c 0.44,0.2 1.13,0.59 1.44,0.7 a 3,3 0 0 0 0.94,0.26 3.66,3.66 0 0 0 1,-0.2 0.89,0.89 0 0 1 0.33,-0.06 h 0.4 a 0.44,0.44 0 0 1 0.24,0.14 0.7,0.7 0 0 0 0.31,0.26 0.76,0.76 0 0 1 0.26,0.09 l 0.15,0.08 a 0.1,0.1 0 0 1 0,0.19 0.34,0.34 0 0 1 -0.23,0 1.39,1.39 0 0 0 -0.35,0 c -0.15,0 -0.2,0 -0.31,0.07 -0.11,0.07 -0.18,0.24 -0.64,0.14 -0.46,-0.1 -0.65,-0.22 -0.81,-0.22 a 2.06,2.06 0 0 1 -1,0.07 m -4.52,8.88 a 1.51,1.51 0 0 1 -1.26,-1.59 2.28,2.28 0 0 1 1.21,-1.86 3.22,3.22 0 0 1 1.43,-0.17 6.91,6.91 0 0 1 1.61,0.3 4.1,4.1 0 0 0 1,0 5.07,5.07 0 0 0 0.83,-0.16 c 0.09,0 0.2,0 0.24,0.11 0.04,0.11 -0.08,0.21 -0.17,0.28 a 1.57,1.57 0 0 1 -0.84,0.26 2.93,2.93 0 0 1 -1,-0.09 c -0.29,-0.06 -1.32,-0.29 -1.61,-0.33 a 2.09,2.09 0 0 0 -1.18,0.14 2.19,2.19 0 0 0 -1,1.52 1.14,1.14 0 0 0 0.41,0.9 0.71,0.71 0 0 0 0.45,0.2 0.49,0.49 0 0 1 0.37,0.09 c 0.15,0.12 0,0.26 0,0.3 0,0.04 -0.12,0.1 -0.42,0.06 m 1.67,-1.07 -0.11,0.06 a 4,4 0 0 1 -0.75,0.3 1.09,1.09 0 0 1 -0.76,-0.18 c -0.22,-0.08 -0.22,-0.47 -0.22,-0.7 0.1,-0.49 0.88,-1.46 1.43,-1.36 a 12.26,12.26 0 0 1 1.43,0.33 h 0.17 v 0 c 0.2,0.06 1.24,0.36 0.6,0.88 a 3.09,3.09 0 0 1 -0.83,0.35 4,4 0 0 0 -1.06,0.31 m 20.11,-5.68 a 3.79,3.79 0 0 1 -2.09,1.46 c -0.77,0.14 -1.66,0.17 -2.56,0.24 l -2.66,0.19 a 16.2,16.2 0 0 0 -2.64,0.28 5.15,5.15 0 0 0 -1.14,0.49 c -0.06,0 -0.33,0.22 -0.68,0.47 -0.24,0.06 -0.35,-0.66 -0.21,-1.05 a 1.71,1.71 0 0 0 0.19,-1 2.38,2.38 0 0 0 -0.27,-1 c 0,-0.12 0,-0.25 -0.14,-0.29 a 0.22,0.22 0 0 0 -0.28,0.15 0.44,0.44 0 0 0 0,0.35 3.22,3.22 0 0 1 0.14,0.87 1.78,1.78 0 0 1 -0.27,0.93 0.28,0.28 0 0 0 -0.06,0.22 c 0,0.08 0,0.84 0,1 0,0.16 0,0.41 -0.1,0.51 v 0 c -0.17,0.14 -0.33,0.29 -0.48,0.43 h -0.05 c -0.11,0 -0.24,-0.4 -0.24,-0.54 0,-0.14 0,-0.61 0,-0.82 0,-0.21 0,-0.31 0,-0.43 0,-0.12 -0.06,-0.3 -0.15,-0.16 a 1.86,1.86 0 0 0 -0.11,0.93 c 0,0.52 0,0.89 0,1 a 0.89,0.89 0 0 1 -0.11,0.67 v 0 l -0.09,0.1 a 3.84,3.84 0 0 0 -0.28,0.34 c -0.12,0.1 -0.27,0.17 -0.29,-0.1 0,-0.44 -0.05,-0.92 -0.1,-1.37 a 9.24,9.24 0 0 1 0,-1 c 0,-0.13 -0.09,-0.42 -0.18,-0.42 -0.09,0 -0.12,0.37 -0.11,0.57 0.01,0.2 0.09,1.9 0.07,2.51 -0.02,0.61 0,0.93 -0.25,1.1 -0.25,0.17 -0.54,0.14 -0.54,-0.24 a 12.48,12.48 0 0 0 0.06,-1.71 c -0.06,-0.82 0,-1.7 0,-1.86 0,-0.16 0,-0.23 0,-0.29 0,-0.06 -0.15,-0.18 -0.19,0 a 1,1 0 0 0 -0.06,0.41 c 0,0.18 0.12,1.51 0.12,1.75 a 8.89,8.89 0 0 1 -0.09,1.51 c -0.06,0.13 -0.1,0.19 -0.23,0.15 -0.13,-0.04 -0.22,-0.11 -0.23,-0.36 -0.01,-0.25 0,-0.88 0,-1.37 0,-0.49 0,-2.7 -0.07,-3.3 a 1.51,1.51 0 0 1 0,-0.65 0.49,0.49 0 0 1 0.14,-0.24 1,1 0 0 1 0.38,0.03 c 0.12,0 0.31,0.06 0.35,0.22 a 1.8,1.8 0 0 1 0.11,1 c -0.1,0.3 -0.34,0.44 -0.33,0.54 0.01,0.1 0.15,0.12 0.27,0 a 1.44,1.44 0 0 0 0.46,-0.8 1.4,1.4 0 0 0 -0.13,-0.74 c -0.18,-0.26 -0.34,-0.31 -0.34,-0.4 0,-0.09 0.08,-0.59 0.24,-0.66 a 0.6,0.6 0 0 1 0.43,0 1,1 0 0 1 0.66,0.94 3.8,3.8 0 0 1 -0.3,1.17 0.83,0.83 0 0 1 -0.25,0.38 0.2,0.2 0 0 0 0,0.16 0.18,0.18 0 0 0 0.05,0.08 c 0,0 0.05,0 0.08,0 a 1.6,1.6 0 0 0 0.62,-0.87 3.16,3.16 0 0 0 0.08,-1 2.74,2.74 0 0 0 -0.11,-0.66 0.8,0.8 0 0 0 -0.26,-0.29 11.82,11.82 0 0 0 2,0.28 h 0.25 c 1,0 2.32,-0.39 3.31,-0.47 0.99,-0.08 2.26,-0.15 3.37,-0.3 1.64,-0.23 3.27,-0.4 4.89,-0.69 0.66,-0.12 2,-0.49 1.91,-0.29 a 1.44,1.44 0 0 1 -0.36,0.4 c -0.37,0.51 -0.72,1.08 -1.14,1.57 m 1.22,-1 c -0.13,-0.11 0,-0.3 0,-0.41 a 2.6,2.6 0 0 1 0.55,-0.47 c 0.06,0 0.15,0 0.15,0.09 0,0.09 -0.62,0.9 -0.75,0.79 m 1.66,-1.74 a 0.25,0.25 0 0 1 -0.07,-0.32 c 0.06,-0.06 0.35,-0.13 0.39,0 0.04,0.13 -0.23,0.38 -0.32,0.35 m 3.34,-1.61 a 98.42,98.42 0 0 1 -12.24,2.55 9.88,9.88 0 0 1 -2,0.12 c 0,-0.09 0.29,-0.1 0.42,-0.12 1.14,-0.16 2.33,-0.3 3.43,-0.49 1.26,-0.22 2.53,-0.46 3.8,-0.71 2.5,-0.49 4.89,-1.16 7.21,-1.78 0.06,0 0.29,-0.1 0.3,0.13 0.01,0.23 -0.62,0.3 -0.82,0.34 m 5.67,-6.43 c 0.34,-0.28 0.93,-0.82 1.06,-0.78 0.13,0.04 0.16,0.46 0,0.58 -0.16,0.12 -0.24,0.07 -0.34,0.11 -0.53,0.22 -0.9,1.32 -1.2,1.15 -0.3,-0.17 0.25,-0.78 0.45,-1.06 m -2.94,1 c 0.05,-0.34 0.7,-0.37 1.14,-0.3 a 4,4 0 0 1 1.35,0.73 5.37,5.37 0 0 0 0.66,0.36 4.56,4.56 0 0 1 1,0.39 2,2 0 0 1 0.49,0.6 c 0.11,0.57 -0.53,0.52 -0.79,0.28 -0.26,-0.24 -0.14,-0.37 -0.32,-0.43 -0.18,-0.06 -0.51,-0.12 -0.71,0 0,0.18 0.24,0.24 0.28,0.45 a 3.58,3.58 0 0 1 -0.07,0.47 c 0,0.12 0.06,0.22 0,0.3 -0.06,0.08 -0.38,0.48 -0.6,0.36 -0.22,-0.12 0.23,-0.37 0.22,-0.64 a 5.32,5.32 0 0 1 -1.16,0.07 c -0.42,-0.07 -0.79,-0.52 -1,-0.84 -0.21,-0.32 -0.35,-0.36 -0.34,-0.64 0.01,-0.28 0.46,0 0.66,-0.09 0.09,-0.39 -0.29,-0.38 -0.49,-0.52 a 0.58,0.58 0 0 1 -0.28,-0.55 m -0.34,4.14 c 0,-0.15 0.23,-0.43 0.32,-0.5 0.43,-0.3 1.93,-0.45 2,-0.21 0.07,0.24 -0.86,0.72 -1.45,0.81 -0.23,0 -0.87,0.12 -0.92,-0.1 m -15.12,23.48 c 0,0.18 -0.19,1 -0.37,0.94 -0.18,-0.06 -0.28,-0.41 -0.36,-0.57 -0.08,-0.16 -0.28,-0.43 -0.37,-0.65 0.17,0 0.26,0.11 0.45,0.13 0.19,0.02 0.42,-0.06 0.55,0 a 0.22,0.22 0 0 1 0,0.08 v 0 0.06 m -13.83,-6 v 0 a 1,1 0 0 1 0.1,-0.16 c 0.07,-0.1 0.16,-0.2 0.23,-0.31 a 3.42,3.42 0 0 0 0.34,-0.58 11.58,11.58 0 0 0 0.37,-1.49 v 0 l 0.06,-0.19 a 1,1 0 0 1 0.19,-0.32 v 0 0 a 0.45,0.45 0 0 1 0.24,-0.15 0.29,0.29 0 0 1 0.28,0.09 1.58,1.58 0 0 1 0.17,0.86 2.29,2.29 0 0 1 0,0.25 v 0 a 4.36,4.36 0 0 1 0,0.45 5.36,5.36 0 0 1 -0.52,1.48 c -0.13,0.35 -0.24,1.24 -0.58,1.4 -0.34,0.16 -0.55,-0.23 -0.7,-0.52 -0.15,-0.29 -0.32,-0.43 -0.3,-0.66 a 0.26,0.26 0 0 1 0,-0.11 m 2.69,-2.85 c -0.26,-0.07 -0.35,-0.94 0.09,-0.84 0.44,0.1 0.06,0.7 -0.09,0.84 m -0.83,3.5 a 17.64,17.64 0 0 1 0.83,-2.32 c 0.11,-0.23 0.17,-0.66 0.52,-0.62 0.23,0.29 -0.06,0.88 -0.19,1.27 a 14.06,14.06 0 0 1 -1,2.38 c 0,0.08 -0.18,0.43 -0.38,0.3 -0.2,-0.13 0.07,-0.74 0.15,-1 m 4.72,-2.54 a 0.36,0.36 0 0 1 0.18,-0.13 1,1 0 0 1 0.13,0.19 c 0,0 -0.52,1 -0.65,1 -0.13,0 0.21,-0.75 0.37,-1.06 m 2,2.17 0.08,0.05 h 0.06 l 0.15,0.08 v 0 l 0.31,0.16 0.11,0.24 0.24,0.59 a 2.4,2.4 0 0 1 0.28,0.88 1.74,1.74 0 0 1 -0.8,0.09 12.72,12.72 0 0 1 -2.31,0 5,5 0 0 1 1,-2.77 l 0.37,0.28 c 0.17,0.12 0.34,0.25 0.53,0.36 m 1.19,0.54 a 1.91,1.91 0 0 0 0.36,0.13 l 0.14,0.3 a 1.71,1.71 0 0 1 0.07,0.18 v 0 a 2.05,2.05 0 0 1 0.17,0.74 c -0.35,0.09 -0.48,-0.31 -0.61,-0.55 -0.13,-0.24 -0.14,-0.29 -0.2,-0.43 -0.06,-0.14 -0.13,-0.31 -0.18,-0.45 l 0.24,0.08 m 2,1.1 v 0 c 0,0 0,0 0,-0.05 v 0 0 0 a 0.14,0.14 0 0 1 0,-0.06 v 0 0 0 c 0,0 0,0 0,0 v 0 -0.05 0 0 0 0 0 0 0 0 0 0 h 0.1 0.05 v 0 0 a 2,2 0 0 1 -0.37,0.78 0.36,0.36 0 0 1 -0.26,-0.09 c 0,0 0,-0.08 0.05,-0.13 a 0.14,0.14 0 0 1 0,-0.06 m 0.83,-0.49 v 0 l 0.14,-0.08 h 0.05 v 0 a 3.67,3.67 0 0 1 0.34,1.84 v 0 a 0.35,0.35 0 0 1 -0.17,-0.17 3.17,3.17 0 0 1 -0.2,-0.42 3,3 0 0 1 -0.2,-1 1.1,1.1 0 0 1 0,-0.18 m 0.91,4 c -0.15,0.17 -0.56,-0.13 -0.58,-0.33 a 0.26,0.26 0 0 1 0.32,-0.3 c 0.16,0 0.41,0.46 0.26,0.63 m -0.32,-2.44 a 1.33,1.33 0 0 1 0.12,0.69 c 0,0.29 -0.26,0.55 -0.28,0.83 -0.08,-0.17 -0.23,-0.32 -0.23,-0.49 a 1.67,1.67 0 0 1 0.15,-0.45 2.87,2.87 0 0 0 0.15,-0.84 l 0.09,0.26 m -0.54,0 a 2.35,2.35 0 0 1 -0.75,0 1.57,1.57 0 0 1 -0.18,-0.79 c 0.18,-0.16 0.58,-0.06 0.84,-0.05 a 1,1 0 0 1 0.09,0.86 m -0.51,-2 v 0 a 0.56,0.56 0 0 1 0,0.12 v 0 l -0.06,0.12 v 0 l -0.06,0.09 a 0.54,0.54 0 0 1 -0.67,0.22 c -0.21,-0.06 -0.28,-0.31 -0.35,-0.56 v 0 -0.1 0 a 1,1 0 0 0 0,-0.1 v 0 a 0.41,0.41 0 0 0 0,-0.09 c 0.45,0.08 0.93,0.12 1.38,0.2 0,0 0,0.08 0,0.13 m -0.65,1.69 c -0.26,0.18 -0.5,-0.07 -0.8,-0.11 a 16.08,16.08 0 0 0 -1.82,0 c -0.61,0 -1.21,0 -1.76,0 v -0.19 c 0.78,-0.11 1.73,0 2.6,0 a 14.53,14.53 0 0 1 1.24,-0.17 0.34,0.34 0 0 1 0.32,0.47 m -4.43,-3.54 a 4.69,4.69 0 0 1 0.41,-0.94 c 0.17,0.25 0.31,0.54 0.49,0.79 -0.15,0.25 -0.4,0.78 -0.6,1.08 a 0.32,0.32 0 0 1 -0.54,0.06 2,2 0 0 1 0.24,-1 m 0,3.84 a 0.07,0.07 0 0 1 0,-0.06 28.72,28.72 0 0 1 3.52,0.15 1.13,1.13 0 0 1 0.11,0.34 c 0,0.13 0.15,0.26 0.15,0.35 0,0.09 -0.23,0.44 -0.32,0.62 -0.65,1.24 -1.27,2.36 -2,3.6 a 1.84,1.84 0 0 1 -0.38,0.54 c -0.21,0 -0.36,-0.47 -0.43,-0.64 -0.07,-0.17 -0.2,-0.55 -0.28,-0.78 a 6.58,6.58 0 0 1 -0.47,-1.65 10.2,10.2 0 0 1 0,-2.47 m 1.55,5.45 c 0.59,-1.1 1.22,-2.22 1.82,-3.3 0.09,-0.15 0.2,-0.55 0.34,-0.6 0.14,-0.05 0.22,0 0.24,0.08 0.02,0.08 -0.17,0.43 -0.26,0.61 -0.57,1.15 -1.17,2.19 -1.82,3.32 -0.07,0.13 -0.2,0.51 -0.41,0.45 -0.21,-0.06 0.06,-0.5 0.09,-0.56 m 0.53,0.22 c 0.48,-1.1 1.18,-2 1.7,-3.07 0.22,-0.45 0.38,-1.18 0.75,-1.39 0.37,-0.21 0.36,0.18 0.47,0.4 0.42,0.86 0.66,1.46 1.1,2.34 0.13,0.28 0.42,0.64 0.4,1 a 2.84,2.84 0 0 1 -0.46,1.22 2.46,2.46 0 0 1 -1.73,1.27 3.22,3.22 0 0 1 -1.87,-0.3 1.07,1.07 0 0 1 -0.52,-0.77 2.71,2.71 0 0 1 0.28,-0.69 m 3.44,-3.51 c -0.07,-0.18 -0.41,-0.89 0,-0.84 0.15,0 0.34,0.54 0.41,0.69 0.26,0.48 0.47,0.93 0.71,1.43 0.17,0.35 0.44,0.7 0.28,1.1 -0.21,0 -0.28,-0.21 -0.37,-0.34 a 12.09,12.09 0 0 1 -1,-2 m -5.87,-8.04 a 0.38,0.38 0 0 1 -0.58,0.1 c -0.1,-0.61 0.77,-0.62 0.58,-0.1 m -5.69,-0.64 a 2.81,2.81 0 0 1 0.86,-1.09 1.44,1.44 0 0 1 0.8,-0.15 c 1.09,0.1 1.78,1 2.87,1.09 0.27,0 0.49,-0.08 0.82,0 -0.06,0.2 -0.35,0.25 -0.56,0.28 a 2.56,2.56 0 0 1 -1.44,-0.28 c -0.62,-0.32 -0.86,-0.78 -1.82,-0.64 a 1.92,1.92 0 0 0 -0.93,0.62 2.68,2.68 0 0 0 -0.25,0.51 c -0.05,0.13 -0.14,0.5 -0.3,0.47 -0.16,-0.03 -0.13,-0.57 0,-0.77 m -1,2 a 7,7 0 0 0 0.05,-1.61 0.09,0.09 0 0 1 0.07,-0.08 c 0.27,0.06 0.3,0.83 0.25,1.24 a 2,2 0 0 1 -0.43,1 c -0.33,-0.09 -0.07,-0.35 0,-0.61 m 0.37,2.21 a 3.91,3.91 0 0 1 -0.32,-0.6 1.17,1.17 0 0 1 0.38,-0.21 6.16,6.16 0 0 0 0.33,0.56 c 0.11,0.17 0.32,0.4 0.32,0.55 a 0.28,0.28 0 0 1 -0.32,0.26 c -0.15,0 -0.31,-0.41 -0.39,-0.56 m 0.86,1.87 c -0.37,0.11 -0.71,-0.08 -1,0 -0.29,0.08 -0.26,0.22 -0.45,0.22 -0.55,0 -0.51,-0.89 0,-0.93 0.19,0 0.3,0.16 0.47,0.2 0.32,0.06 1.14,-0.2 1.16,0.25 0,0.13 -0.05,0.15 -0.13,0.26 m 0.83,0.58 a 1,1 0 0 1 -0.54,0 c -0.29,-0.26 0,-0.73 -0.08,-1.14 0,-0.23 -0.37,-0.34 -0.32,-0.58 0.07,-0.43 0.7,0.09 0.85,0.23 0.15,0.14 0.31,0.4 0.5,0.48 a 1.76,1.76 0 0 0 0.51,0 h 1 a 2,2 0 0 1 0.95,0.09 c 0.05,0.07 0,0.15 0,0.25 a 5.3,5.3 0 0 1 -1.5,0 2.85,2.85 0 0 0 -0.84,0 c -0.22,0.07 -0.29,0.47 -0.56,0.58 m 2.15,4.69 c -0.23,0 -0.43,-0.56 -0.52,-0.72 -0.3,-0.55 -0.57,-1.07 -0.86,-1.64 -0.12,-0.23 -0.41,-0.66 -0.34,-0.88 0.23,-0.12 0.51,0.48 0.64,0.71 0.31,0.53 0.61,1.13 1,1.65 0.12,0.19 0.66,0.9 0.13,0.88 m 1,-3.66 a 15.51,15.51 0 0 1 -0.26,2 c -0.05,0.34 -0.09,0.77 -0.32,0.79 -0.23,0.02 -0.51,-0.5 -0.66,-0.75 -0.39,-0.63 -0.71,-1.12 -1.05,-1.78 a 2,2 0 0 1 -0.33,-1.07 c 0.11,-0.47 0.83,-0.41 1.36,-0.43 0.53,-0.02 1.11,-0.09 1.26,0.19 a 3.73,3.73 0 0 1 0,1.06 m -0.3,-4.64 c 0.07,0.39 0.18,0.68 0.24,1.09 0.06,0.41 0.15,1 0,1.19 a 1,1 0 0 1 -0.5,0.17 12.33,12.33 0 0 1 -1.76,-0.09 c -0.41,-0.41 -0.13,-1.06 0.07,-1.59 0.2,-0.53 0.47,-1.16 0.73,-1.84 0.14,-0.38 0.25,-0.93 0.51,-0.88 0.26,0.05 0.38,0.6 0.47,0.88 a 6.39,6.39 0 0 1 0.26,1.07 m 10.49,7.32 a 6.67,6.67 0 0 1 -1.11,2.74 7.82,7.82 0 0 1 -2,1.83 4.3,4.3 0 0 1 -0.43,0.21 c -0.12,0.06 -0.41,0.2 -0.45,0 -0.04,-0.2 0.37,-0.31 0.56,-0.43 a 13.16,13.16 0 0 0 1.05,-0.69 c 0.16,-0.14 0.46,-0.43 0.39,-0.54 -0.07,-0.11 -0.35,0.17 -0.47,0.28 a 3.16,3.16 0 0 1 -1.95,1 2.51,2.51 0 0 1 -1.23,-0.13 c -0.07,0 -0.56,-0.22 -0.63,-0.08 -0.07,0.14 0.5,0.28 0.51,0.53 0.01,0.25 -0.54,-0.08 -0.71,-0.17 a 6,6 0 0 1 -2.49,-3.18 c -0.09,-0.2 -0.24,-0.61 -0.12,-0.69 0.12,-0.08 0.18,0.23 0.25,0.35 0.33,0.61 0.75,1.27 1.13,1.86 0.15,0.24 0.48,0.69 0.58,0.61 0.1,-0.08 -0.42,-0.73 -0.64,-1.12 -0.22,-0.39 -0.62,-1.01 -0.62,-1.19 0,-0.18 0.3,0.34 0.41,0.54 a 4.81,4.81 0 0 0 1.91,2 2.75,2.75 0 0 0 1.26,0.38 2.62,2.62 0 0 0 1.72,-0.66 7.59,7.59 0 0 0 2.23,-3.7 c 0.11,-0.31 0.22,-0.93 0.52,-1 0.49,-0.06 0.33,0.82 0.25,1.29 m 2.6,1.33 c 0,-0.19 0.32,-0.4 0.43,-0.54 0.4,-0.5 0.75,-1.35 1.09,-1.78 a 0.57,0.57 0 0 1 0.22,-0.17 0.29,0.29 0 0 1 0.32,0.24 c 0.05,0.24 -0.15,0.44 -0.22,0.66 a 1.43,1.43 0 0 1 -0.17,0.54 c -0.25,0.33 -0.83,0.56 -0.88,1 0,0.23 0.13,0.39 0.09,0.6 a 0.39,0.39 0 0 1 -0.35,0.3 c -0.24,0 -0.57,-0.54 -0.53,-0.86 m 0,3.38 c -0.13,-0.2 0.36,-0.87 0.78,-0.83 a 0.76,0.76 0 0 1 0.51,0.43 c 0.07,0.46 -1.16,0.6 -1.29,0.4 m 2.12,-0.7 a 1,1 0 0 1 -0.92,-0.67 c 0,-0.21 0.37,-0.66 0.58,-0.66 0.21,0 0.68,1.06 0.36,1.33 m 0,-1.69 c -0.38,-0.1 -0.8,-0.54 -0.68,-1 a 3.32,3.32 0 0 1 0.51,-0.62 c 0,0 0,-0.06 0.06,-0.06 a 3.34,3.34 0 0 1 0.58,0.23 c 0.05,0.67 -0.31,0.93 -0.47,1.4 m 2.35,1.81 c 0.13,0.31 -0.27,0.43 -0.62,0.35 -0.35,-0.08 -0.46,-0.19 -0.45,-0.38 0,0 0,0 0,0 v 0 0 c 0.08,-0.22 0.93,-0.21 1.05,0.1 m -1,-1.41 c -0.14,0.18 -0.28,0.41 -0.58,0.26 -0.28,-0.68 0.08,-1.32 0.17,-1.95 0.3,0 0.61,0.06 0.9,0.11 a 2.35,2.35 0 0 1 -0.49,1.58 m 10.63,-6.14 c 0,-0.22 0.48,-0.37 0.81,-0.28 a 0.5,0.5 0 0 1 0.35,0.22 c 0.28,0.44 -1,0.58 -1.16,0.2 a 0.17,0.17 0 0 1 0,-0.14 m 11.62,-1.36 c 0.47,0 0.91,-0.07 1.38,-0.07 0.11,0 0.92,-0.12 0.88,0.2 -0.04,0.32 -1,0.33 -1.29,0.36 -0.29,0.03 -0.54,0 -0.79,0 a 5.23,5.23 0 0 1 -1.12,0 c -0.11,0 -0.27,-0.13 -0.26,-0.26 0.01,-0.13 0.9,-0.22 1.2,-0.23 m 14.43,-7.19 c 0.14,-0.24 1,0.21 0.85,0.58 -0.15,0.37 -1,-0.35 -0.85,-0.58 m -6.57,-6.89 a 3,3 0 0 0 0.3,0.19 c 0.18,0.09 0.47,0.11 0.51,0.31 0.04,0.2 -0.26,0.58 -0.4,0.7 -0.14,0.12 -0.39,0.19 -0.35,0.35 0.04,0.16 0.6,0 0.71,0 a 1,1 0 0 1 0.69,0.2 0.87,0.87 0 0 1 0.36,0.81 3,3 0 0 1 -0.3,1.03 c -0.1,0.15 -0.4,0.48 -0.58,0.51 -0.18,0.03 -0.61,-0.22 -0.84,-0.34 -0.56,-0.3 -1,-0.48 -1.59,-0.75 a 2,2 0 0 0 -1.24,-0.26 5.88,5.88 0 0 0 -0.79,0.34 1.83,1.83 0 0 1 -0.84,0.3 c -0.32,0 -0.58,-0.47 -0.71,-0.83 -0.13,-0.36 -0.12,-0.85 -0.21,-1.18 a 4.18,4.18 0 0 1 -0.28,-0.82 2.67,2.67 0 0 1 0.19,-0.71 c 0.07,-0.28 0.07,-0.64 0.13,-1 a 6.09,6.09 0 0 0 0.09,-1 v 0 c 0,-0.15 0,-0.32 0,-0.49 a 1.86,1.86 0 0 1 0.67,-0.18 11.75,11.75 0 0 0 2.23,-0.45 13.08,13.08 0 0 0 1.31,-0.55 13.1,13.1 0 0 1 1.22,-0.55 c 0.27,-0.1 0.44,0.08 0.57,0.34 0,0 0.05,0.11 0.07,0.17 a 5,5 0 0 1 0.49,2.92 c 0,0.31 -0.15,0.65 -0.36,0.75 -0.45,0.22 -1.22,-0.21 -1.31,-0.09 -0.09,0.12 0.15,0.2 0.26,0.26 m -4.81,-3.26 c 0.56,-0.11 1.19,-0.18 1.81,-0.28 0.82,-0.13 2.14,-0.67 2.23,-0.6 0.09,0.07 -0.24,0.21 -0.37,0.28 a 7.36,7.36 0 0 1 -2.55,0.77 c -0.55,0.07 -1.55,0.22 -1.59,0.07 -0.04,-0.15 0.31,-0.21 0.47,-0.24 m 8,-3.05 a 9.86,9.86 0 0 1 -1.45,0.82 c -0.2,0.1 -0.56,0.37 -0.82,0.3 a 0.21,0.21 0 0 1 -0.1,-0.06 l -0.09,-0.18 a 1.93,1.93 0 0 1 -0.3,-0.86 c 0,-0.25 0.46,-0.44 0.75,-0.62 a 3.25,3.25 0 0 1 0.9,-0.47 2.22,2.22 0 0 1 1.4,0.15 0.39,0.39 0 0 1 0.23,0.3 c 0,0.29 -0.35,0.5 -0.52,0.62 m -1.78,-4.16 a 10.1,10.1 0 0 1 1.64,0.6 c 0.49,0.24 0.9,0.56 1.39,0.86 0.27,0.17 0.62,0.31 0.54,0.71 0,0.21 -0.26,0.31 -0.46,0.43 a 1.19,1.19 0 0 1 -0.21,0.15 c -0.47,0.16 -1,-0.19 -1.33,-0.28 -0.33,-0.09 -0.32,-0.53 -0.54,-0.71 -0.22,-0.18 -0.34,-0.13 -0.32,-0.28 0.02,-0.15 0.21,-0.14 0.34,-0.13 0.13,0.01 0.73,0.29 0.79,0.19 0.06,-0.1 -0.41,-0.35 -0.68,-0.47 a 11.7,11.7 0 0 1 -1.18,-0.55 c -0.05,-0.16 -0.15,-0.43 0,-0.52 m -4.87,0.79 a 0.75,0.75 0 0 1 0.41,-0.34 c 0.27,0.25 0.58,0 0.79,-0.13 0.41,0.05 0.74,-0.07 1,0.07 0.12,0.05 0.18,0.28 0.28,0.3 0.1,0.02 0.21,-0.15 0.23,-0.2 0.02,-0.05 -0.18,-0.36 -0.25,-0.36 a 0.46,0.46 0 0 1 -0.3,-0.54 c 0.13,-0.14 0.4,-0.05 0.58,0 0.18,0.05 0.14,-0.25 0.26,-0.32 0.29,0.12 0.54,-0.05 0.86,-0.07 0.32,-0.02 0.85,0.18 0.83,0.5 a 0.37,0.37 0 0 1 -0.25,0.3 c -0.28,0.09 -0.7,0 -0.78,0.15 -0.08,0.15 0.66,0.4 0.9,0.79 a 2.08,2.08 0 0 1 0.26,1.33 1.78,1.78 0 0 1 -1.14,1 1.19,1.19 0 0 1 -0.34,0.13 c -0.52,0 -0.57,-0.5 -0.77,-0.84 -0.57,0.11 -0.19,0.55 0,0.9 0.37,0.58 0.75,1.16 1.08,1.76 v 0 a 0.52,0.52 0 0 1 0.08,0.3 c -0.05,0.27 -0.91,0.48 -1.18,0.56 a 19.38,19.38 0 0 1 -4.27,1 0.53,0.53 0 0 1 -0.25,-0.28 c 0,-0.12 0,-0.24 -0.07,-0.35 v 0 a 1.93,1.93 0 0 1 0,-0.34 c 0.14,-0.32 0.44,-0.31 0.88,-0.43 0.27,-0.07 0.43,-0.24 0.7,-0.21 a 0.28,0.28 0 0 1 0.13,0 l 0.13,0.1 0.34,0.2 v 0 c 0.3,0.16 0.65,0.3 0.74,0.25 0.09,-0.05 -0.06,-0.34 0,-0.5 0.26,-0.2 0.57,0.1 0.8,0 0.23,-0.1 0.22,-0.4 0.26,-0.69 0.04,-0.29 0.22,-0.25 0.25,-0.41 0.07,-0.33 -0.24,-0.74 -0.45,-1 a 16.34,16.34 0 0 0 -1.46,-1.41 c -0.21,-0.2 -0.64,-0.55 -0.64,-0.78 0,-0.23 0.21,-0.33 0.3,-0.47 m -1,0.66 c 0.15,-0.26 0.68,0.23 1,0.48 a 12.93,12.93 0 0 1 1.36,1.31 c 0.21,0.24 0.57,0.45 0.49,0.79 -0.22,0 -0.63,0 -0.86,0 -0.23,0 -0.14,0.35 -0.26,0.47 -0.31,0 -0.48,-0.29 -0.7,-0.49 -0.22,-0.2 -0.51,-0.37 -0.69,-0.56 a 0.63,0.63 0 0 1 -0.21,-0.43 c 0,-0.21 0.33,-0.29 0.36,-0.49 0.08,-0.47 -0.61,-0.8 -0.45,-1.06 m 0.14,3.23 0.13,0.06 c 0.11,0.49 -0.32,0.59 -0.73,0.71 -0.41,0.12 -0.59,0.28 -0.81,0.15 h -0.05 a 1.3,1.3 0 0 1 -0.08,-0.17 c -0.09,-0.2 -0.33,-0.62 -0.28,-0.78 0.05,-0.16 0.36,-0.17 0.58,-0.17 a 4.19,4.19 0 0 1 1.24,0.24 m -4.48,-4.21 c 0.32,0 0.52,-0.36 0.86,-0.36 a 1.19,1.19 0 0 1 0.56,0.23 c 0.17,0.13 0.22,0.36 0.4,0.43 a 4.34,4.34 0 0 0 0.52,0.09 2.21,2.21 0 0 1 0.56,0.34 c 0.2,0.17 0.46,0.33 0.49,0.6 0,0.47 -0.36,0.85 -0.58,1.12 -0.22,0.27 -0.34,0.52 -0.71,0.58 a 1.64,1.64 0 0 1 -1.54,-0.86 1,1 0 0 1 -0.13,-0.45 c 0,-0.25 0.24,-0.51 0.12,-0.59 -0.12,-0.08 -0.27,0.12 -0.35,0.25 a 1.75,1.75 0 0 0 0,1 3.88,3.88 0 0 0 0.69,0.93 8.92,8.92 0 0 1 0.86,0.73 3,3 0 0 1 0.5,0.85 0.66,0.66 0 0 1 0,0.48 c -0.14,0.28 -1,0.48 -1.37,0.57 -1,0.26 -2.12,0.5 -3.22,0.67 a 11.55,11.55 0 0 1 -1.67,0.21 c -0.1,0 -0.11,-0.06 -0.1,-0.11 0.08,-0.25 0.15,-0.53 0.29,-0.55 0.3,-0.05 0.56,0.61 0.9,0.15 0,-0.2 -0.19,-0.25 -0.11,-0.45 0.16,-0.37 0.64,0.06 0.82,0.06 a 0.83,0.83 0 0 0 0.62,-0.45 c 0,-0.1 0,-0.24 0.07,-0.36 a 3.5,3.5 0 0 0 0.19,-0.65 4.19,4.19 0 0 0 -0.26,-1.39 c -0.14,-0.43 -0.54,-0.73 -0.45,-1.31 a 2.91,2.91 0 0 1 0.56,-1 c 0.09,-0.13 0.22,-0.27 0.32,-0.42 a 2.32,2.32 0 0 1 0.3,-0.45 c 0.21,-0.17 0.81,-0.36 0.84,0.1 m -4.92,6.31 v -0.08 c 0,-0.27 0.44,-0.31 0.6,-0.31 a 0.16,0.16 0 0 1 0.13,0.09 0.15,0.15 0 0 1 0,0.11 1.11,1.11 0 0 1 -0.42,0.61 c -0.06,0 -0.19,-0.16 -0.33,-0.42 m 1.44,0.6 c 0.75,-0.14 1.51,-0.21 2.28,-0.36 a 29.13,29.13 0 0 1 2.91,-0.65 c 0.06,0.11 -0.36,0.24 -0.58,0.3 a 18.38,18.38 0 0 1 -5,1 c -0.11,0 -0.31,0 -0.32,-0.08 -0.01,-0.08 0.44,-0.18 0.66,-0.22 m 1.33,-6.63 a 4.23,4.23 0 0 1 1.35,-1.63 c 0.16,-0.1 0.41,0.15 0.41,0.3 0,0.15 -0.36,0.49 -0.49,0.64 a 7.65,7.65 0 0 0 -1.35,2 c -0.71,-0.17 -0.18,-0.85 0.08,-1.31 m -2,1.87 c 0.24,0 0.52,0.3 0.6,0.2 0.08,-0.1 -0.27,-0.52 -0.37,-0.82 0,-0.12 -0.14,-0.24 0,-0.47 0.14,-0.23 0.65,0 0.87,0.19 a 6.86,6.86 0 0 1 1.5,2.22 3.69,3.69 0 0 1 0.13,0.49 c 0,0.17 0,0.43 -0.17,0.43 -0.17,0 -0.18,-0.36 -0.31,-0.36 -0.34,0.18 -0.07,0.84 -0.43,1 -0.2,0.07 -0.35,-0.18 -0.38,-0.3 -0.03,-0.12 0,-0.62 0,-0.82 0,-0.2 -0.31,-0.26 -0.52,-0.45 -0.21,-0.19 -0.3,-0.31 -0.45,-0.47 a 3.27,3.27 0 0 1 -0.43,-0.47 c -0.06,-0.12 -0.07,-0.24 0.07,-0.32 m -1.63,2 a 6.56,6.56 0 0 0 1.2,0.23 c 0.2,0.19 0.46,0.36 0.47,0.69 a 0.63,0.63 0 0 1 -0.07,0.25 0.76,0.76 0 0 1 -0.08,0.11 3.28,3.28 0 0 1 -0.95,0.11 0.52,0.52 0 0 1 -0.22,-0.22 c 0,0 0,0 0,0 a 6.24,6.24 0 0 1 -0.51,-1 c 0,-0.13 0.09,-0.16 0.17,-0.12 m -5.41,2 c 1.43,-0.06 3.05,-0.13 4.4,-0.28 0.25,0 0.53,-0.1 0.75,-0.1 0.22,0 0.27,0 0.28,0.15 0.01,0.15 -0.36,0.18 -0.45,0.19 -1.24,0.16 -2.82,0.15 -4.1,0.26 -0.43,0 -1.37,0.12 -1.4,-0.06 -0.03,-0.18 0.36,-0.15 0.52,-0.16 m 7.06,6.72 a 1.51,1.51 0 0 1 -0.67,0 c -1.17,-0.23 -2.39,-0.75 -3.54,-0.92 a 2.37,2.37 0 0 0 -0.88,0 c -0.3,0.07 -0.52,0.3 -0.9,0.34 -0.34,-0.37 -0.12,-0.88 -0.24,-1.33 -0.06,-0.26 -0.28,-0.47 -0.36,-0.71 a 5.83,5.83 0 0 1 -0.15,-0.73 14.09,14.09 0 0 0 -0.41,-2.27 c 0,0 0,0 0,0 a 0.42,0.42 0 0 1 0,-0.22 c 0.07,-0.29 0.75,-0.31 1.14,-0.34 1.38,-0.12 2.83,-0.25 4.07,-0.33 a 0.7,0.7 0 0 1 0.83,0.44 0.58,0.58 0 0 1 0.05,0.14 5.11,5.11 0 0 1 0.33,1.76 c 0,0.66 0,1.4 -0.43,1.68 a 1.21,1.21 0 0 1 -0.78,0.13 c -0.13,0 -0.33,-0.1 -0.4,0 -0.07,0.1 0.21,0.17 0.32,0.21 l 0.43,0.17 c 0.29,0.11 0.64,0.18 0.9,0.3 a 1.72,1.72 0 0 1 0.69,0.86 1.11,1.11 0 0 1 0,0.84 m 0.49,-1 a 2.47,2.47 0 0 0 -0.34,-0.6 c -0.1,-0.14 -0.35,-0.38 -0.39,-0.56 -0.08,-0.37 0.17,-0.73 0.19,-1.13 0,-0.6 -0.14,-1.34 -0.15,-1.89 0,0 0,-0.08 0,-0.12 v 0 c 0.11,-0.21 1,-0.22 1.54,-0.3 0.54,-0.08 1,-0.17 1.55,-0.28 1,-0.22 2,-0.54 3,-0.71 a 1.54,1.54 0 0 1 0.64,0 0.81,0.81 0 0 1 0.37,0.32 c 0,0.17 0.06,0.33 0.08,0.5 a 5.16,5.16 0 0 1 0,1.88 c -0.06,0.27 -0.12,0.55 -0.17,0.86 -0.08,0.5 -0.09,1 -0.51,1.14 a 3,3 0 0 1 -1.63,-0.26 c 0.1,0.69 1.12,0.55 1.71,0.78 a 1.06,1.06 0 0 1 0.47,0.55 0.87,0.87 0 0 1 0.09,0.8 c -0.42,0 -0.63,-0.32 -0.9,-0.47 a 3.29,3.29 0 0 0 -1.18,-0.48 10.36,10.36 0 0 0 -1,0.13 4.86,4.86 0 0 0 -0.54,0 3.22,3.22 0 0 0 -1.16,0.77 c -0.19,0.17 -0.75,0.84 -1,0.86 a 0.65,0.65 0 0 1 -0.34,-0.13 c -0.13,-0.51 -0.09,-1.12 -0.26,-1.65 m 0.52,3.18 c 0,-0.31 -0.23,-0.58 -0.18,-0.86 0.05,-0.28 0.44,-0.44 0.58,-0.54 l 0.65,-0.47 a 3.77,3.77 0 0 1 1.33,-0.88 10.27,10.27 0 0 1 1.22,-0.06 2.18,2.18 0 0 1 1.44,0.49 l 0.62,0.41 c 0.46,0.29 1,0.45 1.35,0.71 a 1.89,1.89 0 0 1 0.35,0.32 1.69,1.69 0 0 1 0.1,0.64 2.28,2.28 0 0 0 0.28,0.71 c 0.16,0.26 0.72,0.69 0.39,0.94 -0.17,0.13 -0.88,0 -1.08,-0.13 -0.2,-0.13 -0.41,-0.38 -0.34,-0.55 0.07,-0.17 0.45,-0.09 0.54,-0.24 0.09,-0.15 -0.2,-0.59 -0.32,-0.66 -0.12,-0.07 -0.6,-0.12 -0.78,-0.2 -0.18,-0.08 -0.5,-0.67 -0.81,-0.86 -0.13,-0.07 -0.36,-0.1 -0.49,-0.17 -0.33,-0.17 -0.53,-0.5 -0.91,-0.45 -0.38,0.05 -0.44,0.41 -0.64,0.5 a 1.93,1.93 0 0 1 -0.84,0.12 c -0.47,0 -0.81,-0.06 -1.09,0.24 a 2.14,2.14 0 0 0 -0.17,0.3 2.52,2.52 0 0 1 -0.65,0.75 0.58,0.58 0 0 1 -0.55,-0.06 m 5.72,0.17 c 0.21,-0.14 0.36,0.15 0.52,0.28 a 1.25,1.25 0 0 0 -0.47,1 c -0.18,0 -0.4,-0.07 -0.56,-0.13 a 1.61,1.61 0 0 1 0.51,-1.16 m -1.07,0.71 c -0.48,0.21 -0.91,-0.18 -1.46,-0.22 -0.29,0 -0.6,0 -0.9,0 a 2.14,2.14 0 0 1 -1.22,-0.43 1.31,1.31 0 0 1 0.45,-0.55 1.88,1.88 0 0 1 0.6,-0.39 3.68,3.68 0 0 1 0.47,0 3.7,3.7 0 0 0 1.4,-0.39 c 0.26,-0.14 0.42,0.21 0.58,0.37 a 4.07,4.07 0 0 0 0.77,0.51 c -0.24,0.33 -0.3,0.9 -0.69,1.08 m -5.64,1.54 c 0.29,0.1 0.61,0.2 0.84,0.26 0.23,0.06 0.2,0 0.27,0.11 a 1.26,1.26 0 0 1 -1.07,0.45 1.7,1.7 0 0 1 -0.53,-0.37 c -0.24,-0.18 -0.49,-0.27 -0.54,-0.58 0.21,-0.24 0.67,0 1,0.13 m -6.4,-2.1 a 2.4,2.4 0 0 1 1.59,-1.16 c 0.2,0 0.41,0 0.62,0 0.21,0 0.52,-0.22 0.76,-0.24 a 2.62,2.62 0 0 1 1.43,0.5 c 0.09,0.08 0.16,0.26 0.26,0.38 0.1,0.12 0.62,0.4 0.62,0.67 0,0.27 -0.14,0.22 -0.25,0.36 -0.11,0.14 -0.15,0.27 -0.3,0.3 a 1.82,1.82 0 0 1 -0.67,-0.1 c -0.44,-0.1 -0.79,-0.2 -1.27,-0.28 a 2.83,2.83 0 0 0 -0.68,-0.09 c -0.37,0.05 -0.61,0.4 -0.95,0.49 a 4.14,4.14 0 0 1 -1.33,0.07 c -0.3,-0.34 0,-0.67 0.17,-0.88 m -9.76,9 a 0.84,0.84 0 0 1 -0.58,0 c 0,-0.06 0.15,-0.24 0.3,-0.25 0.15,-0.01 0.33,0.11 0.28,0.2 m -2.87,-2.71 c 0.16,-0.44 0.42,-1 0.77,-1.16 a 2.82,2.82 0 0 1 1.66,-0.09 c 0.38,0.14 0.2,1 0.1,1.61 a 4.86,4.86 0 0 1 -1.53,2.43 c -1.57,0.17 -1.43,-1.66 -1,-2.79 m -2.34,3.15 c -0.07,0.28 -0.61,0.42 -0.93,0.3 -0.32,-0.12 -0.56,-0.4 -0.49,-0.71 a 2,2 0 0 1 0.19,-0.43 c 0.13,-0.22 0.16,-0.49 0.43,-0.51 0.27,-0.02 0.33,0.23 0.47,0.47 0.14,0.24 0.4,0.55 0.33,0.88 m 4.1,1.76 c -0.23,0 -0.31,-0.43 -0.25,-0.56 0.06,-0.13 0.55,-0.22 0.62,0 a 0.51,0.51 0 0 1 -0.37,0.54 m 1.41,0.46 c -0.15,0.28 -0.2,0.58 -0.4,0.61 -0.35,0 -0.67,-0.42 -0.53,-0.83 a 1.46,1.46 0 0 1 1,-0.88 0.29,0.29 0 0 1 0.35,0.25 c 0.06,0.4 -0.28,0.58 -0.42,0.85 m 2.6,-1 c -0.61,0.11 -0.89,-0.5 -1.27,-0.64 -0.65,0 -1.23,0 -1.8,0 a 6.22,6.22 0 0 1 -1.78,0 c -0.28,-0.07 -0.51,-0.3 -0.92,-0.32 -0.41,-0.02 -1.42,0.14 -1.76,-0.09 -0.34,-0.23 -0.28,-0.89 -0.24,-1.41 a 4.06,4.06 0 0 0 -1,-3.29 c -0.05,0 -0.33,-0.28 -0.32,-0.45 0,-0.5 0.63,-0.1 0.84,0 0.5,0.26 1.42,0.3 1.77,0.61 0.35,0.31 -0.06,1.74 -0.1,2.57 0,0.16 0,0.42 0.05,0.68 a 2.07,2.07 0 0 0 0,0.67 c 0.11,0.27 0.73,0.36 1.16,0.39 a 18.17,18.17 0 0 0 2.87,-0.09 c 0.25,0 0.51,0 0.73,0 a 2.28,2.28 0 0 1 1.16,0 2.15,2.15 0 0 1 0.56,0.43 c 0.13,0.11 0.39,0.34 0.39,0.58 a 0.52,0.52 0 0 1 -0.41,0.42 m 2.34,1.05 h -0.1 a 0.58,0.58 0 0 1 -0.42,-0.07 0.74,0.74 0 0 1 -0.35,-0.32 0.39,0.39 0 0 1 0,-0.37 c 0.08,-0.26 0.3,-0.29 0.57,-0.3 0.27,-0.01 0.48,0.54 0.31,1 m 0.52,-1.64 c 0,0.22 -0.69,0.34 -1,0.36 -0.31,0.02 -1.24,0 -1.12,-0.36 0,-0.19 0.83,-0.21 1.12,-0.22 0.12,0 1,0 1,0.22 m -2.4,-1.61 a 10.85,10.85 0 0 0 1.39,0 c 0.92,0 1.82,-0.08 2.75,-0.09 a 6.78,6.78 0 0 1 1.35,0 c 0.28,0.05 0.67,0.4 0.58,0.68 -0.09,0.28 -0.43,0.17 -0.64,0 -0.21,-0.17 -0.44,-0.44 -0.95,-0.39 -0.32,0 -0.69,0.17 -1.11,0.21 -0.78,0.08 -1.65,0.09 -2.43,0.18 -0.6,0.06 -1.2,0.23 -1.58,-0.07 -0.38,-0.3 -0.28,-0.87 -0.71,-0.88 -0.22,0 -0.27,0.19 -0.39,0.3 a 0.79,0.79 0 0 1 -0.45,0.24 0.92,0.92 0 0 1 -0.73,-0.62 c 0,-0.25 0.28,-0.68 0.41,-1.1 0.13,-0.42 0.06,-1.2 0.26,-1.52 a 0.72,0.72 0 0 1 1,-0.26 2.55,2.55 0 0 1 0.37,1.93 c 0,0.25 -0.21,0.41 -0.2,0.62 0,0.43 0.69,0.71 1.12,0.78 m 1.65,-3.65 a 6.5,6.5 0 0 0 -0.54,0.47 8.1,8.1 0 0 1 -0.62,0.73 0.86,0.86 0 0 1 -0.55,0.21 c -0.29,0 -0.49,-0.53 -0.61,-0.81 -0.12,-0.28 -0.08,-0.37 -0.15,-0.56 a 3.23,3.23 0 0 1 -0.17,-0.53 c 0,-0.67 0.42,-0.82 0.84,-1.1 0.26,-0.18 0.39,-0.38 0.69,-0.41 0.3,-0.03 0.32,0.17 0.47,0.32 0.15,0.15 0.5,0.5 0.79,0.76 0.29,0.26 0.34,0.29 0.34,0.4 0,0.11 -0.31,0.38 -0.49,0.52 m 7.17,2.36 c -0.14,-0.32 -0.87,-0.47 -1,-0.88 -0.15,-0.68 0.56,-0.57 0.62,-1.07 -0.72,-0.09 -1.56,0.24 -2.4,0.19 a 3.84,3.84 0 0 1 -1.59,-0.39 c -0.23,-0.13 -0.93,-0.58 -0.88,-1 0,-0.18 0.35,-0.38 0.56,-0.47 a 12.73,12.73 0 0 1 1.63,-0.49 c 0.58,-0.15 1.15,-0.34 1.65,-0.45 a 1.84,1.84 0 0 1 1.36,0.28 c 0.26,0.13 0.5,0.25 0.53,0.49 a 1.41,1.41 0 0 1 -0.23,0.84 c -0.13,0.22 -0.35,0.41 -0.35,0.66 0,0.25 0.25,0.07 0.39,0.13 0.43,0.19 0.65,1.14 0.64,1.85 0,0.46 0,1.57 -0.49,1.56 -0.49,-0.01 -0.31,-0.87 -0.47,-1.24 m 1.6,2.88 a 5.73,5.73 0 0 0 1.55,0.14 c 0.79,0.07 1.65,0 2.39,0.05 a 8,8 0 0 1 1.07,0.13 c 0.29,0 0.57,-0.07 0.75,0 a 0.67,0.67 0 0 1 0.36,0.83 c -0.28,0.09 -0.47,-0.31 -0.58,-0.29 -0.11,0.02 -0.55,0.33 -1,0.25 -0.45,-0.08 -0.65,-0.39 -1,-0.45 -0.54,-0.08 -1.22,0 -1.87,-0.07 -0.32,0 -0.64,0 -1,0 a 6.11,6.11 0 0 0 -0.9,-0.08 c -0.21,0 -0.38,0.2 -0.58,0.17 -0.45,-0.07 -0.48,-1.26 -0.21,-1.41 0.27,-0.15 0.71,0.61 1,0.75 m 1.57,-6.4 a 2.13,2.13 0 0 0 -0.4,-0.39 3.06,3.06 0 0 0 -0.82,-0.62 c -0.38,-0.15 -0.78,-0.15 -1.14,-0.28 -0.36,-0.13 -0.77,-0.58 -1.46,-0.56 a 6.37,6.37 0 0 0 -1.3,0.26 17.68,17.68 0 0 0 -2.32,0.82 3.23,3.23 0 0 1 -1.5,0.47 c -0.27,0 -0.88,-0.16 -0.88,-0.41 0,-0.25 0.63,-0.21 1,-0.28 0.65,-0.13 1.06,-0.68 1.68,-1 a 10.76,10.76 0 0 1 2,-0.43 13.08,13.08 0 0 1 2.03,-0.5 3.1,3.1 0 0 1 1.18,0.28 2.06,2.06 0 0 1 0.58,0.69 4.09,4.09 0 0 0 0.56,0.7 c 0.14,0.12 0.35,0.18 0.49,0.3 0.14,0.12 0.22,0.26 0.35,0.37 a 8.26,8.26 0 0 1 1.13,1 1.42,1.42 0 0 1 0.35,1 1.32,1.32 0 0 1 -1,-0.1 c -0.4,-0.25 -0.31,-0.87 -0.54,-1.29 m 1.88,3 c -0.07,0 -1.24,-0.46 -1.18,-0.79 0.06,-0.33 1.24,-0.4 1.32,0.21 a 0.91,0.91 0 0 1 -0.14,0.58 m -0.59,-2.9 c -0.12,-0.13 -0.32,-0.23 -0.34,-0.43 -0.02,-0.2 0.36,-0.12 0.58,-0.09 a 2.49,2.49 0 0 1 1.61,0.93 3.26,3.26 0 0 1 0.11,0.88 c 0,0.28 0.11,0.57 0.13,0.79 0,0.38 0,1 -0.39,1 -0.39,0 -0.34,-0.49 -0.34,-0.86 0,-1.14 -0.75,-1.61 -1.36,-2.21 m 2.17,5.51 c -0.05,0.39 -0.78,0.16 -0.84,-0.08 a 1.28,1.28 0 0 1 0.07,-0.35 c 0,-0.3 -0.1,-0.64 0,-0.92 0.09,-0.49 0.84,-0.3 0.77,0.32 0,0.19 -0.31,0.43 -0.32,0.56 -0.01,0.13 0.4,0.19 0.36,0.47 m 1.79,-6.08 c 0,0.15 -0.83,0.3 -1.16,0.32 a 2.39,2.39 0 0 1 -1.09,-0.19 c -0.18,-0.06 -0.6,-0.15 -0.62,-0.3 -0.02,-0.15 0.51,-0.33 0.64,-0.37 a 3.36,3.36 0 0 1 0.86,-0.17 2.67,2.67 0 0 1 0.79,0.26 c 0.16,0.07 0.64,0.25 0.58,0.45 m 2.26,0.49 a 12.71,12.71 0 0 1 0.6,1.29 0.8,0.8 0 0 1 -0.93,0 c -0.17,-0.17 -0.15,-0.49 -0.28,-0.75 a 3.88,3.88 0 0 0 -0.62,-0.71 2.6,2.6 0 0 1 -0.53,-1.54 c -0.2,-0.27 -0.45,0 -0.78,0.06 a 1.72,1.72 0 0 1 -0.83,-0.19 c -0.22,-0.1 -0.46,-0.37 -0.65,-0.37 -0.19,0 -0.27,0.25 -0.32,0.43 -0.05,0.18 -0.39,0.32 -0.6,0.26 -0.21,-0.06 -0.18,-0.34 -0.23,-0.62 -0.05,-0.28 -0.18,-0.39 -0.13,-0.56 0.05,-0.17 0.37,-0.08 0.58,-0.09 0.6,0 1.27,-0.24 1.8,-0.23 0.37,0 0.62,0.25 0.94,0.3 a 11.41,11.41 0 0 1 1.46,2.08 c 0.15,0.23 0.36,0.41 0.52,0.64 m 4.25,-0.4 c 0.17,0.22 0.36,0.59 0.23,0.78 -0.13,0.19 -0.91,-0.11 -1.05,-0.61 a 2,2 0 0 0 -0.15,-0.54 c -0.13,-0.18 -0.61,-0.2 -0.95,-0.23 -1.07,-0.13 -2.07,-0.16 -3.06,-0.37 a 4.85,4.85 0 0 1 -0.58,-1 c 0.11,-0.15 0.22,-0.19 0.51,-0.17 a 10.29,10.29 0 0 1 2.88,0.71 5.18,5.18 0 0 1 1.2,0.6 5.67,5.67 0 0 1 1,0.82 m 3.11,-2.06 a 7.68,7.68 0 0 0 -2.21,0 c -0.24,0.1 -0.39,0.4 -0.63,0.56 -0.24,0.16 -0.62,0.24 -0.92,0.4 -0.3,-0.12 -0.52,-0.32 -0.81,-0.45 -0.12,-0.29 0,-0.84 -0.09,-1.2 -0.09,-0.36 -0.34,-0.45 -0.34,-0.66 0,-0.47 1,-0.77 1.41,-0.8 0.41,-0.03 1.74,0.31 0.86,0.56 -0.15,0 -0.32,0 -0.34,0.17 -0.02,0.17 0.33,0.25 0.6,0.24 0.47,0 0.6,-0.27 1.07,-0.22 a 2.53,2.53 0 0 1 1,0.37 2.35,2.35 0 0 1 0.38,0.64 0.71,0.71 0 0 1 0,0.37 m -0.13,-1.18 c -0.54,-0.57 -1.53,-0.63 -2.1,-1.21 0,-0.11 0.09,-0.16 0,-0.34 -0.09,-0.18 -0.77,-0.26 -1.19,-0.13 -0.2,0.07 -0.41,0.23 -0.65,0.32 -0.24,0.09 -0.49,0.17 -0.68,0.28 -0.19,0.11 -0.39,0.39 -0.6,0.48 0,-0.19 0,-0.37 -0.09,-0.58 -0.09,-0.21 -0.15,-0.28 -0.13,-0.39 0.02,-0.11 0.39,-0.21 0.54,-0.28 0.39,-0.18 0.73,-0.58 1.24,-0.56 a 4,4 0 0 1 2,0.63 23.94,23.94 0 0 1 2.16,1.12 c 0.26,0.16 0.82,0.53 0.84,0.77 0.02,0.24 -0.3,0.53 -0.54,0.54 -0.42,0 -0.58,-0.4 -0.79,-0.62 m 0.56,1.32 c 0.09,-0.34 1.26,-0.22 1.26,0.22 0,0.64 -1.35,0.12 -1.26,-0.22 m 2.12,-1.28 c 0.18,0 0.44,0 0.49,0.13 0.05,0.13 -0.14,0.57 -0.23,0.68 a 1,1 0 0 1 -0.88,0.28 0.81,0.81 0 0 1 -0.07,-0.75 1.6,1.6 0 0 1 0.69,-0.34 m 2.09,-2.65 c -0.05,0.3 -0.72,0.35 -1.08,0.48 -0.36,0.13 -0.4,0.45 -0.62,0.77 -0.22,0.32 -0.75,0.94 -1.09,0.81 -0.34,-0.13 -0.28,-0.46 -0.2,-0.7 0.08,-0.24 0.71,-0.57 0.94,-0.79 0.46,-0.43 0.69,-0.95 1.46,-1 0.38,0 0.64,0.16 0.59,0.46 m 4.31,1.65 c -0.25,0.3 -1,0.11 -1,-0.24 0,-0.35 1.08,-0.33 1,0.24"
     id="path4187"
     inkscape:connector-curvature="0"
     style="fill:#1d1d1b" />
  <polygon
     class="cls-2"
     points="1513.2,27.23 1510.13,30.44 1510.13,27.23 1505.3,27.23 1505.3,50.78 1510.42,50.78 1510.42,34.3 1513.15,31.52 1520.52,31.52 1521.93,32.93 1521.93,50.78 1527.05,50.78 1527.05,31.42 1522.95,27.23 "
     id="polygon4189"
     style="fill:#141212"
     transform="translate(-618.27841)" />
  <path
     class="cls-2"
     d="m 924.22159,32.63 1.42,-1.4 h 9.08 l 1.36,1.4 v 4.15 h -11.86 z m 14.88,14.14 h -13.46 l -1.42,-1.36 v -4.68 h 17 v -9.31 l -4.1,-4.21 h -14 l -4.09,4.21 v 15.17 l 4.09,4.2 h 15.9 z"
     id="path4191"
     inkscape:connector-curvature="0"
     style="fill:#141212" />
  <polygon
     class="cls-2"
     points="1582.74,50.78 1585.86,47.61 1585.86,50.78 1590.68,50.78 1590.68,27.23 1585.56,27.23 1585.56,43.76 1582.84,46.49 1575.42,46.49 1574.06,45.08 1574.06,27.23 1568.93,27.23 1568.93,46.59 1573.03,50.78 "
     id="polygon4193"
     style="fill:#141212"
     transform="translate(-618.27841)" />
  <polygon
     class="cls-2"
     points="1607.02,34.84 1609.75,32.11 1616.04,32.11 1616.04,27.23 1610.14,27.23 1606.73,30.74 1606.73,27.23 1601.9,27.23 1601.9,50.78 1607.02,50.78 "
     id="polygon4195"
     style="fill:#141212"
     transform="translate(-618.27841)" />
  <path
     class="cls-2"
     d="m 1011.0716,31.52 h 9.13 l 1.36,1.42 v 12.14 l -1.36,1.42 h -9.13 l -1.35,-1.42 V 32.93 Z m -6.54,-0.1 v 15.17 l 4.1,4.2 h 14 l 4.1,-4.2 V 31.42 l -4.1,-4.21 h -14 z"
     id="path4197"
     inkscape:connector-curvature="0"
     style="fill:#141212" />
  <path
     class="cls-2"
     d="m 896.01159,80.86 -1.46,-1.86 2.62,-12.44 2.3,-1.9 h 8.15 l 2.43,3.16 -2.1,9.94 -3.75,3.12 z m 19.41,-19.55 h -3.76 l -0.73,3.42 -2.58,-3.42 h -10.05 l -4.83,4 -3.12,14.83 3.12,4.05 h 10 l 3.75,-3.15 -1.75,8.14 -2.24,1.9 h -13.37 l -0.68,3.37 h 15.21 l 4.83,-4 z"
     id="path4199"
     inkscape:connector-curvature="0"
     style="fill:#141212" />
  <path
     class="cls-2"
     d="m 928.23159,66.28 2.29,-1.89 h 9.8 l 1.41,1.89 -0.92,4.5 h -13.55 z m 12.29,14.79 h -13.51 l -1.51,-1.86 1.12,-5.36 h 17.5 l 1.8,-8.55 -3.07,-4 h -13.55 l -4.83,4 -3.12,14.84 3.12,4 h 15.36 z"
     id="path4201"
     inkscape:connector-curvature="0"
     style="fill:#141212" />
  <path
     class="cls-2"
     d="m 956.80159,81.07 -1.46,-1.86 0.88,-4.24 2.23,-1.91 h 11.62 l -1,4.88 -3.81,3.13 z m 11.17,3.11 h 3.75 l 4,-18.88 -3.08,-4 h -15.27 l -0.68,3.08 h 13.42 l 1.46,1.89 -0.85,3.73 h -13.27 l -4.8,4 -1.31,6.1 3.12,4 h 10.12 l 4.05,-3.36 z"
     id="path4203"
     inkscape:connector-curvature="0"
     style="fill:#141212" />
  <polygon
     class="cls-2"
     points="1608.87,68.19 1612.68,65.07 1618.72,65.07 1619.5,61.31 1613.7,61.31 1609.36,64.92 1610.14,61.31 1606.38,61.31 1601.56,84.18 1605.51,84.18 "
     id="polygon4205"
     style="fill:#141212"
     transform="translate(-618.27841)" />
  <polygon
     class="cls-2"
     points="1628.96,66.28 1631.25,64.39 1642.18,64.39 1642.81,61.31 1629.99,61.31 1625.16,65.31 1624.18,70.09 1627.25,74.09 1636.13,74.09 1637.6,75.99 1636.91,79.21 1634.67,81.07 1621.84,81.07 1621.21,84.18 1635.94,84.18 1640.71,80.14 1641.83,74.77 1638.77,70.72 1629.89,70.72 1628.43,68.82 "
     id="polygon4207"
     style="fill:#141212"
     transform="translate(-618.27841)" />
  <path
     class="cls-3"
     d="m 787.72159,18.91 a 8.47,8.47 0 1 1 -8.47,-8.47 v 0 a 8.47,8.47 0 0 1 8.46,8.47 z"
     id="path4209"
     inkscape:connector-curvature="0"
     style="fill:none;stroke:#141212;stroke-width:0.52999997px;stroke-miterlimit:10" />
  <path
     class="cls-3"
     d="m 859.66159,18.84 a 8.47,8.47 0 1 1 -8.47,-8.47 8.47,8.47 0 0 1 8.47,8.47 z"
     id="path4211"
     inkscape:connector-curvature="0"
     style="fill:none;stroke:#141212;stroke-width:0.52999997px;stroke-miterlimit:10" />
  <path
     class="cls-3"
     d="m 847.72159,18.84 a 8.47,8.47 0 1 1 -8.47,-8.47 8.47,8.47 0 0 1 8.47,8.47 z"
     id="path4213"
     inkscape:connector-curvature="0"
     style="fill:none;stroke:#141212;stroke-width:0.52999997px;stroke-miterlimit:10" />
  <path
     class="cls-3"
     d="m 823.66159,54.93 a 8.47,8.47 0 1 1 -8.47,-8.47 8.47,8.47 0 0 1 8.47,8.47 z"
     id="path4215"
     inkscape:connector-curvature="0"
     style="fill:none;stroke:#141212;stroke-width:0.52999997px;stroke-miterlimit:10" />
  <path
     class="cls-3"
     d="m 859.66159,30.82 a 8.47,8.47 0 1 1 -8.47,-8.47 8.47,8.47 0 0 1 8.47,8.47 z"
     id="path4217"
     inkscape:connector-curvature="0"
     style="fill:none;stroke:#141212;stroke-width:0.52999997px;stroke-miterlimit:10" />
  <path
     class="cls-3"
     d="m 770.72159,90.84 a 8.47,8.47 0 1 1 8.46,8.49 8.47,8.47 0 0 1 -8.46,-8.49 z"
     id="path4219"
     inkscape:connector-curvature="0"
     style="fill:none;stroke:#141212;stroke-width:0.52999997px;stroke-miterlimit:10" />
  <path
     class="cls-3"
     d="m 782.72159,90.84 a 8.47,8.47 0 1 1 8.44,8.49 8.47,8.47 0 0 1 -8.44,-8.49 z"
     id="path4221"
     inkscape:connector-curvature="0"
     style="fill:none;stroke:#141212;stroke-width:0.52999997px;stroke-miterlimit:10" />
  <path
     class="cls-3"
     d="m 842.72159,91 a 8.47,8.47 0 1 1 8.46,8.46 8.47,8.47 0 0 1 -8.46,-8.46 z"
     id="path4223"
     inkscape:connector-curvature="0"
     style="fill:none;stroke:#141212;stroke-width:0.52999997px;stroke-miterlimit:10" />
  <path
     class="cls-3"
     d="m 770.72159,78.86 a 8.47,8.47 0 1 1 8.46,8.47 8.47,8.47 0 0 1 -8.46,-8.47 z"
     id="path4225"
     inkscape:connector-curvature="0"
     style="fill:none;stroke:#141212;stroke-width:0.52999997px;stroke-miterlimit:10" />
  <path
     class="cls-4"
     d="m 859.66159,18.85 v 72 a 8.49,8.49 0 0 1 -8.47,8.51 h -72 a 8.48,8.48 0 0 1 -8.47,-8.48 v 0 -72 a 8.48,8.48 0 0 1 8.47,-8.48 h 72 a 8.49,8.49 0 0 1 8.49,8.48 v 0"
     id="path4227"
     inkscape:connector-curvature="0"
     style="fill:#ffffff" />
  <rect
     class="cls-5"
     x="770.73163"
     y="10.37"
     width="88.93"
     height="88.93"
     rx="8.4799995"
     id="rect4229"
     style="fill:none;stroke:#141212;stroke-width:3.68000007px;stroke-miterlimit:10" />
  <path
     class="cls-6"
     d="m 845.18159,24.85 -60,60 a 8.47,8.47 0 0 1 -14.47,-6 v -60 a 8.48,8.48 0 0 1 8.47,-8.48 h 60 a 8.48,8.48 0 0 1 6,14.48"
     id="path4231"
     inkscape:connector-curvature="0"
     style="fill:#64bb90" />
  <path
     class="cls-5"
     d="m 845.18159,24.85 -60,60 a 8.47,8.47 0 0 1 -14.47,-6 v -60 a 8.48,8.48 0 0 1 8.47,-8.48 h 60 a 8.48,8.48 0 0 1 6,14.48 z"
     id="path4233"
     inkscape:connector-curvature="0"
     style="fill:none;stroke:#141212;stroke-width:3.68000007px;stroke-miterlimit:10" />
  <path
     class="cls-7"
     d="m 859.66159,30.85 v 60 a 8.49,8.49 0 0 1 -8.47,8.51 h -60 a 8.48,8.48 0 0 1 -6,-14.48 l 60,-60 a 8.48,8.48 0 0 1 14.48,6"
     id="path4235"
     inkscape:connector-curvature="0"
     style="fill:#048e66" />
  <path
     class="cls-5"
     d="m 859.66159,30.85 v 60 a 8.49,8.49 0 0 1 -8.47,8.51 h -60 a 8.48,8.48 0 0 1 -6,-14.48 l 60,-60 a 8.48,8.48 0 0 1 14.47,5.97 z"
     id="path4237"
     inkscape:connector-curvature="0"
     style="fill:none;stroke:#141212;stroke-width:3.68000007px;stroke-miterlimit:10" />
  <path
     class="cls-4"
     d="m 815.19159,80.07 a 25.14,25.14 0 1 1 25.15,-25.14 v 0 a 25.17,25.17 0 0 1 -25.15,25.14"
     id="path4239"
     inkscape:connector-curvature="0"
     style="fill:#ffffff" />
  <path
     class="cls-8"
     d="m 815.19159,32.76 a 22.17,22.17 0 1 1 -22.17,22.17 v 0 a 22.18,22.18 0 0 1 22.17,-22.17 m 0,-6 a 28.13,28.13 0 1 0 28.12,28.13 v 0 a 28.16,28.16 0 0 0 -28.12,-28.14"
     id="path4241"
     inkscape:connector-curvature="0"
     style="fill:#231f20" />
  <path
     class="cls-1"
     d="m 38.821589,72.21 h 10.21 l -5,-14.22 h -0.21 z m -5.64,3.69 10.42,-27.14 h 0.65 l 10.47,27.14 z m -5.46,3.69 h 32.35 l -15.6,-40.82 h -1.09 z m -5.43,3.69 20.84,-53.62 h 1.59 l 20.85,53.62 z m -5.57,3.72 h 54.49 l -25.84,-64.7 h -2.82 z m -6,3.7 29.62,-71.9 h 7.17 l 29.63,71.87 z M 4.8615892,94.39 H 83.021586 L 49.891589,14.89 h -11.94 z M 0.52158915,98.08 V 94.36 L 35.721589,11.2 h 16.5 l 35.179997,83.16 v 3.69 z"
     id="path4243"
     inkscape:connector-curvature="0"
     style="fill:#1d1d1b" />
  <path
     class="cls-1"
     d="m 291.44159,90.23 a 5,5 0 1 1 10,0 c 0,3 -1.86,5.16 -5,5.16 -3.14,0 -5,-2.16 -5,-5.16 m -3.29,0 c 0,5 3.49,8.18 8.31,8.18 4.82,0 8.32,-3.19 8.32,-8.18 0,-4.99 -3.5,-8.18 -8.32,-8.18 -4.82,0 -8.31,3.3 -8.31,8.18 m -13.63,-4.69 h 4.65 v 12.51 h 3.33 V 85.54 h 5.32 v -3.12 h -5.32 v -8 l -3.33,2.66 v 5.32 h -4.65 z m -2.16,-3.12 h -3.06 v 10.64 l -7.15,-10.64 h -3.93 v 15.63 h 3.06 V 86.81 l 7.58,11.24 h 3.5 z m -23.64,2.58 a 3.62,3.62 0 0 1 3.86,2.79 l -8.28,1.46 a 4.14,4.14 0 0 1 4.42,-4.25 m 7.32,5.15 c 0,-4.95 -3.33,-8 -7.32,-8 -4.49,0 -7.64,3.32 -7.64,8.14 0,4.82 3.32,8.15 7.64,8.15 a 7.74,7.74 0 0 0 7,-3.66 l -2.33,-1.83 a 4.85,4.85 0 0 1 -4.49,2.5 4.25,4.25 0 0 1 -4.36,-3.26 z m -21.95,-3 2.9,10.94 h 3.25 l -4.32,-15.63 h -3.66 l -3,11.2 -3,-11.2 h -3.66 l -4.32,15.63 h 3.26 l 2.89,-10.94 3,10.94 h 3.66 z m -21.95,-10.35 a 2.33,2.33 0 1 0 2.33,-2.3 2.26,2.26 0 0 0 -2.33,2.3 m 0.66,21.25 h 3.33 V 82.42 h -3.33 z m -13.9,-7.82 a 4.77,4.77 0 0 1 4.93,-5.12 4.23,4.23 0 0 1 4,2.7 l 2.59,-1.87 a 7.47,7.47 0 0 0 -6.7,-3.85 8.16,8.16 0 1 0 6.95,12.47 l -2.46,-2 a 4.52,4.52 0 0 1 -4.35,2.8 c -3.16,0 -4.93,-2.33 -4.93,-5.16 m -12.43,-5.2 a 3.62,3.62 0 0 1 3.86,2.79 l -8.28,1.46 a 4.13,4.13 0 0 1 4.42,-4.25 m 7.32,5.15 c 0,-4.95 -3.33,-8 -7.32,-8 -4.49,0 -7.65,3.32 -7.65,8.14 0,4.82 3.33,8.15 7.65,8.15 a 7.72,7.72 0 0 0 7,-3.66 l -2.32,-1.83 a 4.85,4.85 0 0 1 -4.49,2.5 4.25,4.25 0 0 1 -4.36,-3.26 z m -31.26,8 h 3.49 l 7.48,-11.24 v 11.14 h 3.19 V 82.42 h -4 l -6.9,10.67 V 73.77 h -3.26 z m -2.84,-15.73 h -3 v 10.64 l -7.15,-10.64 h -3.93 v 15.63 h 3.06 V 86.81 l 7.58,11.24 h 3.44 z m -29.62,7.81 a 5,5 0 1 1 10,0 c 0,3 -1.86,5.16 -5,5.16 -3.14,0 -5,-2.16 -5,-5.16 m -3.29,0 c 0,5 3.49,8.18 8.31,8.18 4.82,0 8.31,-3.19 8.31,-8.18 0,-4.99 -3.49,-8.18 -8.31,-8.18 -4.82,0 -8.31,3.3 -8.31,8.18 m -24.09,-4.32 c 0,7.48 5.32,12.7 12.63,12.7 a 12.34,12.34 0 0 0 10,-4.72 l -2.33,-2.49 a 9,9 0 0 1 -7.48,3.69 c -5.58,0 -9.28,-3.86 -9.28,-9.18 a 8.77,8.77 0 0 1 9.11,-9.18 8.66,8.66 0 0 1 7.32,3.69 l 2.33,-2.49 a 12.22,12.22 0 0 0 -9.81,-4.69 c -7.15,0 -12.47,5.19 -12.47,12.67"
     id="path4245"
     inkscape:connector-curvature="0"
     style="fill:#1d1d1b" />
  <path
     class="cls-1"
     d="m 262.35159,51.15 h -3.06 v 10.64 l -7.15,-10.64 h -3.93 v 15.63 h 3.06 V 55.54 l 7.59,11.24 h 3.49 z m -20,7.81 c 0,3.16 -1.83,5.16 -4.83,5.16 -3.19,0 -4.92,-2.33 -4.92,-5.16 0,-2.83 1.77,-5.15 4.92,-5.15 3.15,0 4.83,2 4.83,5.15 m 3,-7.81 h -3.29 v 1.33 c 0,0.17 -0.2,0.17 -0.2,0.17 a 6.64,6.64 0 0 0 -4.82,-1.83 c -4.43,0 -7.65,3.32 -7.65,8.14 0,4.82 3.22,8.15 7.65,8.15 a 6.54,6.54 0 0 0 4.82,-1.86 0.2,0.2 0 0 1 0.2,0.2 v 1.33 h 3.29 z m -22.45,-5.62 a 2.33,2.33 0 1 0 2.33,-2.29 2.27,2.27 0 0 0 -2.33,2.29 m 0.67,21.25 h 3.32 V 51.15 h -3.32 z m -14.33,-9.31 v -15 h -3.29 v 24.31 h 3.29 V 60 l 7.48,6.78 h 4.43 l -8.78,-8.18 8.61,-7.45 h -4.46 z m -6.45,-6.32 h -3.06 v 10.64 l -7.11,-10.64 h -3.9 v 15.63 h 3 V 55.54 l 7.59,11.24 h 3.49 z m -24,2.53 a 3.62,3.62 0 0 1 3.93,2.79 l -8.28,1.46 a 4.14,4.14 0 0 1 4.42,-4.25 m 7.32,5.15 c 0,-4.95 -3.33,-8 -7.32,-8 -4.49,0 -7.64,3.32 -7.64,8.14 0,4.82 3.32,8.15 7.64,8.15 a 7.74,7.74 0 0 0 7,-3.66 l -2.33,-1.83 a 4.84,4.84 0 0 1 -4.49,2.5 4.25,4.25 0 0 1 -4.36,-3.26 z m -30.1,0.17 c 0,-3.15 1.83,-5.15 4.82,-5.15 3.16,0 4.92,2.33 4.92,5.15 0,2.82 -1.73,5.16 -4.92,5.16 -3,0 -4.82,-2 -4.82,-5.16 m -3,7.82 h 3.3 v -1.37 a 0.2,0.2 0 0 1 0.2,-0.2 6.51,6.51 0 0 0 4.82,1.86 c 4.32,0 7.64,-3.32 7.64,-8.15 0,-4.83 -3.32,-8.14 -7.64,-8.14 a 6.61,6.61 0 0 0 -4.82,1.83 c 0,0 -0.2,0 -0.2,-0.17 v -10 h -3.3 z m -3.15,-24.27 h -3.33 v 24.23 h 3.33 z m -6.49,8.64 h -3.26 v 12.43 h -7.11 V 51.15 h -3.26 v 15.63 h 13.63 z m -18.25,-4.52 a 11.69,11.69 0 0 0 -9.85,-4.67 c -7.31,0 -12.62,5.16 -12.62,12.64 a 12.26,12.26 0 0 0 12.63,12.67 11.67,11.67 0 0 0 12,-11 l -0.7,-3.25 h -15.63 v 3.42 h 12.9 c -0.33,4.52 -3.59,7.52 -8.74,7.52 -5.49,0 -9,-3.75 -9,-9.27 0,-5.52 3.52,-9.38 9,-9.38 a 9,9 0 0 1 7.65,3.65 z"
     id="path4247"
     inkscape:connector-curvature="0"
     style="fill:#1d1d1b" />
  <path
     class="cls-1"
     d="m 252.37159,19.88 h -11.65 V 23 l 8,9.38 h -8 v 3.12 h 12 v -3.11 l -8,-9.39 h 7.65 z m -17.45,7.82 c 0,3.16 -1.83,5.15 -4.83,5.15 -3.19,0 -4.92,-2.33 -4.92,-5.15 0,-2.82 1.76,-5.16 4.92,-5.16 3,0 4.83,2 4.83,5.16 m 3,-7.82 h -3.3 v 1.33 c 0,0.17 -0.2,0.17 -0.2,0.17 a 6.69,6.69 0 0 0 -4.83,-1.83 c -4.42,0 -7.64,3.33 -7.64,8.15 0,4.82 3.22,8.14 7.64,8.14 a 6.55,6.55 0 0 0 4.83,-1.84 0.2,0.2 0 0 1 0.2,0.2 v 1.33 h 3.29 z m -22.11,-5.62 a 2.33,2.33 0 1 0 2.31,-2.26 2.26,2.26 0 0 0 -2.32,2.29 m 0.66,21.25 h 3.33 V 19.88 h -3.33 z m -8.31,-10.94 2.89,10.94 h 3.26 l -4.32,-15.63 h -3.66 l -3,11.21 -3,-11.21 h -3.6 l -4.33,15.63 h 3.26 l 2.9,-10.94 3,10.94 h 3.66 z m -24,-2.16 a 3.62,3.62 0 0 1 3.86,2.79 l -8.29,1.44 a 4.14,4.14 0 0 1 4.42,-4.26 m 7.32,5.15 c 0,-4.95 -3.33,-8 -7.32,-8 -4.48,0 -7.64,3.33 -7.64,8.15 0,4.82 3.32,8.14 7.64,8.14 a 7.75,7.75 0 0 0 7,-3.65 l -2.33,-1.83 a 4.85,4.85 0 0 1 -4.49,2.49 4.24,4.24 0 0 1 -4.35,-3.26 z m -20.12,0.14 c 0,3.16 -1.83,5.15 -4.82,5.15 -3.19,0 -4.92,-2.33 -4.92,-5.15 0,-2.82 1.76,-5.16 4.92,-5.16 3,0 4.82,2 4.82,5.16 m 3,-16.46 h -3.3 v 10 c 0,0.17 -0.2,0.17 -0.2,0.17 a 6.65,6.65 0 0 0 -4.82,-1.83 c -4.32,0 -7.65,3.33 -7.65,8.15 0,4.82 3.33,8.14 7.65,8.14 a 6.51,6.51 0 0 0 4.85,-1.87 0.2,0.2 0 0 1 0.2,0.2 v 1.33 h 3.3 z m -21.09,16.46 c 0,3.16 -1.83,5.15 -4.82,5.15 -3.19,0 -4.92,-2.33 -4.92,-5.15 0,-2.82 1.76,-5.16 4.92,-5.16 3,0 4.82,2 4.82,5.16 m 3,-7.82 h -3.29 v 1.33 c 0,0.17 -0.2,0.17 -0.2,0.17 a 6.65,6.65 0 0 0 -4.82,-1.83 c -4.42,0 -7.65,3.33 -7.65,8.15 0,4.82 3.23,8.14 7.65,8.14 a 6.51,6.51 0 0 0 4.78,-1.84 0.2,0.2 0 0 1 0.2,0.2 v 1.33 h 3.29 z m -29.53,7.82 c 0,-2.83 1.76,-5.12 4.92,-5.12 a 4.22,4.22 0 0 1 4,2.69 l 2.59,-1.86 a 7.46,7.46 0 0 0 -6.75,-3.86 7.83,7.83 0 0 0 -8,8.15 8.07,8.07 0 0 0 15,4.32 l -2.46,-2 a 4.52,4.52 0 0 1 -4.35,2.79 c -3.16,0 -4.92,-2.33 -4.92,-5.15 m -4.39,7.81 -8.15,-24.27 h -3.69 l -8.14,24.27 z m -15.33,-3.46 5.35,-16 5.32,16 z"
     id="path4249"
     inkscape:connector-curvature="0"
     style="fill:#1d1d1b" />
  <path
     class="cls-9"
     d="m 398.77159,56.62 a 14.5,14.5 0 1 0 -14.49,-14.5 14.5,14.5 0 0 0 14.49,14.5"
     id="path4251"
     inkscape:connector-curvature="0"
     style="fill:#e40134" />
  <path
     class="cls-10"
     d="m 398.77159,56.62 a 14.5,14.5 0 1 0 -14.49,-14.5 14.5,14.5 0 0 0 14.49,14.5"
     id="path4253"
     inkscape:connector-curvature="0"
     style="fill:#e30234" />
  <path
     class="cls-1"
     d="m 442.27159,27.62 a 14.47,14.47 0 0 1 10.25,4.25 l 10.25,-10.25 a 29,29 0 0 0 -49.5,20.5 v 14.5 l 6,6 a 29.22,29.22 0 0 1 -6,4.58 v 30.5 h 14.5 V 83.2 a 14.5,14.5 0 0 1 14.5,-14.5 h 6.28 V 56.62 h -6.28 a 14.5,14.5 0 0 1 0,-29"
     id="path4255"
     inkscape:connector-curvature="0"
     style="fill:#1d1d1b" />
  <path
     class="cls-11"
     d="m 409.03159,52.37 a 14.5,14.5 0 1 1 0,-20.5 l 10.25,-10.25 a 28.9,28.9 0 1 0 0,41 l -6,-6 z"
     id="path4257"
     inkscape:connector-curvature="0"
     style="fill:#009ee2" />
  <path
     class="cls-1"
     d="m 517.72159,49 h 4.26 v 8.09 h 0.09 a 5.47,5.47 0 0 1 4.54,-2.59 c 4.53,0 5.68,2.55 5.68,6.4 v 9.55 h -4.27 v -8.77 c 0,-2.55 -0.75,-3.82 -2.73,-3.82 -2.31,0 -3.31,1.29 -3.31,4.45 v 8.14 h -4.26 z"
     id="path4259"
     inkscape:connector-curvature="0"
     style="fill:#1d1d1b" />
  <path
     class="cls-1"
     d="m 535.15159,59.7 c 0.24,-4 3.81,-5.2 7.3,-5.2 3.09,0 6.82,0.69 6.82,4.41 V 67 a 8,8 0 0 0 0.54,3.45 h -4.33 a 6.34,6.34 0 0 1 -0.3,-1.5 7.12,7.12 0 0 1 -5.23,1.92 c -2.94,0 -5.28,-1.47 -5.28,-4.66 0,-3.51 2.64,-4.35 5.28,-4.71 2.64,-0.36 5,-0.3 5,-2 0,-1.7 -1.26,-2.11 -2.76,-2.11 -1.5,0 -2.67,0.66 -2.82,2.35 z m 9.85,3.15 c -0.72,0.63 -2.22,0.66 -3.54,0.9 -1.32,0.24 -2.53,0.72 -2.53,2.28 0,1.56 1.23,2 2.62,2 3.33,0 3.45,-2.65 3.45,-3.58 z"
     id="path4261"
     inkscape:connector-curvature="0"
     style="fill:#1d1d1b" />
  <path
     class="cls-1"
     d="m 552.54159,54.92 h 4 V 57 h 0.06 a 5.63,5.63 0 0 1 4.75,-2.52 4.6,4.6 0 0 1 4.54,2.59 5.62,5.62 0 0 1 4.68,-2.59 c 3.3,0 5.68,1.53 5.68,5.56 v 10.41 h -4.27 v -8.8 c 0,-2.07 -0.18,-3.79 -2.61,-3.79 -2.43,0 -2.85,2 -2.85,3.94 v 8.65 h -4.27 v -8.71 c 0,-1.8 0.12,-3.88 -2.58,-3.88 -0.84,0 -2.89,0.54 -2.89,3.58 v 9 h -4.26 z"
     id="path4263"
     inkscape:connector-curvature="0"
     style="fill:#1d1d1b" />
  <path
     class="cls-1"
     d="m 579.48159,54.92 h 4 v 2 h 0.06 a 5.19,5.19 0 0 1 4.63,-2.4 c 4.86,0 7.06,3.93 7.06,8.35 0,4.15 -2.29,8 -6.82,8 a 5.54,5.54 0 0 1 -4.66,-2.34 v 0 7.39 h -4.27 z m 11.53,7.81 c 0,-2.46 -1,-5 -3.72,-5 -2.72,0 -3.7,2.49 -3.7,5 0,2.51 1,4.93 3.73,4.93 2.73,0 3.69,-2.41 3.69,-4.93"
     id="path4265"
     inkscape:connector-curvature="0"
     style="fill:#1d1d1b" />
  <path
     class="cls-1"
     d="m 597.62159,59.7 c 0.24,-4 3.82,-5.2 7.3,-5.2 3.09,0 6.82,0.69 6.82,4.41 V 67 a 8,8 0 0 0 0.54,3.45 h -4.33 a 6.34,6.34 0 0 1 -0.3,-1.5 7.11,7.11 0 0 1 -5.22,1.92 c -3,0 -5.29,-1.47 -5.29,-4.66 0,-3.51 2.64,-4.35 5.29,-4.71 2.65,-0.36 5,-0.3 5,-2 0,-1.7 -1.26,-2.11 -2.76,-2.11 -1.5,0 -2.67,0.66 -2.82,2.35 z m 9.85,3.15 c -0.72,0.63 -2.22,0.66 -3.54,0.9 -1.32,0.24 -2.52,0.72 -2.52,2.28 0,1.56 1.23,2 2.61,2 3.33,0 3.45,-2.65 3.45,-3.58 z"
     id="path4267"
     inkscape:connector-curvature="0"
     style="fill:#1d1d1b" />
  <rect
     class="cls-1"
     x="615.01166"
     y="49"
     width="4.27"
     height="21.440001"
     id="rect4269"
     style="fill:#1d1d1b" />
  <path
     class="cls-1"
     d="m 626.87159,52.52 h -4.26 V 49 h 4.26 z m -4.26,2.4 h 4.26 v 15.53 h -4.26 z"
     id="path4271"
     inkscape:connector-curvature="0"
     style="fill:#1d1d1b" />
  <path
     class="cls-1"
     d="m 630.21159,54.92 h 4 V 57 h 0.06 a 5.61,5.61 0 0 1 4.75,-2.52 4.58,4.58 0 0 1 4.53,2.59 5.62,5.62 0 0 1 4.69,-2.59 c 3.3,0 5.67,1.53 5.67,5.56 v 10.41 h -4.19 v -8.8 c 0,-2.07 -0.18,-3.79 -2.61,-3.79 -2.43,0 -2.86,2 -2.86,3.94 v 8.65 h -4.26 v -8.71 c 0,-1.8 0.12,-3.88 -2.58,-3.88 -0.85,0 -2.89,0.54 -2.89,3.58 v 9 h -4.26 z"
     id="path4273"
     inkscape:connector-curvature="0"
     style="fill:#1d1d1b" />
  <path
     class="cls-1"
     d="m 656.97159,59.7 c 0.24,-4 3.81,-5.2 7.29,-5.2 3.1,0 6.82,0.69 6.82,4.41 V 67 a 8,8 0 0 0 0.54,3.45 h -4.32 a 6.34,6.34 0 0 1 -0.3,-1.5 7.12,7.12 0 0 1 -5.23,1.92 c -2.94,0 -5.28,-1.47 -5.28,-4.66 0,-3.51 2.64,-4.35 5.28,-4.71 2.64,-0.36 5,-0.3 5,-2 0,-1.7 -1.26,-2.11 -2.77,-2.11 -1.51,0 -2.67,0.66 -2.82,2.35 z m 9.85,3.15 c -0.72,0.63 -2.22,0.66 -3.54,0.9 -1.32,0.24 -2.56,0.72 -2.56,2.25 0,1.53 1.23,2 2.62,2 3.33,0 3.45,-2.65 3.45,-3.58 z"
     id="path4275"
     inkscape:connector-curvature="0"
     style="fill:#1d1d1b" />
  <path
     class="cls-1"
     d="m 688.80159,70.45 h -4 v -2.16 h -0.09 a 5.53,5.53 0 0 1 -4.74,2.58 c -4.54,0 -5.68,-2.55 -5.68,-6.4 v -9.55 h 4.26 v 8.77 c 0,2.55 0.75,3.81 2.74,3.81 2.31,0 3.3,-1.29 3.3,-4.44 v -8.14 h 4.26 z"
     id="path4277"
     inkscape:connector-curvature="0"
     style="fill:#1d1d1b" />
  <path
     class="cls-1"
     d="m 703.02159,68.47 h -0.06 a 5.15,5.15 0 0 1 -4.71,2.4 c -4.69,0 -7,-4 -7,-8.32 0,-4.32 2.31,-8 6.87,-8 a 5.34,5.34 0 0 1 4.6,2.31 h 0.06 V 49 h 4.26 v 21.45 h -4 z m -3.73,-10.75 c -2.79,0 -3.75,2.4 -3.75,5 0,2.6 1.11,5 3.75,5 2.83,0 3.67,-2.47 3.67,-5 0,-2.53 -0.9,-4.92 -3.67,-4.92"
     id="path4279"
     inkscape:connector-curvature="0"
     style="fill:#1d1d1b" />
  <path
     class="cls-1"
     d="m 510.72159,62.17 c -0.53,2.79 -2,5 -5.32,5 -4.29,0 -5.5,-3.65 -5.5,-7.36 0,-3.89 1.21,-7.55 5.5,-7.55 2.91,0 4.33,1.64 5,4 h 4.32 c -0.57,-4.91 -4.3,-7.66 -9,-7.66 -6.59,0 -10.26,4.92 -10.26,11.24 0,6.13 3.67,11.05 10.26,11.05 5.21,0 8.68,-3.4 9.16,-8.7 z"
     id="path4281"
     inkscape:connector-curvature="0"
     style="fill:#1d1d1b" />
  <path
     class="cls-1"
     d="m 565.10159,23.78 c 0.24,-4 3.81,-5.2 7.29,-5.2 3.1,0 6.82,0.69 6.82,4.42 v 8.08 a 8,8 0 0 0 0.54,3.45 h -4.32 a 6.34,6.34 0 0 1 -0.3,-1.5 7.14,7.14 0 0 1 -5.23,1.92 c -2.94,0 -5.28,-1.47 -5.28,-4.65 0,-3.52 2.64,-4.36 5.28,-4.72 2.64,-0.36 5,-0.3 5,-2 0,-1.7 -1.26,-2.1 -2.77,-2.1 -1.51,0 -2.67,0.66 -2.82,2.34 z m 9.85,3.15 c -0.72,0.63 -2.23,0.66 -3.55,0.9 -1.32,0.24 -2.52,0.72 -2.52,2.29 0,1.57 1.23,2 2.61,2 3.34,0 3.46,-2.64 3.46,-3.58 z"
     id="path4283"
     inkscape:connector-curvature="0"
     style="fill:#1d1d1b" />
  <path
     class="cls-1"
     d="m 599.16159,23.78 c 0.24,-4 3.81,-5.2 7.3,-5.2 3.09,0 6.81,0.69 6.81,4.42 v 8.08 a 8,8 0 0 0 0.54,3.45 h -4.32 a 6.34,6.34 0 0 1 -0.3,-1.5 7.14,7.14 0 0 1 -5.23,1.92 c -2.94,0 -5.28,-1.47 -5.28,-4.65 0,-3.52 2.64,-4.36 5.28,-4.72 2.64,-0.36 5,-0.3 5,-2 0,-1.7 -1.26,-2.1 -2.76,-2.1 -1.5,0 -2.68,0.66 -2.83,2.34 z m 9.85,3.15 c -0.72,0.63 -2.22,0.66 -3.55,0.9 -1.33,0.24 -2.52,0.72 -2.52,2.29 0,1.57 1.23,2 2.61,2 3.34,0 3.46,-2.64 3.46,-3.58 z"
     id="path4285"
     inkscape:connector-curvature="0"
     style="fill:#1d1d1b" />
  <path
     class="cls-1"
     d="m 526.33159,34.53 h -4.06 v -2.16 h -0.09 a 5.53,5.53 0 0 1 -4.74,2.58 c -4.54,0 -5.68,-2.55 -5.68,-6.39 V 19 h 4.27 v 8.77 c 0,2.56 0.75,3.82 2.73,3.82 2.31,0 3.3,-1.29 3.3,-4.45 V 19 h 4.27 z"
     id="path4287"
     inkscape:connector-curvature="0"
     style="fill:#1d1d1b" />
  <path
     class="cls-1"
     d="m 558.16159,32.55 h -0.06 a 5.15,5.15 0 0 1 -4.71,2.4 c -4.69,0 -7,-4 -7,-8.32 0,-4.32 2.31,-8 6.88,-8 a 5.34,5.34 0 0 1 4.59,2.31 h 0.06 v -7.8 h 4.27 v 21.39 h -4.06 z m -3.72,-10.75 c -2.79,0 -3.76,2.4 -3.76,4.95 0,2.55 1.12,5 3.76,5 2.82,0 3.66,-2.46 3.66,-5 0,-2.54 -0.9,-4.92 -3.66,-4.92"
     id="path4289"
     inkscape:connector-curvature="0"
     style="fill:#1d1d1b" />
  <polygon
     class="cls-1"
     points="1118.11,16.75 1128.07,16.75 1128.07,13.09 1113.84,13.09 1113.84,34.53 1118.11,34.53 1118.11,25.67 1126.69,25.67 1126.69,22.01 1118.11,22.01 "
     id="polygon4291"
     style="fill:#1d1d1b"
     transform="translate(-618.27841)" />
  <path
     class="cls-1"
     d="m 529.42159,19 h 4.06 v 2.17 h 0.09 a 5.52,5.52 0 0 1 4.74,-2.59 c 4.54,0 5.68,2.56 5.68,6.4 v 9.55 h -4.27 v -8.77 c 0,-2.55 -0.75,-3.81 -2.73,-3.81 -2.31,0 -3.3,1.29 -3.3,4.44 v 8.14 h -4.27 z"
     id="path4293"
     inkscape:connector-curvature="0"
     style="fill:#1d1d1b" />
  <path
     class="cls-1"
     d="m 592.78159,24.47 a 2.9,2.9 0 0 0 -3.15,-2.67 c -2.73,0 -3.64,2.76 -3.64,5 0,2.24 0.88,4.9 3.55,4.9 a 3.28,3.28 0 0 0 3.39,-3.16 h 4.12 c -0.51,4 -3.22,6.22 -7.12,6.34 l -0.84,1.2 h 0.06 a 2.48,2.48 0 0 1 1,-0.15 c 1.35,0 2.76,0.63 2.76,2.11 0,2.34 -1.74,3 -3.51,3 a 9.23,9.23 0 0 1 -3.73,-0.66 l 0.64,-1.45 a 6.19,6.19 0 0 0 2.52,0.55 c 0.72,0 1.2,-0.3 1.2,-1 0,-0.7 -0.54,-1 -1.2,-1 a 3.72,3.72 0 0 0 -1.2,0.2 l -0.63,-0.72 1.5,-2.16 c -4.09,-0.42 -6.79,-3.57 -6.79,-7.87 0,-4.83 2.88,-8.41 7.93,-8.41 3.66,0 7,1.92 7.3,5.89 z"
     id="path4295"
     inkscape:connector-curvature="0"
     style="fill:#1d1d1b" />
  <path
     class="cls-1"
     d="m 611.90159,13.09 a 7.79,7.79 0 0 1 -0.93,2.22 2.73,2.73 0 0 1 -2.43,1.2 8,8 0 0 1 -2.46,-0.51 6.31,6.31 0 0 0 -2.1,-0.51 c -0.82,0 -1.09,0.51 -1.27,1.26 h -1.83 c 0.39,-1.74 1.14,-3.66 3.79,-3.66 a 5.36,5.36 0 0 1 1.92,0.51 5.13,5.13 0 0 0 2,0.54 c 0.9,0 1.29,-0.48 1.26,-1.05 z"
     id="path4297"
     inkscape:connector-curvature="0"
     style="fill:#1d1d1b" />
  <path
     class="cls-1"
     d="m 624.01159,18.58 c 4.89,0 8,3.25 8,8.2 0,4.95 -3.16,8.17 -8,8.17 -4.84,0 -8,-3.24 -8,-8.17 0,-4.93 3.15,-8.2 8,-8.2 m 0,13.16 c 2.91,0 3.78,-2.49 3.78,-5 0,-2.51 -0.87,-5 -3.78,-5 -2.91,0 -3.76,2.49 -3.76,5 0,2.51 0.87,5 3.76,5"
     id="path4299"
     inkscape:connector-curvature="0"
     style="fill:#1d1d1b" />
</svg>
