<svg id="Layer_1" data-name="Layer 1" xmlns="http://www.w3.org/2000/svg" viewBox="0 0 680.44 411.63"><defs><style>.cls-1{fill:#3b1f5e;}.cls-2{fill:#67cfd2;}.cls-3{fill:#d71f81;}</style></defs><g id="Group_1" data-name="Group 1"><rect id="Rectangle_3" data-name="Rectangle 3" class="cls-1" x="554.44" y="263.3" width="25.2" height="24.68"/><rect id="Rectangle_4" data-name="Rectangle 4" class="cls-1" x="529.24" y="263.3" width="25.2" height="24.68"/><rect id="Rectangle_5" data-name="Rectangle 5" class="cls-1" x="504.03" y="337.33" width="25.2" height="24.68"/><rect id="Rectangle_6" data-name="Rectangle 6" class="cls-1" x="504.03" y="312.66" width="25.2" height="24.68"/><rect id="Rectangle_7" data-name="Rectangle 7" class="cls-1" x="504.03" y="287.98" width="25.2" height="24.68"/><rect id="Rectangle_8" data-name="Rectangle 8" class="cls-1" x="504.03" y="263.3" width="25.2" height="24.68"/><rect id="Rectangle_9" data-name="Rectangle 9" class="cls-1" x="504.03" y="238.63" width="25.2" height="24.68"/><rect id="Rectangle_10" data-name="Rectangle 10" class="cls-1" x="504.03" y="213.95" width="25.2" height="24.68"/><rect id="Rectangle_11" data-name="Rectangle 11" class="cls-1" x="478.83" y="337.33" width="25.2" height="24.68"/><rect id="Rectangle_12" data-name="Rectangle 12" class="cls-1" x="478.83" y="189.27" width="25.2" height="24.68"/><rect id="Rectangle_13" data-name="Rectangle 13" class="cls-1" x="453.63" y="362.01" width="25.2" height="24.94"/><rect id="Rectangle_14" data-name="Rectangle 14" class="cls-1" x="453.63" y="189.27" width="25.2" height="24.68"/><rect id="Rectangle_15" data-name="Rectangle 15" class="cls-1" x="428.43" y="362.01" width="25.2" height="24.94"/><rect id="Rectangle_16" data-name="Rectangle 16" class="cls-1" x="428.43" y="287.98" width="25.2" height="24.68"/><rect id="Rectangle_17" data-name="Rectangle 17" class="cls-1" x="428.43" y="263.3" width="25.2" height="24.68"/><rect id="Rectangle_18" data-name="Rectangle 18" class="cls-1" x="428.43" y="189.27" width="25.2" height="24.68"/><rect id="Rectangle_19" data-name="Rectangle 19" class="cls-1" x="403.23" y="362.01" width="25.2" height="24.94"/><rect id="Rectangle_20" data-name="Rectangle 20" class="cls-1" x="403.23" y="263.3" width="25.2" height="24.68"/><rect id="Rectangle_21" data-name="Rectangle 21" class="cls-1" x="403.23" y="189.27" width="25.2" height="24.68"/><rect id="Rectangle_22" data-name="Rectangle 22" class="cls-1" x="378.03" y="362.01" width="25.2" height="24.94"/><rect id="Rectangle_23" data-name="Rectangle 23" class="cls-1" x="378.03" y="189.27" width="25.2" height="24.68"/><rect id="Rectangle_24" data-name="Rectangle 24" class="cls-1" x="352.82" y="337.33" width="25.2" height="24.68"/><rect id="Rectangle_25" data-name="Rectangle 25" class="cls-1" x="352.82" y="213.95" width="25.2" height="24.68"/><rect id="Rectangle_26" data-name="Rectangle 26" class="cls-1" x="327.62" y="312.66" width="25.2" height="24.68"/><rect id="Rectangle_27" data-name="Rectangle 27" class="cls-1" x="327.62" y="287.98" width="25.2" height="24.68"/><rect id="Rectangle_28" data-name="Rectangle 28" class="cls-1" x="327.62" y="263.3" width="25.2" height="24.68"/><rect id="Rectangle_29" data-name="Rectangle 29" class="cls-1" x="327.62" y="238.63" width="25.2" height="24.68"/><rect id="Rectangle_30" data-name="Rectangle 30" class="cls-1" x="302.42" y="263.3" width="25.2" height="24.68"/><rect id="Rectangle_31" data-name="Rectangle 31" class="cls-1" x="302.42" y="238.63" width="25.2" height="24.68"/><rect id="Rectangle_32" data-name="Rectangle 32" class="cls-1" x="277.22" y="238.63" width="25.2" height="24.68"/><rect id="Rectangle_33" data-name="Rectangle 33" class="cls-1" x="252.02" y="312.66" width="25.2" height="24.68"/><rect id="Rectangle_34" data-name="Rectangle 34" class="cls-1" x="252.02" y="263.3" width="25.2" height="24.68"/><rect id="Rectangle_35" data-name="Rectangle 35" class="cls-1" x="252.02" y="238.63" width="25.2" height="24.68"/><rect id="Rectangle_36" data-name="Rectangle 36" class="cls-2" x="226.82" y="362.01" width="25.2" height="24.94"/><rect id="Rectangle_37" data-name="Rectangle 37" class="cls-1" x="226.82" y="312.66" width="25.2" height="24.68"/><rect id="Rectangle_38" data-name="Rectangle 38" class="cls-1" x="226.82" y="287.98" width="25.2" height="24.68"/><rect id="Rectangle_39" data-name="Rectangle 39" class="cls-1" x="226.82" y="263.3" width="25.2" height="24.68"/><rect id="Rectangle_40" data-name="Rectangle 40" class="cls-1" x="226.82" y="238.63" width="25.2" height="24.68"/><rect id="Rectangle_41" data-name="Rectangle 41" class="cls-3" x="226.82" y="189.27" width="25.2" height="24.68"/><rect id="Rectangle_42" data-name="Rectangle 42" class="cls-3" x="100.81" y="164.34" width="25.2" height="24.68"/><rect id="Rectangle_43" data-name="Rectangle 43" class="cls-1" x="201.61" y="337.33" width="25.2" height="24.68"/><rect id="Rectangle_44" data-name="Rectangle 44" class="cls-1" x="201.61" y="213.95" width="25.2" height="24.68"/><rect id="Rectangle_45" data-name="Rectangle 45" class="cls-3" x="176.41" y="386.95" width="25.2" height="24.68"/><rect id="Rectangle_46" data-name="Rectangle 46" class="cls-1" x="176.41" y="362.01" width="25.2" height="24.94"/><rect id="Rectangle_47" data-name="Rectangle 47" class="cls-2" x="176.41" y="337.33" width="25.2" height="24.68"/><rect id="Rectangle_48" data-name="Rectangle 48" class="cls-2" x="176.41" y="312.66" width="25.2" height="24.68"/><rect id="Rectangle_49" data-name="Rectangle 49" class="cls-2" x="176.41" y="263.3" width="25.2" height="24.68"/><rect id="Rectangle_50" data-name="Rectangle 50" class="cls-2" x="176.41" y="238.63" width="25.2" height="24.68"/><rect id="Rectangle_51" data-name="Rectangle 51" class="cls-1" x="176.41" y="213.95" width="25.2" height="24.68"/><rect id="Rectangle_52" data-name="Rectangle 52" class="cls-1" x="176.41" y="189.27" width="25.2" height="24.68"/><rect id="Rectangle_53" data-name="Rectangle 53" class="cls-1" x="176.41" y="114.98" width="25.2" height="24.68"/><rect id="Rectangle_54" data-name="Rectangle 54" class="cls-1" x="151.21" y="362.01" width="25.2" height="24.94"/><rect id="Rectangle_55" data-name="Rectangle 55" class="cls-2" x="151.21" y="312.66" width="25.2" height="24.68"/><rect id="Rectangle_56" data-name="Rectangle 56" class="cls-2" x="151.21" y="287.98" width="25.2" height="24.68"/><rect id="Rectangle_57" data-name="Rectangle 57" class="cls-1" x="151.21" y="189.27" width="25.2" height="24.68"/><rect id="Rectangle_58" data-name="Rectangle 58" class="cls-1" x="151.21" y="139.66" width="25.2" height="24.68"/><rect id="Rectangle_59" data-name="Rectangle 59" class="cls-1" x="151.21" y="90.31" width="25.2" height="24.68"/><rect id="Rectangle_60" data-name="Rectangle 60" class="cls-1" x="126.01" y="362.01" width="25.2" height="24.94"/><rect id="Rectangle_61" data-name="Rectangle 61" class="cls-2" x="126.01" y="263.3" width="25.2" height="24.68"/><rect id="Rectangle_62" data-name="Rectangle 62" class="cls-1" x="126.01" y="189.27" width="25.2" height="24.68"/><rect id="Rectangle_63" data-name="Rectangle 63" class="cls-1" x="126.01" y="114.98" width="25.2" height="24.68"/><rect id="Rectangle_64" data-name="Rectangle 64" class="cls-2" x="126.01" y="90.31" width="25.2" height="24.68"/><rect id="Rectangle_65" data-name="Rectangle 65" class="cls-3" x="100.81" y="386.95" width="25.2" height="24.68"/><rect id="Rectangle_66" data-name="Rectangle 66" class="cls-1" x="100.81" y="362.01" width="25.2" height="24.94"/><rect id="Rectangle_67" data-name="Rectangle 67" class="cls-2" x="100.81" y="337.33" width="25.2" height="24.68"/><rect id="Rectangle_68" data-name="Rectangle 68" class="cls-2" x="100.81" y="312.66" width="25.2" height="24.68"/><rect id="Rectangle_69" data-name="Rectangle 69" class="cls-2" x="100.81" y="287.98" width="25.2" height="24.68"/><rect id="Rectangle_70" data-name="Rectangle 70" class="cls-2" x="100.81" y="263.3" width="25.2" height="24.68"/><rect id="Rectangle_71" data-name="Rectangle 71" class="cls-2" x="100.81" y="238.63" width="25.2" height="24.68"/><rect id="Rectangle_72" data-name="Rectangle 72" class="cls-1" x="100.81" y="189.27" width="25.2" height="24.68"/><rect id="Rectangle_73" data-name="Rectangle 73" class="cls-1" x="100.81" y="114.98" width="25.2" height="24.68"/><rect id="Rectangle_74" data-name="Rectangle 74" class="cls-1" x="75.61" y="337.33" width="25.2" height="24.68"/><rect id="Rectangle_75" data-name="Rectangle 75" class="cls-1" x="75.61" y="213.95" width="25.2" height="24.68"/><rect id="Rectangle_76" data-name="Rectangle 76" class="cls-1" x="75.61" y="114.98" width="25.2" height="24.68"/><rect id="Rectangle_77" data-name="Rectangle 77" class="cls-1" x="50.4" y="312.66" width="25.2" height="24.68"/><rect id="Rectangle_78" data-name="Rectangle 78" class="cls-1" x="50.4" y="287.98" width="25.2" height="24.68"/><rect id="Rectangle_79" data-name="Rectangle 79" class="cls-1" x="50.4" y="263.3" width="25.2" height="24.68"/><rect id="Rectangle_80" data-name="Rectangle 80" class="cls-1" x="50.4" y="238.63" width="25.2" height="24.68"/><rect id="Rectangle_81" data-name="Rectangle 81" class="cls-1" x="50.4" y="189.27" width="25.2" height="24.68"/><rect id="Rectangle_82" data-name="Rectangle 82" class="cls-1" x="50.4" y="139.66" width="25.2" height="24.68"/><rect id="Rectangle_83" data-name="Rectangle 83" class="cls-2" x="25.2" y="337.33" width="25.2" height="24.68"/><rect id="Rectangle_84" data-name="Rectangle 84" class="cls-2" x="264.09" y="49.88" width="25.2" height="24.68"/><rect id="Rectangle_85" data-name="Rectangle 85" class="cls-2" x="214.21" y="90.57" width="25.2" height="24.68"/><rect id="Rectangle_86" data-name="Rectangle 86" class="cls-3" x="88.21" y="65.63" width="25.2" height="24.68"/><rect id="Rectangle_87" data-name="Rectangle 87" class="cls-2" x="38.33" y="36.75" width="25.2" height="24.68"/><rect id="Rectangle_88" data-name="Rectangle 88" class="cls-2" x="144.65" y="24.94" width="25.2" height="24.68"/><rect id="Rectangle_89" data-name="Rectangle 89" class="cls-3" x="220.78" width="25.2" height="24.68"/><rect id="Rectangle_90" data-name="Rectangle 90" class="cls-1" x="25.2" y="263.3" width="25.2" height="24.68"/><rect id="Rectangle_91" data-name="Rectangle 91" class="cls-3" x="25.2" y="213.95" width="25.2" height="24.68"/><rect id="Rectangle_92" data-name="Rectangle 92" class="cls-1" x="25.2" y="164.34" width="25.2" height="24.94"/><rect id="Rectangle_93" data-name="Rectangle 93" class="cls-1" x="25.2" y="139.66" width="25.2" height="24.68"/><rect id="Rectangle_94" data-name="Rectangle 94" class="cls-1" y="263.3" width="25.2" height="24.68"/></g><g id="Group_4" data-name="Group 4"><rect id="Rectangle_95" data-name="Rectangle 95" class="cls-3" x="666.91" y="194.34" width="13.53" height="13.39"/><rect id="Rectangle_96" data-name="Rectangle 96" class="cls-3" x="666.91" y="181.09" width="13.53" height="13.25"/><rect id="Rectangle_97" data-name="Rectangle 97" class="cls-3" x="666.91" y="154.6" width="13.53" height="13.25"/><rect id="Rectangle_98" data-name="Rectangle 98" class="cls-3" x="653.38" y="194.34" width="13.53" height="13.39"/><rect id="Rectangle_99" data-name="Rectangle 99" class="cls-3" x="653.38" y="167.84" width="13.53" height="13.25"/><rect id="Rectangle_100" data-name="Rectangle 100" class="cls-3" x="653.38" y="154.6" width="13.53" height="13.25"/><rect id="Rectangle_101" data-name="Rectangle 101" class="cls-3" x="639.85" y="194.34" width="13.53" height="13.39"/><rect id="Rectangle_102" data-name="Rectangle 102" class="cls-3" x="639.85" y="154.6" width="13.53" height="13.25"/><rect id="Rectangle_103" data-name="Rectangle 103" class="cls-3" x="626.32" y="207.73" width="13.53" height="13.25"/><rect id="Rectangle_104" data-name="Rectangle 104" class="cls-3" x="626.32" y="194.34" width="13.53" height="13.39"/><rect id="Rectangle_105" data-name="Rectangle 105" class="cls-3" x="626.32" y="181.09" width="13.53" height="13.25"/><rect id="Rectangle_106" data-name="Rectangle 106" class="cls-3" x="626.32" y="167.84" width="13.53" height="13.25"/><rect id="Rectangle_107" data-name="Rectangle 107" class="cls-3" x="626.32" y="114.86" width="13.53" height="13.25"/><rect id="Rectangle_108" data-name="Rectangle 108" class="cls-3" x="626.32" y="101.61" width="13.53" height="13.25"/><rect id="Rectangle_109" data-name="Rectangle 109" class="cls-3" x="626.32" y="88.22" width="13.53" height="13.39"/><rect id="Rectangle_110" data-name="Rectangle 110" class="cls-3" x="612.79" y="194.34" width="13.53" height="13.39"/><rect id="Rectangle_111" data-name="Rectangle 111" class="cls-3" x="612.79" y="167.84" width="13.53" height="13.25"/><rect id="Rectangle_112" data-name="Rectangle 112" class="cls-3" x="612.79" y="154.6" width="13.53" height="13.25"/><rect id="Rectangle_113" data-name="Rectangle 113" class="cls-3" x="612.79" y="128.1" width="13.53" height="13.25"/><rect id="Rectangle_114" data-name="Rectangle 114" class="cls-3" x="612.79" y="74.97" width="13.53" height="13.25"/><rect id="Rectangle_115" data-name="Rectangle 115" class="cls-3" x="599.26" y="207.73" width="13.53" height="13.25"/><rect id="Rectangle_116" data-name="Rectangle 116" class="cls-3" x="599.26" y="194.34" width="13.53" height="13.39"/><rect id="Rectangle_117" data-name="Rectangle 117" class="cls-3" x="599.26" y="181.09" width="13.53" height="13.25"/><rect id="Rectangle_118" data-name="Rectangle 118" class="cls-3" x="599.26" y="167.84" width="13.53" height="13.25"/><rect id="Rectangle_119" data-name="Rectangle 119" class="cls-3" x="599.26" y="114.86" width="13.53" height="13.25"/><rect id="Rectangle_120" data-name="Rectangle 120" class="cls-3" x="599.26" y="101.61" width="13.53" height="13.25"/><rect id="Rectangle_121" data-name="Rectangle 121" class="cls-3" x="599.26" y="88.22" width="13.53" height="13.39"/><rect id="Rectangle_122" data-name="Rectangle 122" class="cls-3" x="599.26" y="74.97" width="13.53" height="13.25"/><rect id="Rectangle_123" data-name="Rectangle 123" class="cls-3" x="585.73" y="154.6" width="13.53" height="13.25"/><rect id="Rectangle_124" data-name="Rectangle 124" class="cls-3" x="585.73" y="114.86" width="13.53" height="13.25"/><rect id="Rectangle_125" data-name="Rectangle 125" class="cls-3" x="585.73" y="88.22" width="13.53" height="13.39"/><rect id="Rectangle_126" data-name="Rectangle 126" class="cls-3" x="585.73" y="74.97" width="13.53" height="13.25"/><rect id="Rectangle_127" data-name="Rectangle 127" class="cls-3" x="572.2" y="207.73" width="13.53" height="13.25"/><rect id="Rectangle_128" data-name="Rectangle 128" class="cls-3" x="572.2" y="194.34" width="13.53" height="13.39"/><rect id="Rectangle_129" data-name="Rectangle 129" class="cls-3" x="572.2" y="181.09" width="13.53" height="13.25"/><rect id="Rectangle_130" data-name="Rectangle 130" class="cls-3" x="572.2" y="167.84" width="13.53" height="13.25"/><rect id="Rectangle_131" data-name="Rectangle 131" class="cls-3" x="572.2" y="154.6" width="13.53" height="13.25"/><rect id="Rectangle_132" data-name="Rectangle 132" class="cls-3" x="572.2" y="101.61" width="13.53" height="13.25"/><rect id="Rectangle_133" data-name="Rectangle 133" class="cls-3" x="572.2" y="74.97" width="13.53" height="13.25"/><rect id="Rectangle_134" data-name="Rectangle 134" class="cls-3" x="558.67" y="154.6" width="13.53" height="13.25"/><rect id="Rectangle_135" data-name="Rectangle 135" class="cls-3" x="558.67" y="128.1" width="13.53" height="13.25"/><rect id="Rectangle_136" data-name="Rectangle 136" class="cls-3" x="558.67" y="114.86" width="13.53" height="13.25"/><rect id="Rectangle_137" data-name="Rectangle 137" class="cls-3" x="558.67" y="101.61" width="13.53" height="13.25"/><rect id="Rectangle_138" data-name="Rectangle 138" class="cls-3" x="558.67" y="88.22" width="13.53" height="13.39"/><rect id="Rectangle_139" data-name="Rectangle 139" class="cls-3" x="558.67" y="74.97" width="13.53" height="13.25"/><rect id="Rectangle_140" data-name="Rectangle 140" class="cls-3" x="545.14" y="154.6" width="13.53" height="13.25"/><rect id="Rectangle_141" data-name="Rectangle 141" class="cls-3" x="531.62" y="194.34" width="13.53" height="13.39"/><rect id="Rectangle_142" data-name="Rectangle 142" class="cls-3" x="531.62" y="181.09" width="13.53" height="13.25"/><rect id="Rectangle_143" data-name="Rectangle 143" class="cls-3" x="531.62" y="167.84" width="13.53" height="13.25"/><rect id="Rectangle_144" data-name="Rectangle 144" class="cls-3" x="531.62" y="154.6" width="13.53" height="13.25"/><rect id="Rectangle_145" data-name="Rectangle 145" class="cls-3" x="531.62" y="114.86" width="13.53" height="13.25"/><rect id="Rectangle_146" data-name="Rectangle 146" class="cls-3" x="531.62" y="101.61" width="13.53" height="13.25"/><rect id="Rectangle_147" data-name="Rectangle 147" class="cls-3" x="531.62" y="88.22" width="13.53" height="13.39"/><rect id="Rectangle_148" data-name="Rectangle 148" class="cls-3" x="531.62" y="74.97" width="13.53" height="13.25"/><rect id="Rectangle_149" data-name="Rectangle 149" class="cls-3" x="518.09" y="207.73" width="13.53" height="13.25"/><rect id="Rectangle_150" data-name="Rectangle 150" class="cls-3" x="518.09" y="128.1" width="13.53" height="13.25"/><rect id="Rectangle_151" data-name="Rectangle 151" class="cls-3" x="504.56" y="194.34" width="13.53" height="13.39"/><rect id="Rectangle_152" data-name="Rectangle 152" class="cls-3" x="504.56" y="181.09" width="13.53" height="13.25"/><rect id="Rectangle_153" data-name="Rectangle 153" class="cls-3" x="504.56" y="167.84" width="13.53" height="13.25"/><rect id="Rectangle_154" data-name="Rectangle 154" class="cls-3" x="504.56" y="154.6" width="13.53" height="13.25"/><rect id="Rectangle_155" data-name="Rectangle 155" class="cls-3" x="504.56" y="114.86" width="13.53" height="13.25"/><rect id="Rectangle_156" data-name="Rectangle 156" class="cls-3" x="504.56" y="101.61" width="13.53" height="13.25"/><rect id="Rectangle_157" data-name="Rectangle 157" class="cls-3" x="504.56" y="88.22" width="13.53" height="13.39"/><rect id="Rectangle_158" data-name="Rectangle 158" class="cls-3" x="504.56" y="74.97" width="13.53" height="13.25"/><rect id="Rectangle_159" data-name="Rectangle 159" class="cls-3" x="491.03" y="207.73" width="13.53" height="13.25"/><rect id="Rectangle_160" data-name="Rectangle 160" class="cls-3" x="491.03" y="194.34" width="13.53" height="13.39"/><rect id="Rectangle_161" data-name="Rectangle 161" class="cls-3" x="491.03" y="181.09" width="13.53" height="13.25"/><rect id="Rectangle_162" data-name="Rectangle 162" class="cls-3" x="491.03" y="167.84" width="13.53" height="13.25"/><rect id="Rectangle_163" data-name="Rectangle 163" class="cls-3" x="491.03" y="128.1" width="13.53" height="13.25"/><rect id="Rectangle_164" data-name="Rectangle 164" class="cls-3" x="491.03" y="74.97" width="13.53" height="13.25"/><rect id="Rectangle_165" data-name="Rectangle 165" class="cls-3" x="477.5" y="194.34" width="13.53" height="13.39"/><rect id="Rectangle_166" data-name="Rectangle 166" class="cls-3" x="477.5" y="167.84" width="13.53" height="13.25"/><rect id="Rectangle_167" data-name="Rectangle 167" class="cls-3" x="477.5" y="154.6" width="13.53" height="13.25"/><rect id="Rectangle_168" data-name="Rectangle 168" class="cls-3" x="477.5" y="128.1" width="13.53" height="13.25"/><rect id="Rectangle_169" data-name="Rectangle 169" class="cls-3" x="477.5" y="101.61" width="13.53" height="13.25"/><rect id="Rectangle_170" data-name="Rectangle 170" class="cls-3" x="477.5" y="74.97" width="13.53" height="13.25"/><rect id="Rectangle_171" data-name="Rectangle 171" class="cls-3" x="463.97" y="194.34" width="13.53" height="13.39"/><rect id="Rectangle_172" data-name="Rectangle 172" class="cls-3" x="463.97" y="181.09" width="13.53" height="13.25"/><rect id="Rectangle_173" data-name="Rectangle 173" class="cls-3" x="463.97" y="167.84" width="13.53" height="13.25"/><rect id="Rectangle_174" data-name="Rectangle 174" class="cls-3" x="463.97" y="128.1" width="13.53" height="13.25"/><rect id="Rectangle_175" data-name="Rectangle 175" class="cls-3" x="463.97" y="114.86" width="13.53" height="13.25"/><rect id="Rectangle_176" data-name="Rectangle 176" class="cls-3" x="463.97" y="101.61" width="13.53" height="13.25"/><rect id="Rectangle_177" data-name="Rectangle 177" class="cls-3" x="463.97" y="88.22" width="13.53" height="13.39"/><rect id="Rectangle_178" data-name="Rectangle 178" class="cls-3" x="463.97" y="74.97" width="13.53" height="13.25"/><rect id="Rectangle_179" data-name="Rectangle 179" class="cls-3" x="450.44" y="207.73" width="13.53" height="13.25"/><rect id="Rectangle_180" data-name="Rectangle 180" class="cls-3" x="450.44" y="194.34" width="13.53" height="13.39"/><rect id="Rectangle_181" data-name="Rectangle 181" class="cls-3" x="450.44" y="167.84" width="13.53" height="13.25"/><rect id="Rectangle_182" data-name="Rectangle 182" class="cls-3" x="450.44" y="154.6" width="13.53" height="13.25"/><rect id="Rectangle_183" data-name="Rectangle 183" class="cls-3" x="450.44" y="128.1" width="13.53" height="13.25"/><rect id="Rectangle_184" data-name="Rectangle 184" class="cls-3" x="450.44" y="114.86" width="13.53" height="13.25"/><rect id="Rectangle_185" data-name="Rectangle 185" class="cls-3" x="450.44" y="88.22" width="13.53" height="13.39"/><rect id="Rectangle_186" data-name="Rectangle 186" class="cls-3" x="450.44" y="74.97" width="13.53" height="13.25"/><rect id="Rectangle_187" data-name="Rectangle 187" class="cls-3" x="436.91" y="194.34" width="13.53" height="13.39"/><rect id="Rectangle_188" data-name="Rectangle 188" class="cls-3" x="436.91" y="181.09" width="13.53" height="13.25"/><rect id="Rectangle_189" data-name="Rectangle 189" class="cls-3" x="436.91" y="114.86" width="13.53" height="13.25"/><rect id="Rectangle_190" data-name="Rectangle 190" class="cls-3" x="436.91" y="101.61" width="13.53" height="13.25"/><rect id="Rectangle_191" data-name="Rectangle 191" class="cls-3" x="423.38" y="167.84" width="13.53" height="13.25"/><rect id="Rectangle_192" data-name="Rectangle 192" class="cls-3" x="423.38" y="88.22" width="13.53" height="13.39"/><rect id="Rectangle_193" data-name="Rectangle 193" class="cls-3" x="409.85" y="207.73" width="13.53" height="13.25"/><rect id="Rectangle_194" data-name="Rectangle 194" class="cls-3" x="409.85" y="194.34" width="13.53" height="13.39"/><rect id="Rectangle_195" data-name="Rectangle 195" class="cls-3" x="409.85" y="181.09" width="13.53" height="13.25"/><rect id="Rectangle_196" data-name="Rectangle 196" class="cls-3" x="409.85" y="167.84" width="13.53" height="13.25"/><rect id="Rectangle_197" data-name="Rectangle 197" class="cls-3" x="409.85" y="154.6" width="13.53" height="13.25"/><rect id="Rectangle_198" data-name="Rectangle 198" class="cls-3" x="409.85" y="128.1" width="13.53" height="13.25"/><rect id="Rectangle_199" data-name="Rectangle 199" class="cls-3" x="409.85" y="114.86" width="13.53" height="13.25"/><rect id="Rectangle_200" data-name="Rectangle 200" class="cls-3" x="409.85" y="101.61" width="13.53" height="13.25"/><rect id="Rectangle_201" data-name="Rectangle 201" class="cls-3" x="409.85" y="88.22" width="13.53" height="13.39"/><rect id="Rectangle_202" data-name="Rectangle 202" class="cls-3" x="409.85" y="74.97" width="13.53" height="13.25"/></g></svg>