<svg id="Layer_1" data-name="Layer 1" xmlns="http://www.w3.org/2000/svg" viewBox="0 0 1645 106.75"><defs><style>.cls-1{fill:#1d1d1b;}.cls-2{fill:#141212;}.cls-3,.cls-5{fill:none;stroke:#141212;stroke-miterlimit:10;}.cls-3{stroke-width:0.53px;}.cls-4{fill:#fff;}.cls-5{stroke-width:3.68px;}.cls-6{fill:#64bb90;}.cls-7{fill:#048e66;}.cls-8{fill:#231f20;}.cls-9{fill:#e40134;}.cls-10{fill:#e30234;}.cls-11{fill:#009ee2;}</style></defs><path class="cls-1" d="M528.58,92.79H532V70.38L553.78,94V63H550.4V85.61L528.58,61.79ZM511.51,69.63l4.76,11h-9.51Zm0-7.84L498,92.79h3.84l3.87-9.14h11.65l3.88,9.14h3.83Zm-20.6,31h3.54V63h-3.54Zm-24.49,0h3.5V76.72l13.43,16.07h4.59l-14.06-16.4L486.69,63h-4.25L469.92,76.22V63h-3.5Zm-31.3,0h3.38V70.38L460.32,94V63h-3.38V85.61L435.12,61.79Zm-21.52,0h15.73v-3.3H417.14V78.06h12.19v-3.3H417.14V66.21h12.19V63H413.6Zm-23.24,0h6.21c4.26,0,7.18-.13,9.35-2.26a8.82,8.82,0,0,0,2.46-6.21c0-4-2.21-6.8-5.71-7.34a5.94,5.94,0,0,0,4.42-6.18,7.7,7.7,0,0,0-3-6.34c-1.87-1.38-4.25-1.5-7.51-1.5h-6.21Zm3.46-14h3.8c1.83,0,3.29,0,4.54.79a5,5,0,0,1,2.47,4.72,5.34,5.34,0,0,1-2,4.38c-1.3.92-3.26,1-6.1,1h-2.75Zm0-12.77h2.75c4.72,0,6.89.88,6.89,5.18,0,3.63-2.09,4.8-6.89,4.8h-2.75ZM371.13,92.79h14.81V89.41H374.67V63h-3.54ZM341.8,63V81.52c0,8.06,3.79,12.06,11.55,12.06s11.56-4,11.56-12.06V63h-3.59V81.52c0,6-2.42,8.76-8,8.76s-8-2.79-8-8.76V63Zm-17,14.43v3.17h8.51c-.41,5.84-4.84,9.81-10.76,9.81-6.8,0-11.68-5.05-11.68-12.18,0-7.56,4.75-12.69,11.68-12.69a10.52,10.52,0,0,1,9.6,5.43l3-2.38c-2.8-4.22-7-6.26-12.68-6.26a14.8,14.8,0,0,0-10.6,3.88c-3.21,3-4.8,7-4.8,12,0,6,2.8,11,7.68,13.64a15.75,15.75,0,0,0,7.51,1.75c9.09,0,14.89-5.67,14.89-15.19v-1Zm-46.13,15.4h15.73v-3.3H282.19V78.06h12.18v-3.3H282.19V66.21h12.18V63H278.64Zm-17.19,0H265V66.34h8.39V63H253v3.38h8.42ZM245.22,76.22,241,74.35c-2.71-1.17-4-2.67-4-4.8a4.26,4.26,0,0,1,4.55-4.34c2.13,0,3.75,1.17,5.05,3.42l2.92-1.88c-1.46-3-4.13-4.5-7.72-4.5-5,0-8.39,3.17-8.39,7.34,0,3.63,1.92,6.22,5.89,7.89L242.89,79c3.08,1.33,4.63,3.3,4.63,6,0,3.25-2.38,5.54-6,5.54-3,0-5.05-1.87-5.92-5.5l-3.22,1.58c1.13,4.43,4.43,6.93,9.14,6.93,5.76,0,9.56-3.67,9.56-9.14,0-3.75-2-6.51-5.89-8.18M203.79,63V81.52c0,8.06,3.8,12.06,11.56,12.06s11.56-4,11.56-12.06V63h-3.59V81.52c0,6-2.42,8.76-8,8.76s-8-2.79-8-8.76V63ZM183,90.24a12,12,0,0,1-8.64-3.63,12.14,12.14,0,0,1-3.59-8.67,12.35,12.35,0,0,1,3.59-8.77,12.2,12.2,0,0,1,17.27,0,12.24,12.24,0,0,1,3.59,8.77A12.33,12.33,0,0,1,183,90.24M199,77.94a15.2,15.2,0,0,0-4.63-11.1,16.28,16.28,0,0,0-22.58,0,15.47,15.47,0,0,0,0,22.15,16.18,16.18,0,0,0,22.58,0,15.2,15.2,0,0,0,4.63-11M151.1,92.79h14.81V89.41H154.65V63H151.1ZM133.62,69.63l4.76,11h-9.52Zm0-7.84-13.52,31h3.84l3.88-9.14h11.64l3.88,9.14h3.84Zm-16.1,8.3V65.46a16.79,16.79,0,0,0-9.81-3.21,15.41,15.41,0,0,0-11.1,4.38,15.86,15.86,0,0,0,2,24.2,15.41,15.41,0,0,0,8.8,2.75,17.2,17.2,0,0,0,10.06-3.25V85.61a12.48,12.48,0,0,1-9.77,4.72,12.14,12.14,0,0,1-10-5.3,11.9,11.9,0,0,1-2-7,12.06,12.06,0,0,1,11.94-12.44,12.79,12.79,0,0,1,9.93,4.55"/><path class="cls-1" d="M135.54,39.8c0,6-2.42,8.76-8,8.76s-8-2.79-8-8.76V21.24H116V39.8c0,8.05,3.8,12.06,11.56,12.06s11.56-4,11.56-12.06V21.24h-3.59Z"/><polygon class="cls-1" points="167.16 43.89 145.34 20.07 145.34 51.07 148.72 51.07 148.72 28.66 170.54 52.23 170.54 21.24 167.16 21.24 167.16 43.89"/><path class="cls-1" d="M313.27,25.12a16.27,16.27,0,0,0-22.57,0,15.47,15.47,0,0,0,0,22.15,16.17,16.17,0,0,0,22.57,0,15.56,15.56,0,0,0,0-22.15ZM310.6,44.89a12.23,12.23,0,0,1-20.86-8.68,12.3,12.3,0,0,1,3.59-8.76,12.18,12.18,0,0,1,17.27,0,12.28,12.28,0,0,1,3.59,8.76A12.06,12.06,0,0,1,310.6,44.89Z"/><path class="cls-1" d="M235,24.91a15.09,15.09,0,0,0-4.67,11.39,15.13,15.13,0,0,0,6.72,12.81,15.32,15.32,0,0,0,6.65,2.59v2.64c.34,0,1,0,1.3,0,1.48,0,2.19.44,2.19,1.42s-.68,1.35-2,1.35a20,20,0,0,1-4-.64v1.65a16,16,0,0,0,4.25.74c2.7,0,4.11-1.11,4.11-3.1s-1.24-3-3.67-3h-.47v-.91l.48,0A17.08,17.08,0,0,0,255.9,48.6V43.89a12.43,12.43,0,0,1-9.76,4.71,12.1,12.1,0,0,1-10-5.29A11.9,11.9,0,0,1,234,36.26a12.18,12.18,0,0,1,3.42-8.81A12,12,0,0,1,246,23.82a12.78,12.78,0,0,1,9.93,4.55V23.74a16.74,16.74,0,0,0-9.8-3.21A15.41,15.41,0,0,0,235,24.91Z"/><polygon class="cls-1" points="93.32 51.07 96.86 51.07 96.86 36.34 109.05 36.34 109.05 33.04 96.86 33.04 96.86 24.49 109.05 24.49 109.05 21.24 93.32 21.24 93.32 51.07"/><path class="cls-1" d="M202.38,51.07h3.83l3.88-9.14h11.64l3.88,9.14h3.84l-13.56-31Zm8.76-12.19,4.75-11,4.76,11Z"/><path class="cls-1" d="M258.28,51.07h3.84L266,41.93h11.64l3.88,9.14h3.84l-13.56-31ZM267,38.88l4.76-11,4.75,11Z"/><path class="cls-1" d="M196.28,24c-3.63-2.79-7.92-2.79-13.51-2.79h-5.72V51.07h7c4.84,0,8.76-.13,12.22-2.8s5.22-6.76,5.22-12.1S199.71,26.66,196.28,24ZM194,45.6c-2.5,2.09-6.05,2.13-11.14,2.13h-2.25V24.53h2.25c5.13,0,8.68.09,11.14,2.17s3.76,5.22,3.76,9.43S196.45,43.6,194,45.6Z"/><path class="cls-1" d="M276.55,15.05h-1.4a1.55,1.55,0,0,1-1.5,1.18,3.82,3.82,0,0,1-.85-.16l-1.57-.46a3,3,0,0,0-1-.13c-1.57,0-2.68,1.14-3.07,3.27h1.4a1.52,1.52,0,0,1,1.44-1.08,2.72,2.72,0,0,1,.79.13l1.53.42a4,4,0,0,0,1.05.17c1.6,0,2.71-1.15,3.13-3.34"/><path class="cls-1" d="M38.45,94.76C16.89,94.76,0,78.5,0,57.74,0,35.46,16.17,19.29,38.45,19.29c13.88,0,24.52,5.55,31.62,16.5l-3.18,2c-6.44-9.94-15.75-14.78-28.44-14.78-20.09,0-34.67,14.59-34.67,34.69C3.78,76.39,19,91,38.45,91,54.92,91,67.86,80.8,70,66.48H59V62.72H74.18l-.16,2c-1.35,17.39-16.31,30-35.57,30"/><polyline class="cls-1" points="4.54 58.92 4.54 58.92 4.54 58.92 4.54 58.92"/><path class="cls-1" d="M38.89,41.26c0-.18-.59-.34-.52-.06a1.54,1.54,0,0,0,.52.06"/><path class="cls-1" d="M6.38,59.86l-.06,0a1.22,1.22,0,0,1-.73.37c-.34,0-.52-.34-.82-.3.16.74,1.54.84,1.61,0"/><path class="cls-1" d="M5.19,51.29h0c.41-.42.82-.83,1.21-1.28a8.9,8.9,0,0,0,1-1.32c.46-.8-.62-.39-.33-.4a.39.39,0,0,1,.09.33,1.82,1.82,0,0,1-.53.84c-.52.56-1,1-1.53,1.55-.06.09-.13.4.05.29"/><path class="cls-1" d="M5.15,52.41l0,0c.51-.67,1-1.28,1.49-1.85a22.44,22.44,0,0,0,1.51-1.87c.11-.15.29-.37.2-.59-.28.17-.34.5-.49.74A11.91,11.91,0,0,1,7,49.92c-.62.66-1.32,1.27-1.92,2-.14.19-.26.93.1.53"/><path class="cls-1" d="M69,54.52a6.35,6.35,0,0,0-.42-.64,4.84,4.84,0,0,0-1.36-1,4.83,4.83,0,0,0-.94-.11,4,4,0,0,1-.92-.15,8.14,8.14,0,0,0-1.55-.6c-1.1-.1-1.46,1-2.53,1.1A9.9,9.9,0,0,0,61,52c-.16-.35-.48-.65-.52-1a1.33,1.33,0,0,1,.13-.6,3.12,3.12,0,0,0,0-.54,8,8,0,0,0-.28-3.07,9.94,9.94,0,0,0-.66-1.45h0a.89.89,0,0,1-.13-.33c0-.19.51-.38.73-.49.61-.33,1-.52,1.57-.88.24-.16.48-.48.75-.47s.29.15.45.25h0v0a1.38,1.38,0,0,0,.29.17c.19.08.68.18.73-.06s-.86-.32-.82-.75.85-.14,1.12-.2c.41-1-.48-1.46-1.1-1.86a8,8,0,0,0-1-.62,20,20,0,0,0-2.21-1,1.33,1.33,0,0,0-1.23-.84c-.23-.22-.16-.71-.42-.86s-.53,0-.78.09a4.76,4.76,0,0,0-1.33.56c-.18.11-.45.39-.37.51s.33-.06.48-.15a3.8,3.8,0,0,1,.49-.26c.29-.11.85-.35,1-.15s-.4.42-.63.52-.34.06-.41.19,0,.61-.24.71a.57.57,0,0,1-.36,0c-.42-.17-.75-.64-1.22-.76,0,.33-.13.53-.33.78s-.28.34-.4.36c-.34.07-.5-.15-.67-.32s-.52-.43-.6-.71.29-.69.24-1-.49-.26-.82-.3a9.56,9.56,0,0,0-1-.13,3.4,3.4,0,0,0-1.46.3c-.2.09-.56.2-.5.36s.45-.06.67-.15a4.18,4.18,0,0,1,2.15,0c0,.1-.27.34-.52.36a2.72,2.72,0,0,1-.39,0c-.44,0-1,.14-1,.33s.31.44.63.4c.12,0,.22-.13.36-.13s.24.12.37.13.28-.1.4-.08a2,2,0,0,1,.41.21l.41.24c.19.12.62.43.56.7-.11.48-1.13,0-1.35,0s-.65.3-.8,0,.09-.32,0-.47-.17.09-.34.06c-.29-.32-.43-.13-.79-.21a2.21,2.21,0,0,1-.78-.58c-.16-.2-.2-.49-.4-.49s-.32.14-.41.19A3.31,3.31,0,0,0,47.32,40c-.13.27-.29.68-.58.67s-.6-.46-.71-.75a2.54,2.54,0,0,0-.13-.48c-.12-.19-.4-.26-.55-.45a1.36,1.36,0,0,1-.24-.53c0-.27.34-.45.3-.71s-.44-.32-.69-.43a4,4,0,0,0-.83-.3,4,4,0,0,0-1.33.09c-.37.06-1,.17-.86.42s.39,0,.58-.1a3.5,3.5,0,0,1,1.52-.24c.26.05,1.24.47,1.08.8s-.58-.18-.71-.26c-.34,0-.64-.07-1-.07s-.8,0-.86.26.19.47.39.52.44-.06.6.06,0,.41.13.43.25-.33.49-.37a1.23,1.23,0,0,1,.77.24c.1.1.14.38.2.47.15.25.45.28.45.52s-.26.4-.52.43-.68-.2-.77-.14.1.21.17.29a2.16,2.16,0,0,1,.54,1A2.08,2.08,0,0,1,44.23,43a1.7,1.7,0,0,1-1.18.19,2.29,2.29,0,0,1-.71-.71c-.06-.09-.12-.27-.23-.25s0,.36,0,.36a6,6,0,0,0,.4.82c.16.21.41.35.56.53a7.44,7.44,0,0,1,.69,1.2.79.79,0,0,1,0,.2c0,.12-.52.17-.8.19-1.3.12-2.55.22-3.84.3-.68,0-1.19.1-1.56-.21a1.49,1.49,0,0,1-.21-.22h0a1.13,1.13,0,0,1-.27-.61c0-.27.67-.37,1-.49.51-.21,1.1-.67,1.8-.5.27.07.93.53,1.07,0-.24-.16-.76-.16-.77-.5s.22-.37.43-.4.77.19,1,0c.09-.27,0-.48,0-.75a3,3,0,0,0,.13-.54c0-.55-.58-.78-1-1S40,40.5,40,40.23a.86.86,0,0,1,.43-.73c.14,0,.39,0,.58,0s.63-.41.9-.39.44.53.72.34-.18-.22-.27-.34a.65.65,0,0,0,0-.25c-.57-.27-.63-1-1.22-1.29A7.34,7.34,0,0,0,39.42,39c-.15.2-.39.7-.66.73s-.9-.43-1.07-.58a8,8,0,0,0-.9-.93c-.23-.12-1.24-.25-1.25-.55a.13.13,0,0,1,0-.06L38,36.93c2.14-.6,11-3.14,11.82-3.37l2.87-.83s.39-.34.06-.41l-1.66.48L38.59,36.41l-2.8.78c0-.13-.09-.17-.37-.27h0c-.21,0-.42-.12-.62-.17l-.16,0h-.06a4.61,4.61,0,0,0-2.11.39c-.17.08-.5.29-.47.43s.26-.06.37-.11A4.17,4.17,0,0,1,33.61,37c.43-.07,1.69-.16,1.61.34,0,.27-.63.2-1,.22-.68,0-1.39.18-1.45.33s.44.5.68.5.24-.11.36-.1.25.19.39.19.23-.14.39-.11.18.26.3.35c.27-.22.44-.51.88-.48a2.33,2.33,0,0,1,.64.24c.36.17.84.53.72.77s-.52.13-.85.24-.57.32-.83.28-.35-.32-.58-.35c0,.16,0,.28,0,.39.75.32,1.58.58,1.61,1.63-.37.45-.78,1.27-1.59,1.07-.48-.11-.68-.61-.8-1.07,0-.15-.14-.53-.23-.49s-.09.8,0,1a1.86,1.86,0,0,0,.9,1,3.13,3.13,0,0,1,.53.12,1,1,0,0,1,.37,1c-.22.34-.7.38-1.14.54-1,.33-2,.62-3,.86a2.09,2.09,0,0,1-.19-1.1c0-.39,0-.8-.05-1.2a7.17,7.17,0,0,1,.26-2.3c.07-.17.27-.42.41-.66a3.66,3.66,0,0,1,.43-.65c.11-.11.44-.36.64-.34s.59.55.66.5,0-.36,0-.52.32-.25.24-.39c-.3-.05-.33.21-.6.22a1.45,1.45,0,0,1-.73-.28,2.08,2.08,0,0,1-.54-.47c-.32-.41-.8-1.21-.91-1.12s0,.22.09.39l0,.09a.55.55,0,0,1,0,.17.46.46,0,0,1-.11.32,5.08,5.08,0,0,0-.32.4l-.3.09c-.31.09-1.42.33-1.73.39a1.24,1.24,0,0,0-.24-.16.42.42,0,0,0-.32-.06c-.11,0-.8.11-1,.11a2.42,2.42,0,0,0-.88.08,14.86,14.86,0,0,1-3,.7,15.14,15.14,0,0,0-2.61.52,1.62,1.62,0,0,1-.5,0,7,7,0,0,0-1.57,0c-.88.08-1.05-.24-1.46-.27a2.08,2.08,0,0,1-.48-.08.3.3,0,0,0-.09-.15c-.11-.12,0-.25.06-.37-.11-.37-.43-.71-.19-1.13-.05-.17-.23-.29-.28-.47s.06-.2.13-.3a1.07,1.07,0,0,0-.3-.77,3.32,3.32,0,0,0-2.37-.25,3.46,3.46,0,0,0-1.47.52,3.1,3.1,0,0,0-1,2.51s0,.15,0,.22.11.13.17.15c.21.06.49,0,.69,0a.13.13,0,0,1,.11.09c0,.08.08,0,.1.08a.42.42,0,0,1-.18.39l-.09,0h-.05a1.64,1.64,0,0,0-.39.05l-1,.27a3.41,3.41,0,0,0-1.53.69,9.22,9.22,0,0,0-1,1.58c-.2.33-1,.89-1.25,1.52A8.93,8.93,0,0,1,6.13,46a1.73,1.73,0,0,0-.24.65.61.61,0,0,0,.05.45c.1.18.15.32.41.37s.83.12,1.28.17,1.89.11,2.21.18a1,1,0,0,1,.71.42,2,2,0,0,0,.54.58,1,1,0,0,1,.25.73,2.64,2.64,0,0,1,0,.28.61.61,0,0,0-.2.41,1.81,1.81,0,0,0-.06.52,1.48,1.48,0,0,1,0,.23c-.4,1.22-1.19,1.91-1.89,1.83-.27-.05-.5-.12-.66-.15L8,52.59c-.41-.11-.25-.68,0-.85A5.38,5.38,0,0,0,9.21,49.8,3.37,3.37,0,0,1,10,48.5a.58.58,0,0,0,.11-.14c.08-.12.07-.3-.17-.08a3.43,3.43,0,0,0-.78,1,11.58,11.58,0,0,1-3.32,3.5L5.62,53l0,0a2.07,2.07,0,0,0-1,1.71,2.3,2.3,0,0,0,0,.66,5.25,5.25,0,0,0,0,1.71c.1.17.18-.86.55-.79a2.11,2.11,0,0,0,.71.43c.34.13.42.37.36.57h0a.83.83,0,0,0,0,.15c-.13.52,0,1.73-.31,2s-1-.15-1.13-.3h0c-.2-.11-.17.16,0,.3a1.88,1.88,0,0,0,.8.44.73.73,0,0,0,.75-.47,9.36,9.36,0,0,0,.13-1.65A3,3,0,0,1,6.66,57,6.54,6.54,0,0,1,7,56.32a2.67,2.67,0,0,1,1.38-.94,3.29,3.29,0,0,1,1.15-.11,2.61,2.61,0,0,1,1.66,1,2.08,2.08,0,0,0,1.71.9c.18-.1.13-.32.15-.47s.09-.27.14-.39.39-.61.64-1c.1-.13.22-.26.36-.42a9.83,9.83,0,0,1,1.07-1.07,8.08,8.08,0,0,1,2.6-1.68,14,14,0,0,1,3.82-.45c1,0,2.05,0,3.05-.13a6.38,6.38,0,0,0,1.65-.23c.17-.06.38-.24.6-.24s.19.15.34.15.29-.28.43-.47c.39-.5.85-1,1.25-1.39a3.29,3.29,0,0,1,2.61-1.23c.23,0,.61.21.66.06s-.25-.25-.38-.38a1.27,1.27,0,0,1-.45-.71,1.65,1.65,0,0,1,.13-1c.12-.15.51-.19.84-.26.67-.14,1.09-.25,1.78-.41a9.19,9.19,0,0,0,1.31-.38,1.21,1.21,0,0,1,.73-.2c.27.06.57.68.73,1a6.9,6.9,0,0,1,1,2.36A4.58,4.58,0,0,1,38,50a1,1,0,0,1-.54.6c-.62.13-.87-.41-1.4-.32-.05.23.18.35.33.45a2.38,2.38,0,0,0,.49.3c.69.29,1.52.31,1.63,1.16a1.52,1.52,0,0,1-.17.86c-.13.2-.47.3-.71.45s-.43.46-.75.39-.21-.43-.37-.55-.53.46-.72.78a3.66,3.66,0,0,0-.28.52c-.08.17-.23.45-.09.55s.45-.42.71-.57a3.27,3.27,0,0,1,.66-.24,6.37,6.37,0,0,0,1.7-1c.68-.5,1.27-1.25,2.34-1.27a8.24,8.24,0,0,1,2.29.5c.74.2,1.43.39,2.24.53a2.27,2.27,0,0,1,.6.93c.15.33.37.57.19,1,.06.29.61.51.56.88s-.56.18-.9.1-.53-.07-.58-.32.39,0,.53-.08a.46.46,0,0,0,.07-.43c-.08-.26-.43-.27-.71-.39a2,2,0,0,1-.64-.41,3.36,3.36,0,0,1-.3-.6c-.27-.4-.8-.38-1.29-.62-.31-.15-.57-.43-1.1-.26-.15,0-.25.2-.4.28a2.94,2.94,0,0,1-1,.43,6.66,6.66,0,0,0-1.33.19c-.36.13-.79.37-.88.65s0,.38-.07.56a2.08,2.08,0,0,1-.62.79,3.54,3.54,0,0,1-2.3,1,2.77,2.77,0,0,1-1.5-.37c-.34-.22-.54-.63-1-.51a1,1,0,0,0,.17.88c.09.15.39.35.37.55s-.55.43-.67.5a9.36,9.36,0,0,1-2.42,1,11.75,11.75,0,0,1-4,.43A6.65,6.65,0,0,1,21,56.37c-.12-.18-.31-.6-.49-.65a2.77,2.77,0,0,0-1,.15c-.26.09-.54.33-.47.5s.41,0,.68,0,1,.32,1,.58-.23.2-.2.33.53.25.8.43A2.53,2.53,0,0,1,22,61c-.11.18-.4.31-.37.44s.38,0,.52.09.39.63.41.84a3.61,3.61,0,0,1-.21,1.42c-.11.33-.42,1-.3,1.29s.54.29.88.32.66,0,1,0a14.7,14.7,0,0,1,3,0c.4.16.49.66.73,1,.12.18.34.37.5.56s.33.43.47.58.61.4.45.68-.71.08-.82,0-.38-1.15-.9-1.48c-.15-.1-.34-.15-.49-.24s-.25-.28-.39-.3-.35.2-.51.28c-.39,0-.79,0-1.18,0a4.9,4.9,0,0,1-1.18-.07c-.13,0-.23-.2-.34-.23a2,2,0,0,0-1,0c-.13.07-.15.36-.32.41-.34.08-.88-.52-.9-.84s.11-.4.12-.6a4.21,4.21,0,0,0-.27-1.2c0-.12-.08-.24-.11-.37v0c0-.12-.07-.25-.1-.37h0c0-.14-.06-.27-.08-.39-.06-.6.35-1.22-.32-1.31-.31,0-.63,0-1,0a4,4,0,0,0-1,0c-.18.06-.23.26-.36.3a2,2,0,0,1-.92,0l-.27-.07h0a2.05,2.05,0,0,1-.4-.16l0,0-.11-.07s0,0,0,0L16,61.24c-.72-.66-.87-2-1.39-2.86-.17-.29-.51-.68-.8-.73a5.94,5.94,0,0,0-1.18.2,3.23,3.23,0,0,1-1.35-.3c-.44-.23-.83-.69-1.26-1a2.25,2.25,0,0,0-.8-.34,2.36,2.36,0,0,0-1.44.36,2.54,2.54,0,0,0-.79.69c-.41.62-.16,1.54-.24,2.47,0,.54-.36,1.2-.92,1.26a1.71,1.71,0,0,1-.94-.22c-.18-.09-.17.28,0,.35l0,0a1.48,1.48,0,0,0,.78.14c.26,0,.74-.38.69-.21a1,1,0,0,1-.88.6,1.47,1.47,0,0,1-.63-.16s-.07,0-.07,0,0,.15,0,.29a.22.22,0,0,1,0,.08h0v0h0a.06.06,0,0,1,0,0h0v0h0v.05h0v0h0v0H5A2.69,2.69,0,0,0,6.68,62h0c.18.26.29.55.45.82s.43.48.41.81c-.57.14-.58-.33-1.09-.23a.74.74,0,0,0-.17,1.37c.57.21.72-.33,1.35-.19a2,2,0,0,0,.19.62c-.45,1-.9,2-1.39,3a.14.14,0,0,0,0,.09l.09.24s0,0,0,0h0l.46-.93c.11-.24.35-1,.64-.71a3,3,0,0,1-.32.9c-.18.4-.39.82-.6,1.24a.19.19,0,0,0,0,.13l.1.26s0,0,.05,0c.44-.95.76-1.88,1.18-2.86a2.4,2.4,0,0,1,.28-.58c.24-.18.34.29.43.48.58,1.21,1.12,2.19,1.8,3.34.16.28.35.42.3.82a2.41,2.41,0,0,1-2.71,1.64s0,0,0,.08a1.22,1.22,0,0,0,.09.17s0,0,.06,0a3,3,0,0,0,.67,0,3.21,3.21,0,0,0,2.47-2.21,13.45,13.45,0,0,0,.75-3.2A18.24,18.24,0,0,0,12,61c-.09-.46-.45-1.41.11-1.48.4-.05.47.39.58.77a17.15,17.15,0,0,1,.52,6.29c-.2,2.26-.69,4.79-2,5.94a5.73,5.73,0,0,1-1,.69,3.43,3.43,0,0,1-.92.3c-.28,0-.28-.15.06-.21l.14,0a3.09,3.09,0,0,0,1.11-.51,4.45,4.45,0,0,0,.87-1c.14-.28.23-.41.13-.45s-.37.43-.55.63A3.41,3.41,0,0,1,9,73l-.25,0H8.71a0,0,0,0,0,0,0h0v0h0v0h0l.06.1h0l0,0,.12.2a.59.59,0,0,0,0,.08H9l.1.17a.12.12,0,0,0,.11,0,3.43,3.43,0,0,0,1.44-.44,5.82,5.82,0,0,0,2.44-3.56c.65,1.72,1.58,3.36,3.27,4a3.71,3.71,0,0,0,1.93.17,4.76,4.76,0,0,0,3.28-2.58,10.24,10.24,0,0,0,1.15-3.41c.07-.38.13-.77.18-1.16a14.72,14.72,0,0,1,2.36-.06c.26,0,.77.07.8.34a1.43,1.43,0,0,1-.18.41,11.7,11.7,0,0,1-.55,1.18c-.37.58-1,.72-1,1.69,0,.35.29.64.28,1,0,.52-.58.71-.64,1.16-.05.3.08.5.06.71s-.53.58-.37.94c.09.18.63.13,1,.13l2.25,0c.35,0,.92,0,1-.11a.33.33,0,0,0,0-.32h1.44c.4,0,1.18.12,1.2-.24s-.32-.47-.45-.62a2.27,2.27,0,0,0-.55-.53c-.21-.11-.46-.11-.58-.3s-.27-.45-.28-.69.17-.45.25-.71a2.85,2.85,0,0,0,.16-.94c.09-.28.58-.16.81-.3,0-.49-.46-1-.47-1.46a1.57,1.57,0,0,1,.26-.73c.11-.22.17-.43.3-.65s.59-1,.94-.94.36.41.52.62.48.14.51.35-.13.24-.17.4a.92.92,0,0,0,.06.84,8.74,8.74,0,0,0,2.79.36c.1-.06,0-.2.11-.25a8,8,0,0,0,1.39.06c.5,0,1.25-.06,1.31-.21s-.17-.44-.3-.65a2.71,2.71,0,0,0-.4-.58c-.2-.16-.5-.21-.65-.4-.3-.38-.41-1-.77-1.29-.14-.12-.3-.14-.47-.26a9.64,9.64,0,0,1,2.1-.08c.29.08.49.32.75.4s.34,0,.47.09.07.41.09.6a1.11,1.11,0,0,0,.51.75,3.65,3.65,0,0,0,1.08.07c.54,0,1.19,0,1.29-.2s-.13-.56-.26-.77a2.93,2.93,0,0,0-.48-.62c-.38-.33-.68-.28-.92-.67-.07-.11-.1-.27-.19-.4a2.59,2.59,0,0,0-.6-.43c-.13-.09-.22-.22-.35-.26a1.65,1.65,0,0,0-.66-.07c-.37,0-.77.1-1.2.11s-.81,0-1.23,0a10.61,10.61,0,0,1-2.42-.06c-.22-.05-.51-.2-.51-.3s.44-.45.57-.58A12.24,12.24,0,0,0,34,61.24a7.78,7.78,0,0,1,.49-.67c.13-.12.64-.56.84-.56s.33.22.51.37.38.27.52.38a4.74,4.74,0,0,0,1.09.71l1.27.52a4.21,4.21,0,0,1,1.2.6,3.65,3.65,0,0,1,.75,1.12,4.23,4.23,0,0,1,.45,1.41,2.26,2.26,0,0,0,.26,1.18,1.37,1.37,0,0,0,1,.39c.27,0,.52-.26.82-.35a7.25,7.25,0,0,1,1.41,0,7.45,7.45,0,0,1,1.25,0,3.07,3.07,0,0,1,1.11.41c.31.15.91.29,1,.56s-.12.39-.15.53a1.22,1.22,0,0,0,.09.73c.09.15.44.24.7.32a3.38,3.38,0,0,0,1.27.24c.32,0,.79-.09.86-.21a2,2,0,0,0-.3-.93c-.21-.35-.72-.5-.88-.88s0-.69-.11-1c-.24-.72-1-.76-1.89-.8-.45,0-.94,0-1.41,0s-.92,0-1.4-.09A3.1,3.1,0,0,1,43.52,65a2.63,2.63,0,0,1-.81-1.16,2.08,2.08,0,0,1,.06-.86,5.15,5.15,0,0,0,.17-2c0-.25-.16-.44-.19-.69a2.51,2.51,0,0,1,.13-.9c.08-.23.22-.65.45-.65s.23.22.32.3.32.19.43.35a1.77,1.77,0,0,1,.21.51,2.2,2.2,0,0,0,.2.54c.18.24.7.27.6.6s-.38.18-.49.32a1,1,0,0,0-.07.88c.1.18.4.31.6.45s.44.29.65.41A3.54,3.54,0,0,1,47,63.9c0,.72.13,1.23,1,1.14.51-.06,1.17-.15,1.84-.18s1.37,0,1.89,0c.23,0,.4.15.58.17s.65,0,.69.22-.18.31-.19.47a1.07,1.07,0,0,0,.4.9,3.26,3.26,0,0,0,.69.13,7,7,0,0,0,1.44,0c.63-.1.19-.5,0-.81s-.23-.41-.37-.58-.54-.3-.69-.52a3.39,3.39,0,0,1-.15-.41,1.83,1.83,0,0,0-.51-.64,3.39,3.39,0,0,0-2.17-.21,7.88,7.88,0,0,1-2.06.1,1.94,1.94,0,0,1-1.18-1.18c0-.4.3-.73.32-1.09,0-.54-.34-1.35.18-1.65a2,2,0,0,1,.43-.13c.52-.17,1-.54,1.6-.43.3.33.11.81.31,1.22,0,.13.29.27.45.39s.43.21.4.43-.23.18-.32.3a1.26,1.26,0,0,0-.18.77,3.27,3.27,0,0,0,1.13.71c.41.16,1.11.45,1.43.32.14-.07.09-.73,0-1.07a2.57,2.57,0,0,0-.26-.56,2.1,2.1,0,0,1-.25-.56c0-.21.08-.5,0-.73s-.39-.4-.56-.64a4.41,4.41,0,0,1-.24-.54c-.18-.36-.56-.6-.62-.94.95.08,2.61.05,2.82.12s.38.6.49,1c.14.16.54.24.49.49s-.25.13-.38.24a1.06,1.06,0,0,0-.07.69c.1.25.75.54,1,.66s.84.61,1.07.52.19-.32.19-.56a6.45,6.45,0,0,0-.19-2.12,2.66,2.66,0,0,0-.67-.71,7.81,7.81,0,0,1-.64-.69c1-.41,1.78-1.41,3.22-1-.38.47,0,.74.36.95a5,5,0,0,0,2.1.7c.26-.11,0-1.06,0-1.54.47-.16.82-.46,1.33-.41a1.91,1.91,0,0,1,1.12.6c.13.15.16.38.32.54s.65.26.73.58a.85.85,0,0,0-.19.88,3.07,3.07,0,0,0,1.9.59c.15-.08,0-1.18-.21-1.6-.1-.19-.3-.29-.4-.49s-.22-.82-.45-1.07a2,2,0,0,0-1-.33,3.21,3.21,0,0,1-.92-.36,5.54,5.54,0,0,0-.9-.62c-.92-.33-1-.09-1.06-.26s.28-.35.46-.49.29-.36.47-.48a3.34,3.34,0,0,1,.68-.25,4.14,4.14,0,0,1,.71-.26c.7-.07,1,.62,1.46.75s.91-.23,1.11-.09.08,1,.39,1.17a2.13,2.13,0,0,0,1.08.12c.29,0,.79,0,.84-.29s-.18-.55-.29-.74M31.53,38.6a.45.45,0,0,1,.43.3c.06.39-.39.59-.54.84a8.52,8.52,0,0,0-.41,2c-.08.33-.37.64-.4,1a4.82,4.82,0,0,0,.19,1.2c.07.43.19.85.23,1.16s0,.66-.47.68a10.49,10.49,0,0,1-.3-1.11,5.4,5.4,0,0,1-.19-1.68,12.89,12.89,0,0,1,.41-2.4,6.75,6.75,0,0,1,.36-1c.13-.3.4-.88.69-.9m-.92.36c0,.08-.07.16-.1.25h0a7.75,7.75,0,0,0-.7,2.37c0,.52,0,1.11,0,1.68a17.75,17.75,0,0,0,.13,2.42c-.21.23-.57.24-.88.32a56.33,56.33,0,0,1-6.93,1.35A29.15,29.15,0,0,1,15.56,47c-.28,0-.6-.05-1-.11l-.51,0-.1-.08c-.05-.07,0-.1.09-.24a13.58,13.58,0,0,0,1.32-1.86c.32-.65.68-1.59.7-1.65a.75.75,0,0,1,.32-.27,3.63,3.63,0,0,1,1.88-.34c1.28,0,1.63-.26,2.28-.24A4,4,0,0,0,23,41.81c1.14-.61,2.53-1.51,3.19-1.5s1.11.42,1.54.4a2.79,2.79,0,0,0,.86-.24c.12,0,.33,0,.45-.41s.18-.53.1-.71L30.61,39m-2.32,8.2,1.35-.24c.08,0,.11,0,.1.14s-.37.18-.55.21a63.37,63.37,0,0,1-7.7,1l-1.38,0a4.68,4.68,0,0,1-1.4-.14,23.28,23.28,0,0,1,2.93-.12,17.54,17.54,0,0,0,2.74-.28c1.32-.19,2.63-.4,3.91-.62m-2.56.32c0-.07.28-.13.43-.17.77-.19,1.57-.36,2.41-.54a7.69,7.69,0,0,1,1.08-.21.35.35,0,0,1,0,.21,39.89,39.89,0,0,1-3.93.71M14,47.7a.73.73,0,0,0,.26-.13h.06l1,0c.22,0,.64-.07.63.11s-1.26.17-1.9.13l-.22,0c0-.07.13-.09.16-.11m.81-.39-.44,0a.52.52,0,0,0-.11-.19,9.36,9.36,0,0,1,2.31.29c0,.13-.21.1-.32.09-.46,0-.9-.11-1.44-.15m-1.16,1,1.2.13c.72.06,2.2.12,2.2.18s-.38.11-.57.12a6.94,6.94,0,0,1-.79,0c-.31,0-1.16-.12-1.27-.13s-.39-.09-.57-.13l-.26-.06.06-.11m3.19-8h.7a2.53,2.53,0,0,1,.62.17.58.58,0,0,0,.5,0,3.15,3.15,0,0,1,1.21-.07,4.24,4.24,0,0,0,.95.09,16,16,0,0,0,1.93-.48c.48-.13,1.05-.21,1.5-.31s.53-.13,1-.25A11.4,11.4,0,0,1,26.9,39c.33,0,.93,0,1.08,0a2.31,2.31,0,0,1,.58.15c.06,0,.18.16,0,.27a1.14,1.14,0,0,1-.48.15c-.14,0-.18,0-.2.06s-.42.37-.51.41a.46.46,0,0,1-.33,0c-.12,0-.49-.27-.52-.28a.14.14,0,0,0-.13,0,11,11,0,0,0-1.18.4c-.25.14-.7.45-1.1.68a5.34,5.34,0,0,1-2.44.9,1.39,1.39,0,0,1-1-.29.3.3,0,0,0-.36,0,5.84,5.84,0,0,1-2.36.33c-.75,0-.42-.54-.68-.52s-.92.56-1.05.62a.29.29,0,0,1-.4-.05.57.57,0,0,1-.11-.4c0-.1-.05-.17,0-.21h0l0,0c.08,0,.3-.07.38-.16a1.48,1.48,0,0,0,.25-.26.35.35,0,0,0,0-.22c0-.07,0-.09,0-.11a.49.49,0,0,1,.38-.18M15.57,39c.19.08.19-.18.29-.28a1,1,0,0,1,.38.24c.11.16.26.35.16.54s-.23.07-.24.17-.12.31-.21.45c.11,0,.26.08.28.2s.05.36-.07.48a1.17,1.17,0,0,1-.63.08,4.48,4.48,0,0,1-.62-.11.14.14,0,0,0-.17.12l-.06.26h0a.74.74,0,0,1,0,.14,1.48,1.48,0,0,1-.13.35l0,0s0,0-.05,0H14.3a.17.17,0,0,0-.12,0c-.06.06,0,.19-.11.27H14a.52.52,0,0,1-.33-.07,1.23,1.23,0,0,1-.38-.22l0,0a1.09,1.09,0,0,1-.14-.23c-.19-.28-.33-.51-.58-.82l-.05-.21a.68.68,0,0,1,.43-.56,1.76,1.76,0,0,1,1.46.28l0,0-.09-.5A1.72,1.72,0,0,1,14.73,38a1.14,1.14,0,0,1,.53-.35.58.58,0,0,1,.56.1.49.49,0,0,1,.15.4.11.11,0,0,1,0,.08c-.12.15-.33.07-.49.13a1.63,1.63,0,0,0-.44.43,1.45,1.45,0,0,1,.56.15m-3.75.12a.59.59,0,0,1-.26-.38c-.16-.63.26-1.09.7-1.52l.45-.32a4.07,4.07,0,0,1,2.17-.3c.34.08.75,0,1,.35,0,.23-.27.21-.43.26a4.7,4.7,0,0,0-1.77,1.28,1.91,1.91,0,0,1-1.83.63m-.1,1.74a.56.56,0,0,1,.38-.13.36.36,0,0,1,.24.08c.08.06.15,0,.36.46,0,.05.1.21.14.27a2,2,0,0,0,.11.26,1.24,1.24,0,0,0,.46.38,1.12,1.12,0,0,0,.25.11.85.85,0,0,0,.23,0h.2a1,1,0,0,0,.65-.31,1.43,1.43,0,0,0,.2-.23.78.78,0,0,0,.19-.39.13.13,0,0,1,.16-.11c.07,0,.05,0,.07.07s.1.41.13.48a3.1,3.1,0,0,1,.08,1.5,6.21,6.21,0,0,1-1.18,2.32c-.27.27-.62.43-.41,0l.16-.38a4.41,4.41,0,0,0,.14-.56c.05-.16-.09-.11-.15,0a3.5,3.5,0,0,1-.94,1.41,1.26,1.26,0,0,1-.59.28l-.43.08a4.26,4.26,0,0,1-.51.09c-.06,0-.08-.07,0-.13s.23-.24.41-.49l.46-.64a6.77,6.77,0,0,0,.65-1.47c.06-.21,0-.21-.07,0a11.88,11.88,0,0,1-.88,1.49,11.77,11.77,0,0,1-1,1.14.57.57,0,0,1-.54.07,6.84,6.84,0,0,1-.93-.44c-.08-.06-.11-.15,0-.22a18.49,18.49,0,0,0,2.63-3.2,1.12,1.12,0,0,0,.09-.69,1.33,1.33,0,0,0-.34-.8,4,4,0,0,0-.34-.22.09.09,0,0,1,0-.14m-1.13,6.63c-.5-.11-.9-.28-1.36-.34S7.94,47,7.74,47a1.1,1.1,0,0,1-.56-.17l-.42-.27c-.09,0-.39-.22-.32-.48a5.74,5.74,0,0,1,.33-.73,4.76,4.76,0,0,1,.34-.71c.23-.28,1-.81,1.12-1a4.51,4.51,0,0,1,.28-1,2.41,2.41,0,0,1,2.31-1.51c.39,0,1.32.12,1.08,1.09a1.84,1.84,0,0,1-.16.46,5.9,5.9,0,0,1-.68.91,1.52,1.52,0,0,1-1.2.52c-.09,0-.15,0-.19.13a2.19,2.19,0,0,1-.73,1,2.65,2.65,0,0,1-.7.43,4.23,4.23,0,0,1,.65.27c.44.2,1.13.59,1.44.7a3,3,0,0,0,.94.26,3.66,3.66,0,0,0,1-.2.89.89,0,0,1,.33-.06H13a.44.44,0,0,1,.24.14.7.7,0,0,0,.31.26.76.76,0,0,1,.26.09l.15.08a.1.1,0,0,1,0,.19.34.34,0,0,1-.23,0,1.39,1.39,0,0,0-.35,0c-.15,0-.2,0-.31.07s-.18.24-.64.14-.65-.22-.81-.22a2.06,2.06,0,0,1-1,.07M6.1,56.34a1.51,1.51,0,0,1-1.26-1.59,2.28,2.28,0,0,1,1.21-1.86,3.22,3.22,0,0,1,1.43-.17,6.91,6.91,0,0,1,1.61.3,4.1,4.1,0,0,0,1,0,5.07,5.07,0,0,0,.83-.16c.09,0,.2,0,.24.11s-.08.21-.17.28a1.57,1.57,0,0,1-.84.26,2.93,2.93,0,0,1-1-.09c-.29-.06-1.32-.29-1.61-.33a2.09,2.09,0,0,0-1.18.14,2.19,2.19,0,0,0-1,1.52,1.14,1.14,0,0,0,.41.9.71.71,0,0,0,.45.2.49.49,0,0,1,.37.09c.15.12,0,.26,0,.3s-.12.1-.42.06m1.67-1.07-.11.06a4,4,0,0,1-.75.3,1.09,1.09,0,0,1-.76-.18C6,55.33,6,54.94,6,54.71c.1-.49.88-1.46,1.43-1.36a12.26,12.26,0,0,1,1.43.33l.17,0h0c.2.06,1.24.36.6.88a3.09,3.09,0,0,1-.83.35,4,4,0,0,0-1.06.31m20.11-5.68A3.79,3.79,0,0,1,25.76,51c-.77.14-1.66.17-2.56.24l-2.66.19a16.2,16.2,0,0,0-2.64.28,5.15,5.15,0,0,0-1.14.49c-.06,0-.33.22-.68.47-.24.06-.35-.66-.21-1.05a1.71,1.71,0,0,0,.19-1,2.38,2.38,0,0,0-.27-1c0-.12,0-.25-.14-.29a.22.22,0,0,0-.28.15.44.44,0,0,0,0,.35,3.22,3.22,0,0,1,.14.87,1.78,1.78,0,0,1-.27.93.28.28,0,0,0-.06.22c0,.08,0,.84,0,1s0,.41-.1.51h0c-.17.14-.33.29-.48.43l-.05,0c-.11,0-.24-.4-.24-.54s0-.61,0-.82,0-.31,0-.43-.06-.3-.15-.16a1.86,1.86,0,0,0-.11.93c0,.52,0,.89,0,1a.89.89,0,0,1-.11.67l0,0-.09.1a3.84,3.84,0,0,0-.28.34c-.12.1-.27.17-.29-.1,0-.44-.05-.92-.1-1.37a9.24,9.24,0,0,1,0-1c0-.13-.09-.42-.18-.42s-.12.37-.11.57.09,1.9.07,2.51,0,.93-.25,1.1-.54.14-.54-.24a12.48,12.48,0,0,0,.06-1.71c-.06-.82,0-1.7,0-1.86s0-.23,0-.29-.15-.18-.19,0a1,1,0,0,0-.06.41c0,.18.12,1.51.12,1.75a8.89,8.89,0,0,1-.09,1.51c-.06.13-.1.19-.23.15s-.22-.11-.23-.36,0-.88,0-1.37,0-2.7-.07-3.3a1.51,1.51,0,0,1,0-.65.49.49,0,0,1,.14-.24A1,1,0,0,1,12,50c.12,0,.31.06.35.22a1.8,1.8,0,0,1,.11,1c-.1.3-.34.44-.33.54s.15.12.27,0a1.44,1.44,0,0,0,.46-.8,1.4,1.4,0,0,0-.13-.74c-.18-.26-.34-.31-.34-.4s.08-.59.24-.66a.6.6,0,0,1,.43,0,1,1,0,0,1,.66.94,3.8,3.8,0,0,1-.3,1.17.83.83,0,0,1-.25.38.2.2,0,0,0,0,.16.18.18,0,0,0,.05.08s.05,0,.08,0a1.6,1.6,0,0,0,.62-.87,3.16,3.16,0,0,0,.08-1,2.74,2.74,0,0,0-.11-.66.8.8,0,0,0-.26-.29,11.82,11.82,0,0,0,2,.28h.25c1,0,2.32-.39,3.31-.47s2.26-.15,3.37-.3c1.64-.23,3.27-.4,4.89-.69.66-.12,2-.49,1.91-.29A1.44,1.44,0,0,1,29,48c-.37.51-.72,1.08-1.14,1.57m1.22-1c-.13-.11,0-.3,0-.41a2.6,2.6,0,0,1,.55-.47c.06,0,.15,0,.15.09s-.62.9-.75.79m1.66-1.74a.25.25,0,0,1-.07-.32c.06-.06.35-.13.39,0s-.23.38-.32.35m3.34-1.61A98.42,98.42,0,0,1,21.79,47.8a9.88,9.88,0,0,1-2,.12c0-.09.29-.1.42-.12,1.14-.16,2.33-.3,3.43-.49,1.26-.22,2.53-.46,3.8-.71,2.5-.49,4.89-1.16,7.21-1.78.06,0,.29-.1.3.13s-.62.3-.82.34m5.67-6.43c.34-.28.93-.82,1.06-.78s.16.46,0,.58-.24.07-.34.11c-.53.22-.9,1.32-1.2,1.15s.25-.78.45-1.06m-2.94,1c.05-.34.7-.37,1.14-.3a4,4,0,0,1,1.35.73,5.37,5.37,0,0,0,.66.36,4.56,4.56,0,0,1,1,.39,2,2,0,0,1,.49.6c.11.57-.53.52-.79.28s-.14-.37-.32-.43-.51-.12-.71,0c0,.18.24.24.28.45a3.58,3.58,0,0,1-.07.47c0,.12.06.22,0,.3s-.38.48-.6.36.23-.37.22-.64a5.32,5.32,0,0,1-1.16.07c-.42-.07-.79-.52-1-.84s-.35-.36-.34-.64.46,0,.66-.09c.09-.39-.29-.38-.49-.52a.58.58,0,0,1-.28-.55M36.53,44c0-.15.23-.43.32-.5.43-.3,1.93-.45,2-.21s-.86.72-1.45.81c-.23,0-.87.12-.92-.1M21.36,67.48c0,.18-.19,1-.37.94s-.28-.41-.36-.57-.28-.43-.37-.65c.17,0,.26.11.45.13s.42-.06.55,0a.22.22,0,0,1,0,.08h0l0,.06m-13.83-6h0a1,1,0,0,1,.1-.16c.07-.1.16-.2.23-.31a3.42,3.42,0,0,0,.34-.58,11.58,11.58,0,0,0,.37-1.49h0l.06-.19a1,1,0,0,1,.19-.32l0,0h0a.45.45,0,0,1,.24-.15.29.29,0,0,1,.28.09,1.58,1.58,0,0,1,.17.86,2.29,2.29,0,0,1,0,.25h0a4.36,4.36,0,0,1,0,.45,5.36,5.36,0,0,1-.52,1.48c-.13.35-.24,1.24-.58,1.4s-.55-.23-.7-.52-.32-.43-.3-.66a.26.26,0,0,1,0-.11M10,58.66c-.26-.07-.35-.94.09-.84s.06.7-.09.84m-.83,3.5A17.64,17.64,0,0,1,10,59.84c.11-.23.17-.66.52-.62.23.29-.06.88-.19,1.27a14.06,14.06,0,0,1-1,2.38c0,.08-.18.43-.38.3s.07-.74.15-1m4.72-2.54A.36.36,0,0,1,14,59.5a1,1,0,0,1,.13.19s-.52,1-.65,1,.21-.75.37-1.06m2,2.17.08.05.06,0,.15.08h0l.31.16.11.24.24.59a2.4,2.4,0,0,1,.28.88,1.74,1.74,0,0,1-.8.09,12.72,12.72,0,0,1-2.31,0,5,5,0,0,1,1-2.77l.37.28c.17.12.34.25.53.36m1.19.54a1.91,1.91,0,0,0,.36.13l.14.3a1.71,1.71,0,0,1,.07.18h0a2.05,2.05,0,0,1,.17.74c-.35.09-.48-.31-.61-.55s-.14-.29-.2-.43-.13-.31-.18-.45l.24.08m2,1.1h0s0,0,0-.05h0l0,0v0a.14.14,0,0,1,0-.06h0l0,0h0s0,0,0,0v0l0-.05h0l0,0h0l0,0h0l0,0h0l0,0h0l0,0h.1l.05,0h0l0,0a2,2,0,0,1-.37.78.36.36,0,0,1-.26-.09s0-.08.05-.13a.14.14,0,0,1,0-.06m.83-.49,0,0,.14-.08h.05l0,0a3.67,3.67,0,0,1,.34,1.84h0a.35.35,0,0,1-.17-.17,3.17,3.17,0,0,1-.2-.42,3,3,0,0,1-.2-1,1.1,1.1,0,0,1,0-.18m.91,4c-.15.17-.56-.13-.58-.33a.26.26,0,0,1,.32-.3c.16,0,.41.46.26.63M20,64.8a1.33,1.33,0,0,1,.12.69c0,.29-.26.55-.28.83-.08-.17-.23-.32-.23-.49a1.67,1.67,0,0,1,.15-.45,2.87,2.87,0,0,0,.15-.84l.09.26m-.54,0a2.35,2.35,0,0,1-.75,0,1.57,1.57,0,0,1-.18-.79c.18-.16.58-.06.84-.05a1,1,0,0,1,.09.86m-.51-2v0a.56.56,0,0,1,0,.12v0l-.06.12h0l-.06.09a.54.54,0,0,1-.67.22c-.21-.06-.28-.31-.35-.56v0l0-.1v0a1,1,0,0,0,0-.1v0a.41.41,0,0,0,0-.09c.45.08.93.12,1.38.2,0,0,0,.08,0,.13m-.65,1.69c-.26.18-.5-.07-.8-.11a16.08,16.08,0,0,0-1.82,0c-.61,0-1.21,0-1.76,0v-.19c.78-.11,1.73,0,2.6,0A14.53,14.53,0,0,1,18,64.07a.34.34,0,0,1,.32.47M13.89,61a4.69,4.69,0,0,1,.41-.94c.17.25.31.54.49.79-.15.25-.4.78-.6,1.08a.32.32,0,0,1-.54.06,2,2,0,0,1,.24-1m0,3.84a.07.07,0,0,1,0-.06,28.72,28.72,0,0,1,3.52.15,1.13,1.13,0,0,1,.11.34c0,.13.15.26.15.35s-.23.44-.32.62c-.65,1.24-1.27,2.36-2,3.6a1.84,1.84,0,0,1-.38.54c-.21,0-.36-.47-.43-.64s-.2-.55-.28-.78a6.58,6.58,0,0,1-.47-1.65,10.2,10.2,0,0,1,0-2.47m1.55,5.45c.59-1.1,1.22-2.22,1.82-3.3.09-.15.2-.55.34-.6s.22,0,.24.08-.17.43-.26.61c-.57,1.15-1.17,2.19-1.82,3.32-.07.13-.2.51-.41.45s.06-.5.09-.56m.53.22c.48-1.1,1.18-2,1.7-3.07.22-.45.38-1.18.75-1.39s.36.18.47.4c.42.86.66,1.46,1.1,2.34.13.28.42.64.4,1A2.84,2.84,0,0,1,19.83,71a2.46,2.46,0,0,1-1.73,1.27,3.22,3.22,0,0,1-1.87-.3,1.07,1.07,0,0,1-.52-.77,2.71,2.71,0,0,1,.28-.69M19.43,67c-.07-.18-.41-.89,0-.84.15,0,.34.54.41.69.26.48.47.93.71,1.43.17.35.44.7.28,1.1-.21,0-.28-.21-.37-.34a12.09,12.09,0,0,1-1-2M13.59,59a.38.38,0,0,1-.58.1c-.1-.61.77-.62.58-.1M7.9,58.36a2.81,2.81,0,0,1,.86-1.09,1.44,1.44,0,0,1,.8-.15c1.09.1,1.78,1,2.87,1.09.27,0,.49-.08.82,0-.06.2-.35.25-.56.28a2.56,2.56,0,0,1-1.44-.28c-.62-.32-.86-.78-1.82-.64a1.92,1.92,0,0,0-.93.62,2.68,2.68,0,0,0-.25.51c-.05.13-.14.5-.3.47s-.13-.57,0-.77m-1,2A7,7,0,0,0,7,58.79a.09.09,0,0,1,.07-.08c.27.06.3.83.25,1.24a2,2,0,0,1-.43,1c-.33-.09-.07-.35,0-.61m.37,2.21a3.91,3.91,0,0,1-.32-.6,1.17,1.17,0,0,1,.38-.21,6.16,6.16,0,0,0,.33.56c.11.17.32.4.32.55a.28.28,0,0,1-.32.26c-.15,0-.31-.41-.39-.56m.86,1.87c-.37.11-.71-.08-1,0s-.26.22-.45.22c-.55,0-.51-.89,0-.93.19,0,.3.16.47.2.32.06,1.14-.2,1.16.25,0,.13-.05.15-.13.26M9,65a1,1,0,0,1-.54,0c-.29-.26,0-.73-.08-1.14,0-.23-.37-.34-.32-.58.07-.43.7.09.85.23s.31.4.5.48a1.76,1.76,0,0,0,.51,0l1,0a2,2,0,0,1,.95.09c.05.07,0,.15,0,.25a5.3,5.3,0,0,1-1.5,0,2.85,2.85,0,0,0-.84,0c-.22.07-.29.47-.56.58m2.15,4.69c-.23,0-.43-.56-.52-.72-.3-.55-.57-1.07-.86-1.64-.12-.23-.41-.66-.34-.88.23-.12.51.48.64.71.31.53.61,1.13,1,1.65.12.19.66.9.13.88m1-3.66a15.51,15.51,0,0,1-.26,2c-.05.34-.09.77-.32.79s-.51-.5-.66-.75c-.39-.63-.71-1.12-1.05-1.78a2,2,0,0,1-.33-1.07c.11-.47.83-.41,1.36-.43s1.11-.09,1.26.19a3.73,3.73,0,0,1,0,1.06m-.3-4.64c.07.39.18.68.24,1.09s.15,1,0,1.19a1,1,0,0,1-.5.17,12.33,12.33,0,0,1-1.76-.09c-.41-.41-.13-1.06.07-1.59s.47-1.16.73-1.84c.14-.38.25-.93.51-.88s.38.6.47.88a6.39,6.39,0,0,1,.26,1.07m10.49,7.32a6.67,6.67,0,0,1-1.11,2.74,7.82,7.82,0,0,1-2,1.83,4.3,4.3,0,0,1-.43.21c-.12.06-.41.2-.45,0s.37-.31.56-.43A13.16,13.16,0,0,0,20,72.29c.16-.14.46-.43.39-.54s-.35.17-.47.28a3.16,3.16,0,0,1-1.95,1,2.51,2.51,0,0,1-1.23-.13c-.07,0-.56-.22-.63-.08s.5.28.51.53-.54-.08-.71-.17A6,6,0,0,1,13.42,70c-.09-.2-.24-.61-.12-.69s.18.23.25.35c.33.61.75,1.27,1.13,1.86.15.24.48.69.58.61s-.42-.73-.64-1.12S14,70,14,69.82s.3.34.41.54a4.81,4.81,0,0,0,1.91,2,2.75,2.75,0,0,0,1.26.38,2.62,2.62,0,0,0,1.72-.66,7.59,7.59,0,0,0,2.23-3.7c.11-.31.22-.93.52-1,.49-.06.33.82.25,1.29M24.9,70c0-.19.32-.4.43-.54.4-.5.75-1.35,1.09-1.78a.57.57,0,0,1,.22-.17.29.29,0,0,1,.32.24c.05.24-.15.44-.22.66a1.43,1.43,0,0,1-.17.54c-.25.33-.83.56-.88,1,0,.23.13.39.09.6a.39.39,0,0,1-.35.3c-.24,0-.57-.54-.53-.86m0,3.38c-.13-.2.36-.87.78-.83a.76.76,0,0,1,.51.43c.07.46-1.16.6-1.29.4m2.12-.7A1,1,0,0,1,26.1,72c0-.21.37-.66.58-.66s.68,1.06.36,1.33m0-1.69c-.38-.1-.8-.54-.68-1a3.32,3.32,0,0,1,.51-.62s0-.06.06-.06a3.34,3.34,0,0,1,.58.23c.05.67-.31.93-.47,1.4m2.35,1.81c.13.31-.27.43-.62.35s-.46-.19-.45-.38c0,0,0,0,0,0h0v0c.08-.22.93-.21,1.05.1m-1-1.41c-.14.18-.28.41-.58.26-.28-.68.08-1.32.17-1.95.3,0,.61.06.9.11a2.35,2.35,0,0,1-.49,1.58M39,65.26c0-.22.48-.37.81-.28a.5.5,0,0,1,.35.22c.28.44-1,.58-1.16.2a.17.17,0,0,1,0-.14M50.62,63.9c.47,0,.91-.07,1.38-.07.11,0,.92-.12.88.2s-1,.33-1.29.36-.54,0-.79,0a5.23,5.23,0,0,1-1.12,0c-.11,0-.27-.13-.26-.26s.9-.22,1.2-.23m14.43-7.19c.14-.24,1,.21.85.58s-1-.35-.85-.58m-6.57-6.89a3,3,0,0,0,.3.19c.18.09.47.11.51.31s-.26.58-.4.7-.39.19-.35.35.6,0,.71,0a1,1,0,0,1,.69.2.87.87,0,0,1,.36.81A3,3,0,0,1,60,53.41c-.1.15-.4.48-.58.51s-.61-.22-.84-.34c-.56-.3-1-.48-1.59-.75a2,2,0,0,0-1.24-.26,5.88,5.88,0,0,0-.79.34,1.83,1.83,0,0,1-.84.3c-.32,0-.58-.47-.71-.83s-.12-.85-.21-1.18a4.18,4.18,0,0,1-.28-.82,2.67,2.67,0,0,1,.19-.71c.07-.28.07-.64.13-1a6.09,6.09,0,0,0,.09-1h0c0-.15,0-.32,0-.49A1.86,1.86,0,0,1,54,47a11.75,11.75,0,0,0,2.23-.45A13.08,13.08,0,0,0,57.54,46a13.1,13.1,0,0,1,1.22-.55c.27-.1.44.08.57.34,0,0,.05.11.07.17a5,5,0,0,1,.49,2.92c0,.31-.15.65-.36.75-.45.22-1.22-.21-1.31-.09s.15.2.26.26m-4.81-3.26c.56-.11,1.19-.18,1.81-.28.82-.13,2.14-.67,2.23-.6s-.24.21-.37.28a7.36,7.36,0,0,1-2.55.77c-.55.07-1.55.22-1.59.07s.31-.21.47-.24m8-3.05a9.86,9.86,0,0,1-1.45.82c-.2.1-.56.37-.82.3a.21.21,0,0,1-.1-.06l-.09-.18a1.93,1.93,0,0,1-.3-.86c0-.25.46-.44.75-.62a3.25,3.25,0,0,1,.9-.47,2.22,2.22,0,0,1,1.4.15.39.39,0,0,1,.23.3c0,.29-.35.5-.52.62m-1.78-4.16a10.1,10.1,0,0,1,1.64.6c.49.24.9.56,1.39.86.27.17.62.31.54.71,0,.21-.26.31-.46.43a1.19,1.19,0,0,1-.21.15c-.47.16-1-.19-1.33-.28s-.32-.53-.54-.71-.34-.13-.32-.28.21-.14.34-.13.73.29.79.19-.41-.35-.68-.47a11.7,11.7,0,0,1-1.18-.55c-.05-.16-.15-.43,0-.52M55,40.12a.75.75,0,0,1,.41-.34c.27.25.58,0,.79-.13.41.05.74-.07,1,.07.12.05.18.28.28.3s.21-.15.23-.2-.18-.36-.25-.36a.46.46,0,0,1-.3-.54c.13-.14.4-.05.58,0s.14-.25.26-.32c.29.12.54-.05.86-.07s.85.18.83.5a.37.37,0,0,1-.25.3c-.28.09-.7,0-.78.15s.66.4.9.79a2.08,2.08,0,0,1,.26,1.33,1.78,1.78,0,0,1-1.14,1,1.19,1.19,0,0,1-.34.13c-.52,0-.57-.5-.77-.84-.57.11-.19.55,0,.9.37.58.75,1.16,1.08,1.76h0a.52.52,0,0,1,.08.3c-.05.27-.91.48-1.18.56a19.38,19.38,0,0,1-4.27,1,.53.53,0,0,1-.25-.28c0-.12,0-.24-.07-.35h0a1.93,1.93,0,0,1,0-.34c.14-.32.44-.31.88-.43.27-.07.43-.24.7-.21a.28.28,0,0,1,.13,0l.13.1.34.2h0c.3.16.65.3.74.25s-.06-.34,0-.5c.26-.2.57.1.8,0s.22-.4.26-.69.22-.25.25-.41c.07-.33-.24-.74-.45-1a16.34,16.34,0,0,0-1.46-1.41c-.21-.2-.64-.55-.64-.78s.21-.33.3-.47m-1,.66c.15-.26.68.23,1,.48a12.93,12.93,0,0,1,1.36,1.31c.21.24.57.45.49.79-.22,0-.63,0-.86,0s-.14.35-.26.47c-.31,0-.48-.29-.7-.49s-.51-.37-.69-.56a.63.63,0,0,1-.21-.43c0-.21.33-.29.36-.49.08-.47-.61-.8-.45-1.06M54.12,44l.13.06c.11.49-.32.59-.73.71s-.59.28-.81.15l-.05,0a1.3,1.3,0,0,1-.08-.17c-.09-.2-.33-.62-.28-.78s.36-.17.58-.17a4.19,4.19,0,0,1,1.24.24m-4.48-4.21c.32,0,.52-.36.86-.36a1.19,1.19,0,0,1,.56.23c.17.13.22.36.4.43a4.34,4.34,0,0,0,.52.09,2.21,2.21,0,0,1,.56.34c.2.17.46.33.49.6,0,.47-.36.85-.58,1.12s-.34.52-.71.58A1.64,1.64,0,0,1,50.2,42a1,1,0,0,1-.13-.45c0-.25.24-.51.12-.59s-.27.12-.35.25a1.75,1.75,0,0,0,0,1,3.88,3.88,0,0,0,.69.93,8.92,8.92,0,0,1,.86.73,3,3,0,0,1,.5.85.66.66,0,0,1,0,.48c-.14.28-1,.48-1.37.57-1,.26-2.12.5-3.22.67a11.55,11.55,0,0,1-1.67.21c-.1,0-.11-.06-.1-.11.08-.25.15-.53.29-.55.3-.05.56.61.9.15,0-.2-.19-.25-.11-.45.16-.37.64.06.82.06a.83.83,0,0,0,.62-.45c0-.1,0-.24.07-.36a3.5,3.5,0,0,0,.19-.65,4.19,4.19,0,0,0-.26-1.39c-.14-.43-.54-.73-.45-1.31a2.91,2.91,0,0,1,.56-1c.09-.13.22-.27.32-.42a2.32,2.32,0,0,1,.3-.45c.21-.17.81-.36.84.1M44.7,46.13v-.08c0-.27.44-.31.6-.31a.16.16,0,0,1,.13.09.15.15,0,0,1,0,.11,1.11,1.11,0,0,1-.42.61c-.06,0-.19-.16-.33-.42m1.44.6c.75-.14,1.51-.21,2.28-.36a29.13,29.13,0,0,1,2.91-.65c.06.11-.36.24-.58.3a18.38,18.38,0,0,1-5,1c-.11,0-.31,0-.32-.08s.44-.18.66-.22m1.33-6.63a4.23,4.23,0,0,1,1.35-1.63c.16-.1.41.15.41.3s-.36.49-.49.64a7.65,7.65,0,0,0-1.35,2c-.71-.17-.18-.85.08-1.31m-2,1.87c.24,0,.52.3.6.2s-.27-.52-.37-.82c0-.12-.14-.24,0-.47s.65,0,.87.19A6.86,6.86,0,0,1,48,43.28a3.69,3.69,0,0,1,.13.49c0,.17,0,.43-.17.43s-.18-.36-.31-.36c-.34.18-.07.84-.43,1-.2.07-.35-.18-.38-.3s0-.62,0-.82-.31-.26-.52-.45-.3-.31-.45-.47a3.27,3.27,0,0,1-.43-.47c-.06-.12-.07-.24.07-.32m-1.63,2a6.56,6.56,0,0,0,1.2.23c.2.19.46.36.47.69a.63.63,0,0,1-.07.25.76.76,0,0,1-.08.11,3.28,3.28,0,0,1-.95.11.52.52,0,0,1-.22-.22s0,0,0,0a6.24,6.24,0,0,1-.51-1c0-.13.09-.16.17-.12m-5.41,2c1.43-.06,3.05-.13,4.4-.28.25,0,.53-.1.75-.1s.27,0,.28.15-.36.18-.45.19c-1.24.16-2.82.15-4.1.26-.43,0-1.37.12-1.4-.06s.36-.15.52-.16m7.06,6.72a1.51,1.51,0,0,1-.67,0c-1.17-.23-2.39-.75-3.54-.92a2.37,2.37,0,0,0-.88,0c-.3.07-.52.3-.9.34-.34-.37-.12-.88-.24-1.33-.06-.26-.28-.47-.36-.71a5.83,5.83,0,0,1-.15-.73,14.09,14.09,0,0,0-.41-2.27s0,0,0,0a.42.42,0,0,1,0-.22c.07-.29.75-.31,1.14-.34,1.38-.12,2.83-.25,4.07-.33a.7.7,0,0,1,.83.44.58.58,0,0,1,.05.14,5.11,5.11,0,0,1,.33,1.76c0,.66,0,1.4-.43,1.68a1.21,1.21,0,0,1-.78.13c-.13,0-.33-.1-.4,0s.21.17.32.21l.43.17c.29.11.64.18.9.3a1.72,1.72,0,0,1,.69.86,1.11,1.11,0,0,1,0,.84m.49-1a2.47,2.47,0,0,0-.34-.6c-.1-.14-.35-.38-.39-.56-.08-.37.17-.73.19-1.13,0-.6-.14-1.34-.15-1.89,0,0,0-.08,0-.12l0,0c.11-.21,1-.22,1.54-.3s1-.17,1.55-.28c1-.22,2-.54,3-.71a1.54,1.54,0,0,1,.64,0,.81.81,0,0,1,.37.32c0,.17.06.33.08.5a5.16,5.16,0,0,1,0,1.88c-.06.27-.12.55-.17.86-.08.5-.09,1-.51,1.14a3,3,0,0,1-1.63-.26c.1.69,1.12.55,1.71.78a1.06,1.06,0,0,1,.47.55.87.87,0,0,1,.09.8c-.42,0-.63-.32-.9-.47a3.29,3.29,0,0,0-1.18-.48,10.36,10.36,0,0,0-1,.13,4.86,4.86,0,0,0-.54,0,3.22,3.22,0,0,0-1.16.77c-.19.17-.75.84-1,.86a.65.65,0,0,1-.34-.13c-.13-.51-.09-1.12-.26-1.65m.52,3.18c0-.31-.23-.58-.18-.86s.44-.44.58-.54l.65-.47a3.77,3.77,0,0,1,1.33-.88,10.27,10.27,0,0,1,1.22-.06,2.18,2.18,0,0,1,1.44.49l.62.41c.46.29,1,.45,1.35.71a1.89,1.89,0,0,1,.35.32,1.69,1.69,0,0,1,.1.64,2.28,2.28,0,0,0,.28.71c.16.26.72.69.39.94-.17.13-.88,0-1.08-.13s-.41-.38-.34-.55.45-.09.54-.24-.2-.59-.32-.66-.6-.12-.78-.2-.5-.67-.81-.86c-.13-.07-.36-.1-.49-.17-.33-.17-.53-.5-.91-.45s-.44.41-.64.5a1.93,1.93,0,0,1-.84.12c-.47,0-.81-.06-1.09.24a2.14,2.14,0,0,0-.17.3,2.52,2.52,0,0,1-.65.75.58.58,0,0,1-.55-.06m5.72.17c.21-.14.36.15.52.28a1.25,1.25,0,0,0-.47,1c-.18,0-.4-.07-.56-.13a1.61,1.61,0,0,1,.51-1.16m-1.07.71c-.48.21-.91-.18-1.46-.22-.29,0-.6,0-.9,0a2.14,2.14,0,0,1-1.22-.43,1.31,1.31,0,0,1,.45-.55,1.88,1.88,0,0,1,.6-.39,3.68,3.68,0,0,1,.47,0,3.7,3.7,0,0,0,1.4-.39c.26-.14.42.21.58.37a4.07,4.07,0,0,0,.77.51c-.24.33-.3.9-.69,1.08m-5.64,1.54c.29.1.61.2.84.26s.2,0,.27.11a1.26,1.26,0,0,1-1.07.45,1.7,1.7,0,0,1-.53-.37c-.24-.18-.49-.27-.54-.58.21-.24.67,0,1,.13m-6.4-2.1a2.4,2.4,0,0,1,1.59-1.16c.2,0,.41,0,.62,0s.52-.22.76-.24a2.62,2.62,0,0,1,1.43.5c.09.08.16.26.26.38s.62.4.62.67-.14.22-.25.36-.15.27-.3.3a1.82,1.82,0,0,1-.67-.1c-.44-.1-.79-.2-1.27-.28a2.83,2.83,0,0,0-.68-.09c-.37.05-.61.4-.95.49a4.14,4.14,0,0,1-1.33.07c-.3-.34,0-.67.17-.88m-9.76,9a.84.84,0,0,1-.58,0c0-.06.15-.24.3-.25s.33.11.28.2m-2.87-2.71c.16-.44.42-1,.77-1.16a2.82,2.82,0,0,1,1.66-.09c.38.14.2,1,.1,1.61a4.86,4.86,0,0,1-1.53,2.43c-1.57.17-1.43-1.66-1-2.79m-2.34,3.15c-.07.28-.61.42-.93.3s-.56-.4-.49-.71a2,2,0,0,1,.19-.43c.13-.22.16-.49.43-.51s.33.23.47.47.4.55.33.88m4.1,1.76c-.23,0-.31-.43-.25-.56s.55-.22.62,0a.51.51,0,0,1-.37.54m1.41.46c-.15.28-.2.58-.4.61-.35,0-.67-.42-.53-.83a1.46,1.46,0,0,1,1-.88.29.29,0,0,1,.35.25c.06.4-.28.58-.42.85m2.6-1c-.61.11-.89-.5-1.27-.64-.65,0-1.23,0-1.8,0a6.22,6.22,0,0,1-1.78,0c-.28-.07-.51-.3-.92-.32s-1.42.14-1.76-.09-.28-.89-.24-1.41a4.06,4.06,0,0,0-1-3.29c-.05,0-.33-.28-.32-.45,0-.5.63-.1.84,0,.5.26,1.42.3,1.77.61s-.06,1.74-.1,2.57c0,.16,0,.42.05.68a2.07,2.07,0,0,0,0,.67c.11.27.73.36,1.16.39a18.17,18.17,0,0,0,2.87-.09c.25,0,.51,0,.73,0a2.28,2.28,0,0,1,1.16,0,2.15,2.15,0,0,1,.56.43c.13.11.39.34.39.58a.52.52,0,0,1-.41.42M34.61,67l-.1,0a0,0,0,0,0,0,0,.58.58,0,0,1-.42-.07.74.74,0,0,1-.35-.32.39.39,0,0,1,0-.37c.08-.26.3-.29.57-.3s.48.54.31,1m.52-1.64c0,.22-.69.34-1,.36s-1.24,0-1.12-.36c0-.19.83-.21,1.12-.22.12,0,1,0,1,.22m-2.4-1.61a10.85,10.85,0,0,0,1.39,0c.92,0,1.82-.08,2.75-.09a6.78,6.78,0,0,1,1.35,0c.28.05.67.4.58.68s-.43.17-.64,0-.44-.44-.95-.39c-.32,0-.69.17-1.11.21-.78.08-1.65.09-2.43.18-.6.06-1.2.23-1.58-.07s-.28-.87-.71-.88c-.22,0-.27.19-.39.3a.79.79,0,0,1-.45.24.92.92,0,0,1-.73-.62c0-.25.28-.68.41-1.1s.06-1.2.26-1.52a.72.72,0,0,1,1-.26,2.55,2.55,0,0,1,.37,1.93c0,.25-.21.41-.2.62,0,.43.69.71,1.12.78m1.65-3.65a6.5,6.5,0,0,0-.54.47,8.1,8.1,0,0,1-.62.73.86.86,0,0,1-.55.21c-.29,0-.49-.53-.61-.81s-.08-.37-.15-.56a3.23,3.23,0,0,1-.17-.53c0-.67.42-.82.84-1.1.26-.18.39-.38.69-.41s.32.17.47.32.5.5.79.76.34.29.34.4-.31.38-.49.52m7.17,2.36c-.14-.32-.87-.47-1-.88-.15-.68.56-.57.62-1.07-.72-.09-1.56.24-2.4.19a3.84,3.84,0,0,1-1.59-.39c-.23-.13-.93-.58-.88-1,0-.18.35-.38.56-.47a12.73,12.73,0,0,1,1.63-.49c.58-.15,1.15-.34,1.65-.45a1.84,1.84,0,0,1,1.36.28c.26.13.5.25.53.49a1.41,1.41,0,0,1-.23.84c-.13.22-.35.41-.35.66s.25.07.39.13c.43.19.65,1.14.64,1.85,0,.46,0,1.57-.49,1.56s-.31-.87-.47-1.24m1.6,2.88a5.73,5.73,0,0,0,1.55.14c.79.07,1.65,0,2.39.05a8,8,0,0,1,1.07.13c.29,0,.57-.07.75,0a.67.67,0,0,1,.36.83c-.28.09-.47-.31-.58-.29s-.55.33-1,.25-.65-.39-1-.45c-.54-.08-1.22,0-1.87-.07-.32,0-.64,0-1,0a6.11,6.11,0,0,0-.9-.08c-.21,0-.38.2-.58.17-.45-.07-.48-1.26-.21-1.41s.71.61,1,.75m1.57-6.4a2.13,2.13,0,0,0-.4-.39,3.06,3.06,0,0,0-.82-.62c-.38-.15-.78-.15-1.14-.28s-.77-.58-1.46-.56a6.37,6.37,0,0,0-1.3.26,17.68,17.68,0,0,0-2.32.82,3.23,3.23,0,0,1-1.5.47c-.27,0-.88-.16-.88-.41s.63-.21,1-.28c.65-.13,1.06-.68,1.68-1a10.76,10.76,0,0,1,2-.43A13.08,13.08,0,0,1,41.61,56a3.1,3.1,0,0,1,1.18.28,2.06,2.06,0,0,1,.58.69,4.09,4.09,0,0,0,.56.7c.14.12.35.18.49.3s.22.26.35.37a8.26,8.26,0,0,1,1.13,1,1.42,1.42,0,0,1,.35,1,1.32,1.32,0,0,1-1-.1c-.4-.25-.31-.87-.54-1.29m1.88,3c-.07,0-1.24-.46-1.18-.79s1.24-.4,1.32.21a.91.91,0,0,1-.14.58M46,59.05c-.12-.13-.32-.23-.34-.43s.36-.12.58-.09a2.49,2.49,0,0,1,1.61.93,3.26,3.26,0,0,1,.11.88c0,.28.11.57.13.79,0,.38,0,1-.39,1s-.34-.49-.34-.86c0-1.14-.75-1.61-1.36-2.21m2.17,5.51c-.05.39-.78.16-.84-.08a1.28,1.28,0,0,1,.07-.35c0-.3-.1-.64,0-.92.09-.49.84-.3.77.32,0,.19-.31.43-.32.56s.4.19.36.47M50,58.49c0,.15-.83.3-1.16.32a2.39,2.39,0,0,1-1.09-.19c-.18-.06-.6-.15-.62-.3s.51-.33.64-.37a3.36,3.36,0,0,1,.86-.17,2.67,2.67,0,0,1,.79.26c.16.07.64.25.58.45m2.26.49a12.71,12.71,0,0,1,.6,1.29.8.8,0,0,1-.93,0c-.17-.17-.15-.49-.28-.75a3.88,3.88,0,0,0-.62-.71,2.6,2.6,0,0,1-.53-1.54c-.2-.27-.45,0-.78.06a1.72,1.72,0,0,1-.83-.19c-.22-.1-.46-.37-.65-.37s-.27.25-.32.43-.39.32-.6.26-.18-.34-.23-.62-.18-.39-.13-.56.37-.08.58-.09c.6,0,1.27-.24,1.8-.23.37,0,.62.25.94.3a11.41,11.41,0,0,1,1.46,2.08c.15.23.36.41.52.64m4.25-.4c.17.22.36.59.23.78s-.91-.11-1.05-.61a2,2,0,0,0-.15-.54c-.13-.18-.61-.2-.95-.23-1.07-.13-2.07-.16-3.06-.37a4.85,4.85,0,0,1-.58-1c.11-.15.22-.19.51-.17a10.29,10.29,0,0,1,2.88.71,5.18,5.18,0,0,1,1.2.6,5.67,5.67,0,0,1,1,.82m3.11-2.06a7.68,7.68,0,0,0-2.21,0c-.24.1-.39.4-.63.56s-.62.24-.92.4c-.3-.12-.52-.32-.81-.45-.12-.29,0-.84-.09-1.2s-.34-.45-.34-.66c0-.47,1-.77,1.41-.8s1.74.31.86.56c-.15,0-.32,0-.34.17s.33.25.6.24c.47,0,.6-.27,1.07-.22a2.53,2.53,0,0,1,1,.37,2.35,2.35,0,0,1,.38.64.71.71,0,0,1,0,.37m-.13-1.18c-.54-.57-1.53-.63-2.1-1.21,0-.11.09-.16,0-.34s-.77-.26-1.19-.13c-.2.07-.41.23-.65.32s-.49.17-.68.28-.39.39-.6.48c0-.19,0-.37-.09-.58s-.15-.28-.13-.39.39-.21.54-.28c.39-.18.73-.58,1.24-.56a4,4,0,0,1,2,.63A23.94,23.94,0,0,1,60,54.65c.26.16.82.53.84.77s-.3.53-.54.54c-.42,0-.58-.4-.79-.62m.56,1.32c.09-.34,1.26-.22,1.26.22,0,.64-1.35.12-1.26-.22m2.12-1.28c.18,0,.44,0,.49.13s-.14.57-.23.68a1,1,0,0,1-.88.28.81.81,0,0,1-.07-.75,1.6,1.6,0,0,1,.69-.34m2.09-2.65c-.05.3-.72.35-1.08.48s-.4.45-.62.77-.75.94-1.09.81-.28-.46-.2-.7.71-.57.94-.79c.46-.43.69-.95,1.46-1,.38,0,.64.16.59.46m4.31,1.65c-.25.3-1,.11-1-.24s1.08-.33,1,.24"/><polygon class="cls-2" points="1513.15 31.52 1520.52 31.52 1521.93 32.93 1521.93 50.78 1527.05 50.78 1527.05 31.42 1522.95 27.23 1513.2 27.23 1510.13 30.44 1510.13 27.23 1505.3 27.23 1505.3 50.78 1510.42 50.78 1510.42 34.3 1513.15 31.52"/><path class="cls-2" d="M1542.5,32.63l1.42-1.4H1553l1.36,1.4v4.15H1542.5Zm14.88,14.14h-13.46l-1.42-1.36V40.73h17V31.42l-4.1-4.21h-14l-4.09,4.21V46.59l4.09,4.2h15.9Z"/><polygon class="cls-2" points="1582.84 46.49 1575.42 46.49 1574.06 45.08 1574.06 27.23 1568.93 27.23 1568.93 46.59 1573.03 50.78 1582.74 50.78 1585.86 47.61 1585.86 50.78 1590.68 50.78 1590.68 27.23 1585.56 27.23 1585.56 43.76 1582.84 46.49"/><polygon class="cls-2" points="1616.04 27.23 1610.14 27.23 1606.73 30.74 1606.73 27.23 1601.9 27.23 1601.9 50.78 1607.02 50.78 1607.02 34.84 1609.75 32.11 1616.04 32.11 1616.04 27.23"/><path class="cls-2" d="M1629.35,31.52h9.13l1.36,1.42V45.08l-1.36,1.42h-9.13L1628,45.08V32.93Zm-6.54-.1V46.59l4.1,4.2h14l4.1-4.2V31.42l-4.1-4.21h-14Z"/><path class="cls-2" d="M1514.29,80.86,1512.83,79l2.62-12.44,2.3-1.9h8.15l2.43,3.16-2.1,9.94-3.75,3.12Zm19.41-19.55h-3.76l-.73,3.42-2.58-3.42h-10.05l-4.83,4-3.12,14.83,3.12,4.05h10l3.75-3.15-1.75,8.14-2.24,1.9h-13.37l-.68,3.37h15.21l4.83-4Z"/><path class="cls-2" d="M1546.51,66.28l2.29-1.89h9.8l1.41,1.89-.92,4.5h-13.55Zm12.29,14.79h-13.51l-1.51-1.86,1.12-5.36h17.5l1.8-8.55-3.07-4h-13.55l-4.83,4-3.12,14.84,3.12,4h15.36Z"/><path class="cls-2" d="M1575.08,81.07l-1.46-1.86.88-4.24,2.23-1.91h11.62l-1,4.88-3.81,3.13Zm11.17,3.11H1590l4-18.88-3.08-4h-15.27l-.68,3.08h13.42l1.46,1.89L1589,70h-13.27L1570.93,74l-1.31,6.1,3.12,4h10.12l4.05-3.36Z"/><polygon class="cls-2" points="1619.5 61.31 1613.7 61.31 1609.36 64.92 1610.14 61.31 1606.38 61.31 1601.56 84.18 1605.51 84.18 1608.87 68.19 1612.68 65.07 1618.72 65.07 1619.5 61.31"/><polygon class="cls-2" points="1621.21 84.18 1635.94 84.18 1640.71 80.14 1641.83 74.77 1638.77 70.72 1629.89 70.72 1628.43 68.82 1628.96 66.28 1631.25 64.39 1642.18 64.39 1642.81 61.31 1629.99 61.31 1625.16 65.31 1624.18 70.09 1627.25 74.09 1636.13 74.09 1637.6 75.99 1636.91 79.21 1634.67 81.07 1621.84 81.07 1621.21 84.18"/><path class="cls-3" d="M1406,18.91a8.47,8.47,0,1,1-8.47-8.47h0a8.47,8.47,0,0,1,8.46,8.47Z"/><path class="cls-3" d="M1477.94,18.84a8.47,8.47,0,1,1-8.47-8.47,8.47,8.47,0,0,1,8.47,8.47Z"/><path class="cls-3" d="M1466,18.84a8.47,8.47,0,1,1-8.47-8.47,8.47,8.47,0,0,1,8.47,8.47Z"/><path class="cls-3" d="M1441.94,54.93a8.47,8.47,0,1,1-8.47-8.47,8.47,8.47,0,0,1,8.47,8.47Z"/><path class="cls-3" d="M1477.94,30.82a8.47,8.47,0,1,1-8.47-8.47,8.47,8.47,0,0,1,8.47,8.47Z"/><path class="cls-3" d="M1389,90.84a8.47,8.47,0,1,1,8.46,8.49,8.47,8.47,0,0,1-8.46-8.49Z"/><path class="cls-3" d="M1401,90.84a8.47,8.47,0,1,1,8.44,8.49,8.47,8.47,0,0,1-8.44-8.49Z"/><path class="cls-3" d="M1461,91a8.47,8.47,0,1,1,8.46,8.46A8.47,8.47,0,0,1,1461,91Z"/><path class="cls-3" d="M1389,78.86a8.47,8.47,0,1,1,8.46,8.47,8.47,8.47,0,0,1-8.46-8.47Z"/><path class="cls-4" d="M1477.94,18.85v72a8.49,8.49,0,0,1-8.47,8.51h-72a8.48,8.48,0,0,1-8.47-8.48h0v-72a8.48,8.48,0,0,1,8.47-8.48h72a8.49,8.49,0,0,1,8.49,8.48h0"/><rect class="cls-5" x="1389.01" y="10.37" width="88.93" height="88.93" rx="8.48"/><path class="cls-6" d="M1463.46,24.85l-60,60a8.47,8.47,0,0,1-14.47-6v-60a8.48,8.48,0,0,1,8.47-8.48h60a8.48,8.48,0,0,1,6,14.48"/><path class="cls-5" d="M1463.46,24.85l-60,60a8.47,8.47,0,0,1-14.47-6v-60a8.48,8.48,0,0,1,8.47-8.48h60A8.48,8.48,0,0,1,1463.46,24.85Z"/><path class="cls-7" d="M1477.94,30.85v60a8.49,8.49,0,0,1-8.47,8.51h-60a8.48,8.48,0,0,1-6-14.48l60-60a8.48,8.48,0,0,1,14.48,6"/><path class="cls-5" d="M1477.94,30.85v60a8.49,8.49,0,0,1-8.47,8.51h-60a8.48,8.48,0,0,1-6-14.48l60-60A8.48,8.48,0,0,1,1477.94,30.85Z"/><path class="cls-4" d="M1433.47,80.07a25.14,25.14,0,1,1,25.15-25.14h0a25.17,25.17,0,0,1-25.15,25.14"/><path class="cls-8" d="M1433.47,32.76a22.17,22.17,0,1,1-22.17,22.17h0a22.18,22.18,0,0,1,22.17-22.17m0-6a28.13,28.13,0,1,0,28.12,28.13h0a28.16,28.16,0,0,0-28.12-28.14"/><path class="cls-1" d="M657.1,72.21h10.21l-5-14.22h-.21Zm-5.64,3.69,10.42-27.14h.65L673,75.9ZM646,79.59h32.35L662.75,38.77h-1.09Zm-5.43,3.69,20.84-53.62H663l20.85,53.62ZM635,87h54.49l-25.84-64.7h-2.82Zm-6,3.7L658.62,18.8h7.17l29.63,71.87Zm-5.86,3.69h78.16L668.17,14.89H656.23Zm-4.34,3.69V94.36L654,11.2h16.5l35.18,83.16v3.69Z"/><path class="cls-1" d="M909.72,90.23a5,5,0,1,1,10,0c0,3-1.86,5.16-5,5.16s-5-2.16-5-5.16m-3.29,0c0,5,3.49,8.18,8.31,8.18s8.32-3.19,8.32-8.18-3.5-8.18-8.32-8.18-8.31,3.3-8.31,8.18M892.8,85.54h4.65V98.05h3.33V85.54h5.32V82.42h-5.32v-8l-3.33,2.66v5.32H892.8Zm-2.16-3.12h-3.06V93.06l-7.15-10.64H876.5V98.05h3.06V86.81l7.58,11.24h3.5ZM867,85a3.62,3.62,0,0,1,3.86,2.79l-8.28,1.46A4.14,4.14,0,0,1,867,85m7.32,5.15c0-4.95-3.33-8-7.32-8-4.49,0-7.64,3.32-7.64,8.14s3.32,8.15,7.64,8.15a7.74,7.74,0,0,0,7-3.66l-2.33-1.83a4.85,4.85,0,0,1-4.49,2.5,4.25,4.25,0,0,1-4.36-3.26Zm-21.95-3,2.9,10.94h3.25l-4.32-15.63h-3.66l-3,11.2-3-11.2h-3.66l-4.32,15.63h3.26l2.89-10.94,3,10.94h3.66ZM830.42,76.8a2.33,2.33,0,1,0,2.33-2.3,2.26,2.26,0,0,0-2.33,2.3m.66,21.25h3.33V82.42h-3.33Zm-13.9-7.82a4.77,4.77,0,0,1,4.93-5.12,4.23,4.23,0,0,1,4,2.7l2.59-1.87A7.47,7.47,0,0,0,822,82.09a8.16,8.16,0,1,0,6.95,12.47l-2.46-2a4.52,4.52,0,0,1-4.35,2.8c-3.16,0-4.93-2.33-4.93-5.16M804.78,85a3.62,3.62,0,0,1,3.86,2.79l-8.28,1.46A4.13,4.13,0,0,1,804.78,85m7.32,5.15c0-4.95-3.33-8-7.32-8-4.49,0-7.65,3.32-7.65,8.14s3.33,8.15,7.65,8.15a7.72,7.72,0,0,0,7-3.66l-2.32-1.83a4.85,4.85,0,0,1-4.49,2.5,4.25,4.25,0,0,1-4.36-3.26Zm-31.26,8h3.49l7.48-11.24V98.05H795V82.42h-4L784.1,93.09V73.77h-3.26ZM778,82.42h-3V93.06l-7.15-10.64h-3.93V98.05h3.06V86.81l7.58,11.24H778Zm-29.62,7.81a5,5,0,1,1,10,0c0,3-1.86,5.16-5,5.16s-5-2.16-5-5.16m-3.29,0c0,5,3.49,8.18,8.31,8.18s8.31-3.19,8.31-8.18-3.49-8.18-8.31-8.18-8.31,3.3-8.31,8.18M721,85.91c0,7.48,5.32,12.7,12.63,12.7a12.34,12.34,0,0,0,10-4.72l-2.33-2.49a9,9,0,0,1-7.48,3.69c-5.58,0-9.28-3.86-9.28-9.18a8.77,8.77,0,0,1,9.11-9.18,8.66,8.66,0,0,1,7.32,3.69l2.33-2.49a12.22,12.22,0,0,0-9.81-4.69c-7.15,0-12.47,5.19-12.47,12.67"/><path class="cls-1" d="M880.63,51.15h-3.06V61.79l-7.15-10.64h-3.93V66.78h3.06V55.54l7.59,11.24h3.49Zm-20,7.81c0,3.16-1.83,5.16-4.83,5.16-3.19,0-4.92-2.33-4.92-5.16s1.77-5.15,4.92-5.15,4.83,2,4.83,5.15m3-7.81h-3.29v1.33c0,.17-.2.17-.2.17a6.64,6.64,0,0,0-4.82-1.83c-4.43,0-7.65,3.32-7.65,8.14s3.22,8.15,7.65,8.15a6.54,6.54,0,0,0,4.82-1.86.2.2,0,0,1,.2.2v1.33h3.29Zm-22.45-5.62a2.33,2.33,0,1,0,2.33-2.29,2.27,2.27,0,0,0-2.33,2.29m.67,21.25h3.32V51.15h-3.32Zm-14.33-9.31v-15h-3.29V66.78h3.29V60L835,66.78h4.43l-8.78-8.18,8.61-7.45h-4.46Zm-6.45-6.32h-3.06V61.79L810.9,51.15H807V66.78h3V55.54l7.59,11.24h3.49Zm-24,2.53A3.62,3.62,0,0,1,801,56.47l-8.28,1.46a4.14,4.14,0,0,1,4.42-4.25m7.32,5.15c0-4.95-3.33-8-7.32-8-4.49,0-7.64,3.32-7.64,8.14s3.32,8.15,7.64,8.15a7.74,7.74,0,0,0,7-3.66l-2.33-1.83a4.84,4.84,0,0,1-4.49,2.5,4.25,4.25,0,0,1-4.36-3.26ZM774.36,59c0-3.15,1.83-5.15,4.82-5.15,3.16,0,4.92,2.33,4.92,5.15s-1.73,5.16-4.92,5.16c-3,0-4.82-2-4.82-5.16m-3,7.82h3.3V65.45a.2.2,0,0,1,.2-.2,6.51,6.51,0,0,0,4.82,1.86c4.32,0,7.64-3.32,7.64-8.15s-3.32-8.14-7.64-8.14a6.61,6.61,0,0,0-4.82,1.83s-.2,0-.2-.17v-10h-3.3Zm-3.15-24.27h-3.33V66.78h3.33Zm-6.49,8.64h-3.26V63.62h-7.11V51.15h-3.26V66.78h13.63Zm-18.25-4.52A11.69,11.69,0,0,0,733.62,42C726.31,42,721,47.16,721,54.64a12.26,12.26,0,0,0,12.63,12.67,11.67,11.67,0,0,0,12-11l-.7-3.25H729.3v3.42h12.9C741.87,61,738.61,64,733.46,64c-5.49,0-9-3.75-9-9.27s3.52-9.38,9-9.38A9,9,0,0,1,741.11,49Z"/><path class="cls-1" d="M870.65,19.88H859V23l8,9.38h-8v3.12h12V32.39L863,23h7.65ZM853.2,27.7c0,3.16-1.83,5.15-4.83,5.15-3.19,0-4.92-2.33-4.92-5.15s1.76-5.16,4.92-5.16c3,0,4.83,2,4.83,5.16m3-7.82H852.9v1.33c0,.17-.2.17-.2.17a6.69,6.69,0,0,0-4.83-1.83c-4.42,0-7.64,3.33-7.64,8.15s3.22,8.14,7.64,8.14A6.55,6.55,0,0,0,852.7,34a.2.2,0,0,1,.2.2v1.33h3.29Zm-22.11-5.62A2.33,2.33,0,1,0,836.4,12a2.26,2.26,0,0,0-2.32,2.29m.66,21.25h3.33V19.88h-3.33Zm-8.31-10.94,2.89,10.94h3.26l-4.32-15.63H824.6l-3,11.21-3-11.21H815l-4.33,15.63h3.26l2.9-10.94,3,10.94h3.66Zm-24-2.16a3.62,3.62,0,0,1,3.86,2.79L798,26.67a4.14,4.14,0,0,1,4.42-4.26m7.32,5.15c0-4.95-3.33-8-7.32-8-4.48,0-7.64,3.33-7.64,8.15s3.32,8.14,7.64,8.14a7.75,7.75,0,0,0,7-3.65l-2.33-1.83a4.85,4.85,0,0,1-4.49,2.49,4.24,4.24,0,0,1-4.35-3.26Zm-20.12.14c0,3.16-1.83,5.15-4.82,5.15-3.19,0-4.92-2.33-4.92-5.15s1.76-5.16,4.92-5.16c3,0,4.82,2,4.82,5.16m3-16.46h-3.3v10c0,.17-.2.17-.2.17a6.65,6.65,0,0,0-4.82-1.83c-4.32,0-7.65,3.33-7.65,8.15s3.33,8.14,7.65,8.14A6.51,6.51,0,0,0,789.15,34a.2.2,0,0,1,.2.2v1.33h3.3ZM771.53,27.7c0,3.16-1.83,5.15-4.82,5.15-3.19,0-4.92-2.33-4.92-5.15s1.76-5.16,4.92-5.16c3,0,4.82,2,4.82,5.16m3-7.82h-3.29v1.33c0,.17-.2.17-.2.17a6.65,6.65,0,0,0-4.82-1.83c-4.42,0-7.65,3.33-7.65,8.15s3.23,8.14,7.65,8.14A6.51,6.51,0,0,0,771,34a.2.2,0,0,1,.2.2v1.33h3.29ZM745,27.7c0-2.83,1.76-5.12,4.92-5.12a4.22,4.22,0,0,1,4,2.69l2.59-1.86a7.46,7.46,0,0,0-6.75-3.86,7.83,7.83,0,0,0-8,8.15,8.07,8.07,0,0,0,15,4.32l-2.46-2a4.52,4.52,0,0,1-4.35,2.79c-3.16,0-4.92-2.33-4.92-5.15m-4.39,7.81-8.15-24.27H728.8l-8.14,24.27Zm-15.33-3.46,5.35-16,5.32,16Z"/><path class="cls-9" d="M1017.05,56.62a14.5,14.5,0,1,0-14.49-14.5,14.5,14.5,0,0,0,14.49,14.5"/><path class="cls-10" d="M1017.05,56.62a14.5,14.5,0,1,0-14.49-14.5,14.5,14.5,0,0,0,14.49,14.5"/><path class="cls-1" d="M1060.55,27.62a14.47,14.47,0,0,1,10.25,4.25l10.25-10.25a29,29,0,0,0-49.5,20.5v14.5l6,6a29.22,29.22,0,0,1-6,4.58V97.7h14.5V83.2a14.5,14.5,0,0,1,14.5-14.5h6.28V56.62h-6.28a14.5,14.5,0,0,1,0-29"/><path class="cls-11" d="M1027.31,52.37a14.5,14.5,0,1,1,0-20.5l10.25-10.25a28.9,28.9,0,1,0,0,41l-6-6Z"/><path class="cls-1" d="M1136,49h4.26v8.09h.09a5.47,5.47,0,0,1,4.54-2.59c4.53,0,5.68,2.55,5.68,6.4v9.55h-4.27V61.68c0-2.55-.75-3.82-2.73-3.82-2.31,0-3.31,1.29-3.31,4.45v8.14H1136Z"/><path class="cls-1" d="M1153.43,59.7c.24-4,3.81-5.2,7.3-5.2,3.09,0,6.82.69,6.82,4.41V67a8,8,0,0,0,.54,3.45h-4.33a6.34,6.34,0,0,1-.3-1.5,7.12,7.12,0,0,1-5.23,1.92c-2.94,0-5.28-1.47-5.28-4.66,0-3.51,2.64-4.35,5.28-4.71s5-.3,5-2-1.26-2.11-2.76-2.11-2.67.66-2.82,2.35Zm9.85,3.15c-.72.63-2.22.66-3.54.9s-2.53.72-2.53,2.28,1.23,2,2.62,2c3.33,0,3.45-2.65,3.45-3.58Z"/><path class="cls-1" d="M1170.82,54.92h4V57h.06a5.63,5.63,0,0,1,4.75-2.52,4.6,4.6,0,0,1,4.54,2.59,5.62,5.62,0,0,1,4.68-2.59c3.3,0,5.68,1.53,5.68,5.56V70.45h-4.27v-8.8c0-2.07-.18-3.79-2.61-3.79s-2.85,2-2.85,3.94v8.65h-4.27V61.74c0-1.8.12-3.88-2.58-3.88-.84,0-2.89.54-2.89,3.58v9h-4.26Z"/><path class="cls-1" d="M1197.76,54.92h4v2h.06a5.19,5.19,0,0,1,4.63-2.4c4.86,0,7.06,3.93,7.06,8.35,0,4.15-2.29,8-6.82,8a5.54,5.54,0,0,1-4.66-2.34h0v7.39h-4.27Zm11.53,7.81c0-2.46-1-5-3.72-5s-3.7,2.49-3.7,5,1,4.93,3.73,4.93,3.69-2.41,3.69-4.93"/><path class="cls-1" d="M1215.9,59.7c.24-4,3.82-5.2,7.3-5.2,3.09,0,6.82.69,6.82,4.41V67a8,8,0,0,0,.54,3.45h-4.33a6.34,6.34,0,0,1-.3-1.5,7.11,7.11,0,0,1-5.22,1.92c-3,0-5.29-1.47-5.29-4.66,0-3.51,2.64-4.35,5.29-4.71s5-.3,5-2-1.26-2.11-2.76-2.11-2.67.66-2.82,2.35Zm9.85,3.15c-.72.63-2.22.66-3.54.9s-2.52.72-2.52,2.28,1.23,2,2.61,2c3.33,0,3.45-2.65,3.45-3.58Z"/><rect class="cls-1" x="1233.29" y="49" width="4.27" height="21.44"/><path class="cls-1" d="M1245.15,52.52h-4.26V49h4.26Zm-4.26,2.4h4.26V70.45h-4.26Z"/><path class="cls-1" d="M1248.49,54.92h4V57h.06a5.61,5.61,0,0,1,4.75-2.52,4.58,4.58,0,0,1,4.53,2.59,5.62,5.62,0,0,1,4.69-2.59c3.3,0,5.67,1.53,5.67,5.56V70.45H1268v-8.8c0-2.07-.18-3.79-2.61-3.79s-2.86,2-2.86,3.94v8.65h-4.26V61.74c0-1.8.12-3.88-2.58-3.88-.85,0-2.89.54-2.89,3.58v9h-4.26Z"/><path class="cls-1" d="M1275.25,59.7c.24-4,3.81-5.2,7.29-5.2,3.1,0,6.82.69,6.82,4.41V67a8,8,0,0,0,.54,3.45h-4.32a6.34,6.34,0,0,1-.3-1.5,7.12,7.12,0,0,1-5.23,1.92c-2.94,0-5.28-1.47-5.28-4.66,0-3.51,2.64-4.35,5.28-4.71s5-.3,5-2-1.26-2.11-2.77-2.11-2.67.66-2.82,2.35Zm9.85,3.15c-.72.63-2.22.66-3.54.9S1279,64.47,1279,66s1.23,2,2.62,2c3.33,0,3.45-2.65,3.45-3.58Z"/><path class="cls-1" d="M1307.08,70.45h-4V68.29h-.09a5.53,5.53,0,0,1-4.74,2.58c-4.54,0-5.68-2.55-5.68-6.4V54.92h4.26v8.77c0,2.55.75,3.81,2.74,3.81,2.31,0,3.3-1.29,3.3-4.44V54.92h4.26Z"/><path class="cls-1" d="M1321.3,68.47h-.06a5.15,5.15,0,0,1-4.71,2.4c-4.69,0-7-4-7-8.32s2.31-8,6.87-8a5.34,5.34,0,0,1,4.6,2.31h.06V49h4.26V70.45h-4Zm-3.73-10.75c-2.79,0-3.75,2.4-3.75,5s1.11,5,3.75,5c2.83,0,3.67-2.47,3.67-5s-.9-4.92-3.67-4.92"/><path class="cls-1" d="M1129,62.17c-.53,2.79-2,5-5.32,5-4.29,0-5.5-3.65-5.5-7.36,0-3.89,1.21-7.55,5.5-7.55,2.91,0,4.33,1.64,5,4h4.32c-.57-4.91-4.3-7.66-9-7.66-6.59,0-10.26,4.92-10.26,11.24,0,6.13,3.67,11.05,10.26,11.05,5.21,0,8.68-3.4,9.16-8.7Z"/><path class="cls-1" d="M1183.38,23.78c.24-4,3.81-5.2,7.29-5.2,3.1,0,6.82.69,6.82,4.42v8.08a8,8,0,0,0,.54,3.45h-4.32a6.34,6.34,0,0,1-.3-1.5,7.14,7.14,0,0,1-5.23,1.92c-2.94,0-5.28-1.47-5.28-4.65,0-3.52,2.64-4.36,5.28-4.72s5-.3,5-2-1.26-2.1-2.77-2.1-2.67.66-2.82,2.34Zm9.85,3.15c-.72.63-2.23.66-3.55.9s-2.52.72-2.52,2.29,1.23,2,2.61,2c3.34,0,3.46-2.64,3.46-3.58Z"/><path class="cls-1" d="M1217.44,23.78c.24-4,3.81-5.2,7.3-5.2,3.09,0,6.81.69,6.81,4.42v8.08a8,8,0,0,0,.54,3.45h-4.32a6.34,6.34,0,0,1-.3-1.5,7.14,7.14,0,0,1-5.23,1.92c-2.94,0-5.28-1.47-5.28-4.65,0-3.52,2.64-4.36,5.28-4.72s5-.3,5-2-1.26-2.1-2.76-2.1-2.68.66-2.83,2.34Zm9.85,3.15c-.72.63-2.22.66-3.55.9s-2.52.72-2.52,2.29,1.23,2,2.61,2c3.34,0,3.46-2.64,3.46-3.58Z"/><path class="cls-1" d="M1144.61,34.53h-4.06V32.37h-.09a5.53,5.53,0,0,1-4.74,2.58c-4.54,0-5.68-2.55-5.68-6.39V19h4.27v8.77c0,2.56.75,3.82,2.73,3.82,2.31,0,3.3-1.29,3.3-4.45V19h4.27Z"/><path class="cls-1" d="M1176.44,32.55h-.06a5.15,5.15,0,0,1-4.71,2.4c-4.69,0-7-4-7-8.32s2.31-8,6.88-8a5.34,5.34,0,0,1,4.59,2.31h.06v-7.8h4.27V34.53h-4.06Zm-3.72-10.75c-2.79,0-3.76,2.4-3.76,4.95s1.12,5,3.76,5c2.82,0,3.66-2.46,3.66-5s-.9-4.92-3.66-4.92"/><polygon class="cls-1" points="1113.84 13.09 1113.84 34.53 1118.11 34.53 1118.11 25.67 1126.69 25.67 1126.69 22.01 1118.11 22.01 1118.11 16.75 1128.07 16.75 1128.07 13.09 1113.84 13.09"/><path class="cls-1" d="M1147.7,19h4.06v2.17h.09a5.52,5.52,0,0,1,4.74-2.59c4.54,0,5.68,2.56,5.68,6.4v9.55H1158V25.76c0-2.55-.75-3.81-2.73-3.81-2.31,0-3.3,1.29-3.3,4.44v8.14h-4.27Z"/><path class="cls-1" d="M1211.06,24.47a2.9,2.9,0,0,0-3.15-2.67c-2.73,0-3.64,2.76-3.64,5s.88,4.9,3.55,4.9a3.28,3.28,0,0,0,3.39-3.16h4.12c-.51,4-3.22,6.22-7.12,6.34l-.84,1.2h.06a2.48,2.48,0,0,1,1-.15c1.35,0,2.76.63,2.76,2.11,0,2.34-1.74,3-3.51,3a9.23,9.23,0,0,1-3.73-.66l.64-1.45a6.19,6.19,0,0,0,2.52.55c.72,0,1.2-.3,1.2-1s-.54-1-1.2-1a3.72,3.72,0,0,0-1.2.2l-.63-.72,1.5-2.16c-4.09-.42-6.79-3.57-6.79-7.87,0-4.83,2.88-8.41,7.93-8.41,3.66,0,7,1.92,7.3,5.89Z"/><path class="cls-1" d="M1230.18,13.09a7.79,7.79,0,0,1-.93,2.22,2.73,2.73,0,0,1-2.43,1.2,8,8,0,0,1-2.46-.51,6.31,6.31,0,0,0-2.1-.51c-.82,0-1.09.51-1.27,1.26h-1.83c.39-1.74,1.14-3.66,3.79-3.66a5.36,5.36,0,0,1,1.92.51,5.13,5.13,0,0,0,2,.54c.9,0,1.29-.48,1.26-1.05Z"/><path class="cls-1" d="M1242.29,18.58c4.89,0,8,3.25,8,8.2s-3.16,8.17-8,8.17-8-3.24-8-8.17,3.15-8.2,8-8.2m0,13.16c2.91,0,3.78-2.49,3.78-5s-.87-5-3.78-5-3.76,2.49-3.76,5,.87,5,3.76,5"/></svg>