<?xml version="1.0" encoding="UTF-8" standalone="no"?>
<svg
   xmlns:dc="http://purl.org/dc/elements/1.1/"
   xmlns:cc="http://creativecommons.org/ns#"
   xmlns:rdf="http://www.w3.org/1999/02/22-rdf-syntax-ns#"
   xmlns:svg="http://www.w3.org/2000/svg"
   xmlns="http://www.w3.org/2000/svg"
   xmlns:sodipodi="http://sodipodi.sourceforge.net/DTD/sodipodi-0.dtd"
   xmlns:inkscape="http://www.inkscape.org/namespaces/inkscape"
   viewBox="0 0 949.0567 165.965"
   version="1.1"
   id="svg28"
   sodipodi:docname="neuronautas.svg"
   inkscape:version="1.0.2-2 (e86c870879, 2021-01-15)"
   width="949.0567"
   height="165.965">
  <metadata
     id="metadata34">
    <rdf:RDF>
      <cc:Work
         rdf:about="">
        <dc:format>image/svg+xml</dc:format>
        <dc:type
           rdf:resource="http://purl.org/dc/dcmitype/StillImage" />
        <dc:title></dc:title>
      </cc:Work>
    </rdf:RDF>
  </metadata>
  <defs
     id="defs32" />
  <sodipodi:namedview
     pagecolor="#ffffff"
     bordercolor="#666666"
     borderopacity="1"
     objecttolerance="10"
     gridtolerance="10"
     guidetolerance="10"
     inkscape:pageopacity="0"
     inkscape:pageshadow="2"
     inkscape:window-width="1920"
     inkscape:window-height="996"
     id="namedview30"
     showgrid="false"
     inkscape:zoom="0.55289975"
     inkscape:cx="762.69347"
     inkscape:cy="-96.680333"
     inkscape:window-x="-8"
     inkscape:window-y="1072"
     inkscape:window-maximized="1"
     inkscape:current-layer="svg28"
     fit-margin-top="0"
     fit-margin-left="300"
     fit-margin-right="50"
     fit-margin-bottom="0"
     lock-margins="false" />
  <path
     d="m 437.55309,110.25631 c -0.58401,0.18882 -0.69186,0.23368 -0.79157,0.25169 -5.50211,1.34856 -6.563,2.5263 -6.9136,8.14527 a 3.236528,3.236528 0 0 0 1.26763,2.22961 c 3.59613,2.82297 3.59613,2.78701 1.43845,7.51593 -5.29527,-2.4184 -7.45295,1.06086 -9.40389,5.19643 -1.57337,3.30845 2.49934,3.85686 2.69713,6.73377 l -2.93989,3.71302 -6.22134,-2.57124 a 10.995205,10.995205 0 0 1 -1.92388,2.42739 c -2.91293,2.07678 -4.1536,4.16254 -2.24763,7.91152 1.50144,2.97581 -2.69713,2.49931 -3.59614,5.11551 -3.29945,-5.60998 -6.87759,-4.03666 -10.78842,-1.852 -3.29946,1.79806 -0.39578,4.5581 -1.69017,6.74275 -4.11758,2.45437 -4.1536,2.37346 -7.0125,-1.53734 a 4.2344573,4.2344573 0 0 0 -3.02974,-1.34855 c -4.42332,0 -8.21715,0.96198 -7.62388,6.58093 -5.25934,0.89901 -5.16045,0.83613 -6.7967,-3.722 a 3.9018143,3.9018143 0 0 0 -2.61614,-2.07678 c -5.74487,-0.89901 -5.75383,-0.79116 -9.72754,4.2884 l -5.21448,-1.58229 c 2.6252,-5.87969 -1.75305,-7.13834 -5.60996,-8.86448 -3.41636,-1.52836 -3.71304,2.61619 -6.29327,3.00278 -4.49516,-1.94192 -4.35129,-1.91495 -3.03869,-6.536 a 4.3423418,4.3423418 0 0 0 -0.89942,-3.14662 12.244864,12.244864 0 0 0 -3.29945,-3.02974 3.9197949,3.9197949 0 0 0 -2.99382,-0.52146 c -4.49515,1.69019 -4.42332,1.79807 -7.43504,-2.6971 6.16741,-4.09062 1.67216,-7.78565 -0.71018,-11.78636 l -5.62796,0.62929 c -2.99372,-4.07263 -2.89482,-4.29739 0.82718,-7.30018 a 4.4951779,4.4951779 0 0 0 1.14176,-3.02075 c 0,-1.13279 -0.56671,-2.28355 -0.71017,-3.4523 -0.27877,-2.20263 -1.14177,-3.47927 -3.66807,-3.41634 -1.65416,0 -3.35338,-0.15279 -3.47029,-2.6971 -0.10783,-2.27456 0.27877,-3.74898 2.75106,-4.0996 2.47238,-0.35059 3.87492,-1.64524 2.84995,-4.58508 H 300 c 0.30523,-6.16738 0.60232,-12.16395 0.89942,-18.74489 1.74419,0 4.26144,0 6.78775,0 4.49515,0 9.05328,0 13.57539,-0.15282 a 2.5262898,2.5262898 0 0 0 1.92398,-1.09683 2.5442706,2.5442706 0 0 0 -0.71933,-2.05879 c -3.26354,-3.52422 -3.29051,-3.49724 -0.66541,-7.49795 6.6798,0.89901 6.6798,0.89901 10.01527,-4.05465 -6.05051,-5.81676 -12.03804,-11.68746 -18.16048,-17.3424 a 4.1355636,4.1355636 0 0 0 -3.20962,-0.755139 c -2.47228,0.512486 -3.8389,-0.269721 -4.85482,-2.544271 a 12.586498,12.586498 0 0 0 -2.89482,-3.79393 c -1.51944,-1.501387 -2.03182,-2.849941 -1.03392,-4.908732 0.71017,-1.474423 0.58401,-3.362394 1.32155,-4.809835 a 11.381789,11.381789 0 0 1 3.22763,-3.784947 c 1.3125,-0.96199 3.12863,-1.2047 4.49515,-2.085762 1.92388,-1.204711 3.36233,-1.231673 5.32223,0.188838 1.35757,0.970943 3.74,1.699185 5.17846,1.177738 13.75528,-4.944697 27.42062,-10.18607 41.10396,-15.346535 a 8.3790111,8.3790111 0 0 0 1.07879,-0.611379 c -0.3144,-8.963392 8.38798,-14.780147 16.62314,-11.95717794 a 53.591508,53.591508 0 0 0 5.1515,1.86099894 c 5.17847,1.195726 7.03051,5.223404 8.45991,9.610697 a 2.9578269,2.9578269 0 0 1 -0.16176,2.076768 28.049908,28.049908 0 0 1 -15.24766,13.719281 c -3.82986,1.4924 -7.50699,-0.575363 -10.78844,-2.82297 a 4.4322453,4.4322453 0 0 0 -3.28144,-0.800114 c -13.22489,4.40528 -26.34183,8.900453 -38.91026,13.179865 l -1.71724,6.904592 c 4.1716,4.369314 8.85549,9.260074 13.48556,14.168804 1.29459,1.35755 2.45437,1.79807 4.09062,0.32363 a 51.730505,51.730505 0 0 1 5.10653,-3.59614 l -1.24962,-5.996559 4.621,-2.220623 a 3.3084507,3.3084507 0 0 1 0.51278,0.269723 c 4.3693,4.621049 4.45018,4.692969 10.41076,2.103741 a 3.0657112,3.0657112 0 0 0 1.53735,-2.346482 c -0.36831,-4.270418 2.0768,-5.043582 5.87073,-4.773879 1.14177,2.903885 1.99591,5.663926 6.73383,5.663926 4.73791,0 5.11548,-3.128638 6.50002,-6.032524 l 5.10653,0.70122 c 1.06078,2.697111 -0.22485,6.239308 4.78288,7.551907 4.71095,1.22269 6.06841,-1.267649 8.09129,-3.596141 4.89073,1.798071 4.78289,1.798071 4.26144,6.149391 -0.10783,0.97095 0.66541,2.22962 1.36653,3.07472 a 12.118999,12.118999 0 0 0 2.69713,1.79807 c 0.79971,0.53041 1.58222,1.09682 2.59813,1.79807 l 5.21448,-3.34441 4.00963,3.44331 -2.86785,5.5021 5.27725,6.45507 c 6.29328,-1.3935 6.29328,-1.3935 8.61284,2.90388 -1.33061,1.55534 -3.11073,2.9758 -3.89283,4.81884 -0.39577,0.89901 1.01642,2.64315 1.79802,4.40527 11.90323,-9.95233 24.6426,-10.93227 38.37987,-3.25451 -0.0611,-5.16046 2.98476,-7.67776 5.4841,-10.65357 14.18678,-16.86592 33.68683,-22.862484 54.28378,-26.170934 8.63075,-1.375529 17.0817,1.2047 24.18405,6.230313 5.23236,3.695041 9.82642,8.343061 14.48345,12.793291 4.65702,4.45022 6.6798,10.20404 7.80366,16.33547 0.4314,2.31052 1.45637,3.1646 3.87483,3.10167 6.44609,-0.16187 12.90112,-0.0542 19.53606,-0.0542 0.41306,6.40113 0.81802,12.58649 1.25866,19.39219 h -20.27329 c 0,6.07748 0.0814,11.54362 0,17.00077 a 61.790715,61.790715 0 0 1 -0.79157,8.34305 22.080313,22.080313 0 0 1 -6.82367,12.78428 c -10.78842,10.47376 -23.84238,15.28361 -38.4697,15.95788 -9.4219,0.43152 -18.98767,0.52146 -28.30163,-0.6653 -5.99657,-0.77315 -11.84929,-3.75797 -17.41439,-6.46406 -5.56499,-2.7061 -8.90942,-7.65979 -10.95926,-13.44059 -3.86576,-10.95024 -8.02831,-21.8106 -9.07119,-33.53402 -0.0814,-0.899 -1.14177,-1.98686 -2.02287,-2.56225 -7.40808,-4.80984 -15.22965,-5.48412 -23.37497,-2.06778 a 25.442706,25.442706 0 0 0 -4.36024,2.04981 34.972481,34.972481 0 0 0 -3.76697,3.36238 27.744237,27.744237 0 0 0 4.17151,2.34649 c 3.47028,1.26764 0.72849,3.82089 1.52839,5.75382 z M 382.24435,93.89386 c -0.4945,-9.72757 -0.89942,-18.637 -1.45637,-27.53745 -0.061,-0.96199 -0.80072,-2.57125 -1.48342,-2.69712 -5.85273,-1.28561 -11.68744,-3.17359 -17.80988,-1.69917 -12.38876,2.9848 -25.01122,18.13355 -26.21587,31.46624 -0.95334,10.47376 0,20.81267 1.90587,31.10663 1.60929,8.76559 6.16742,13.15288 15.47241,14.84308 V 74.14205 c 4.84587,0 9.45792,0.10783 14.06997,-0.0541 a 4.1625346,4.1625346 0 0 1 4.12654,2.3285 c 3.59614,5.6909 7.36311,11.2829 11.4177,17.47726 z m 11.75041,-24.97521 c 0.59317,23.79747 1.17779,47.46907 1.79812,71.56323 7.444,-2.35547 12.99108,-6.1494 15.80501,-13.16189 4.72896,-11.75937 5.56499,-23.99525 4.01869,-36.41991 -1.30365,-10.61762 -10.22202,-19.69787 -21.59486,-21.98143 z m 84.9139,19.91364 c 0.42224,13.41361 2.78708,26.23385 8.3251,38.3079 1.34851,2.94884 3.87481,5.39421 6.37416,8.70266 6.41913,-16.27254 12.37971,-31.37634 18.56513,-47.01056 z m 83.98794,22.53882 -44.34045,1.10581 c 0,0.61138 -0.10789,0.96199 0,1.2137 4.0367,8.18123 8.04632,16.37144 12.2269,24.48074 a 3.236528,3.236528 0 0 0 2.78696,1.14178 c 8.72964,-1.79808 16.76699,-5.39423 24.38194,-9.83545 a 6.8146891,6.8146891 0 0 0 2.92177,-4.0097 c 0.92586,-4.45922 1.33957,-9.02632 2.02288,-14.09688 z m -198.8397,-23.05127 -0.89942,0.28771 q -0.36832,9.25109 -0.71933,18.52013 c -0.42224,10.95026 -0.89942,21.89152 -1.1957,32.85077 0,0.899 0.70102,2.43638 1.36653,2.61619 9.1072,2.40042 18.20546,1.93292 27.87002,-0.39556 -8.92743,-18.22344 -17.65706,-36.05132 -26.42261,-53.87919 z M 528.45452,87.30392 511.40884,61.133 c -9.65569,5.01661 -19.35627,9.45785 -27.54647,16.41639 -2.44542,2.08575 -4.62101,4.49517 -4.23448,8.41496 z m -14.22268,-26.97107 22.60171,36.29407 c 4.09957,-9.82645 7.98345,-19.02359 11.68743,-28.27467 a 3.2545086,3.2545086 0 0 0 -0.82717,-2.8859 c -9.91638,-8.61276 -21.04647,-9.87142 -33.46208,-5.17845 z m 48.28719,48.32315 c -1.02499,-19.90464 -3.59615,-33.70484 -11.265,-39.43169 -5.87968,13.48553 -11.74135,26.83622 -17.81882,40.70833 z m -33.93864,31.36736 -18.77188,-39.49463 c -4.67494,12.28982 -9.06223,23.85141 -13.6114,35.80859 a 103.6498,103.6498 0 0 0 32.3563,3.68604 z M 377.25472,19.948163 v 0.09868 c 0.74578,0.07225 1.50144,0.19779 2.24763,0.19779 4.49515,0 6.53593,-2.56225 5.47514,-6.904592 -1.59137,-6.500014 -6.20343,-8.09131 -13.35074,-5.097524 -3.67703,1.528368 -2.97581,4.198497 -2.69713,6.92258 a 4.9626762,4.9626762 0 0 0 4.49525,4.737912 22.161226,22.161226 0 0 0 3.82985,0.04476 z"
     id="path2-4"
     style="fill:#000000;stroke:none;stroke-width:0.899034" />
  <path
     d="m 650.62444,34.296783 c -0.62879,17.728977 -1.22266,34.540947 -1.79803,51.541727 l -9.06233,0.68321 V 23.373456 c 5.22343,0 10.57271,-0.07223 15.91295,0.07225 0.73766,0 1.54631,0.979998 2.1397,1.663208 3.93777,4.558111 7.89358,9.224109 12.42465,13.548464 -0.52095,-4.495171 -1.04285,-8.990353 -1.60917,-14.024952 l 13.37762,-0.899009 c 0.7641,19.967574 1.5193,39.557573 2.25653,58.931783 -2.95775,1.15976 -3.59611,-0.74619 -4.49511,-2.1397 -5.52909,-8.99036 -10.94126,-17.98071 -16.54228,-26.97107 -3.93778,-6.221334 -8.10929,-12.343767 -12.60453,-19.257353 z"
     id="path4-3"
     style="fill:#000000;stroke:none;stroke-width:0.899034" />
  <path
     d="m 639.18872,99.14423 c 5.56508,0 10.78842,-0.0987 16.02987,0.0896 0.89942,0 1.95082,1.15976 2.69702,1.99586 3.77602,4.34234 7.48003,8.74761 11.20204,13.1349 l 0.84546,-0.35958 c -0.4762,-4.3783 -0.95335,-8.7566 -1.48343,-13.58442 h 13.39575 c 0.75492,19.23036 1.51933,38.65852 2.27448,57.96082 -2.69716,1.3036 -3.59617,-0.42257 -4.49517,-1.95091 -5.05259,-8.24415 -9.99724,-16.55124 -15.13076,-24.75045 -4.38729,-6.9855 -8.99039,-13.85414 -13.48554,-20.77671 l -1.01643,0.1169 c 0,4.30637 0.10789,8.61276 0,12.91015 -0.36832,11.60655 -0.89942,23.19512 -1.22265,34.80166 -0.0611,2.34649 -0.83634,3.20955 -3.13769,3.29946 -7.5429,0.31467 -6.1314,0.75514 -6.16732,-5.54704 -0.12612,-17.98072 -0.16184,-35.96142 -0.23401,-53.89719 -0.0814,-1.15077 -0.0712,-2.30153 -0.0712,-3.4433 z"
     id="path6-8"
     style="fill:#000000;stroke:none;stroke-width:0.899034" />
  <path
     d="m 763.9479,102.68642 a 76.741677,76.741677 0 0 1 7.83065,1.15076 3.2005664,3.2005664 0 0 1 1.95081,2.28356 c 0.55757,11.68746 0.89944,23.41988 1.42056,35.12532 0.24198,5.14249 -2.88599,8.74761 -6.12247,11.50765 -6.7158,5.72686 -14.93293,6.63489 -23.43785,4.70196 A 4.755898,4.755898 0 0 1 743.405,156.215 c -6.8417,-6.88661 -10.52775,-14.71722 -9.16127,-24.86732 1.24976,-9.34098 1.4115,-18.82581 2.06787,-28.2477 0.0917,-1.26764 0.21545,-2.53527 0.3591,-4.25244 l 9.25104,1.38453 c -0.37732,6.50002 -1.06087,12.79326 -1.02485,19.0955 0,6.96753 0.71018,13.92606 1.1418,20.89359 a 11.094099,11.094099 0 0 0 0.51267,2.19364 c 1.58223,5.48413 3.25449,6.94956 7.54288,6.67085 5.69083,-0.3686 8.60379,-2.6971 9.37695,-7.89353 1.79801,-12.19093 1.62719,-24.43579 0.7193,-36.68964 -0.0812,-0.50344 -0.15245,-1.00696 -0.24309,-1.81606 z"
     id="path8-2"
     style="fill:#000000;stroke:none;stroke-width:0.899034" />
  <path
     d="m 735.06185,24.443356 9.06232,1.44745 c -0.33256,5.124498 -0.62061,10.141118 -0.99805,15.148743 -0.66543,8.729635 -0.68271,17.414331 1.55531,25.964161 1.45648,5.55603 2.69718,6.76074 6.65287,6.69782 6.11347,-0.0896 8.99041,-1.79808 9.63771,-7.19229 0.8994,-7.6508 1.1148,-15.4005 1.42041,-23.123211 0.19722,-4.899734 0,-9.808475 0,-14.986919 2.10379,0.260668 4.75593,0.458456 7.34516,0.988952 a 2.6971066,2.6971066 0 0 1 1.47443,2.049795 c 0.58405,11.912228 1.19572,23.824453 1.50133,35.745663 0.1171,4.40528 -2.91279,7.75868 -5.94254,10.28498 a 23.078242,23.078242 0 0 1 -23.37497,4.1805 c -3.51518,-1.28561 -6.22136,-5.94262 -8.37,-9.61068 -3.59611,-6.11344 -2.84097,-12.95511 -2.11268,-19.7788 1.02486,-9.107227 1.45637,-18.205469 2.14859,-27.816155 z"
     id="path10-7"
     style="fill:#000000;stroke:none;stroke-width:0.899034" />
  <path
     d="m 898.18294,101.0322 v 20.21032 h -7.19229 a 23.03329,23.03329 0 0 1 -0.66543,-4.49518 c 0.15245,-3.21855 -1.55536,-4.14455 -4.35132,-4.03668 a 15.68817,15.68817 0 0 0 -2.25653,0.0896 c -5.84375,1.03389 -7.85761,5.30431 -4.0367,9.73655 a 84.50934,84.50934 0 0 0 13.09008,12.38908 c 8.31602,6.23931 8.23515,11.23795 0.62062,20.17436 a 5.8796925,5.8796925 0 0 1 -3.68606,1.65423 67.202904,67.202904 0 0 1 -8.72068,0.0631 c -4.82776,-0.20673 -9.64666,-0.57536 -14.94195,-0.89902 0.5392,-5.83473 1.07882,-11.4537 1.56431,-17.08167 0.26021,-3.04773 0.21547,-3.05671 3.59617,-3.731 a 47.055522,47.055522 0 0 0 0.70102,4.666 c 0.89939,3.722 3.47921,5.39422 7.19227,4.68397 a 11.444722,11.444722 0 0 0 3.93782,-1.35754 c 4.1895,-2.62518 5.65493,-4.3783 1.70816,-8.43295 -3.22752,-3.30845 -6.39216,-6.68883 -9.55682,-10.06021 -3.54214,-3.75797 -5.33118,-14.06091 -2.85892,-18.53812 2.20268,-3.99171 6.22136,-5.75382 10.54565,-5.87069 4.93576,-0.14387 9.86251,0.49444 15.31066,0.83612 z"
     id="path12-1"
     style="fill:#000000;stroke:none;stroke-width:0.899034" />
  <path
     d="m 821.34228,55.37918 c -0.84547,-7.78566 1.4925,-14.897035 4.65705,-21.792632 a 4.9446955,4.9446955 0 0 1 2.63413,-2.544271 c 7.26421,-2.004855 14.91509,-1.339561 20.99252,2.265563 6.56293,3.901822 12.07407,10.051218 10.14115,19.14048 -1.33063,6.29325 -2.46342,12.6854 -4.72897,18.646 -1.38455,3.59614 -4.67492,6.57195 -7.30011,9.66463 a 3.5961422,3.5961422 0 0 1 -2.89495,0.84509 c -7.04837,-1.15977 -14.01593,-2.69711 -19.59892,-7.5519 a 7.5788695,7.5788695 0 0 1 -2.34653,-4.24345 c -0.71935,-4.78287 -1.06087,-9.57473 -1.55537,-14.42951 z m 6.76977,-2.85894 c 0.72847,7.84858 2.85899,14.68126 8.99041,19.67989 4.26142,3.47027 7.65976,2.84994 9.61968,-2.19364 a 146.74958,146.74958 0 0 0 5.28629,-17.51322 c 1.07881,-4.279416 -0.89938,-7.956474 -4.71097,-10.177087 -2.13069,-1.240667 -4.21645,-2.56225 -6.29322,-3.9198 -3.89283,-2.553255 -7.47995,-2.004846 -9.3859,2.229607 -1.65426,3.739988 -2.36454,7.920506 -3.50629,11.89425 z"
     id="path14-3"
     style="fill:#000000;stroke:none;stroke-width:0.899034" />
  <path
     d="m 810.50901,157.96812 -23.88747,-1.06986 c -1.1507,-3.2635 -0.16184,-4.83681 2.97583,-5.84372 6.53603,-2.10374 6.36521,-2.27456 6.29327,-9.1342 -0.12593,-8.60378 0,-17.22552 -0.0497,-25.83829 v -3.59613 h -3.74899 c -0.34195,2.18465 -0.69183,4.36931 -1.05192,6.63487 h -5.19639 v -18.49316 l 32.49117,-1.28561 c 0.48561,8.09131 0.96248,15.95788 1.44742,23.94131 -3.23648,0 -4.97166,-1.00696 -4.70191,-4.15354 0.30552,-3.47927 -1.36654,-4.87278 -4.83679,-4.98067 -2.76911,-0.0896 -5.51119,-0.83613 -8.92743,-1.40249 0,2.92186 0,5.54706 0,8.17223 -0.16184,8.27113 -0.2696,16.55124 -0.62067,24.82238 -0.0917,2.23859 0.50383,3.4523 2.69705,3.94676 a 28.292649,28.292649 0 0 1 2.778,0.89901 c 5.03459,1.64523 5.03459,1.64523 4.34241,7.38108 z"
     id="path16-8"
     style="fill:#000000;stroke:none;stroke-width:0.899034" />
  <path
     d="M 805.48339,78.71814 C 801.61751,68.01961 797.86854,57.66273 794.11055,47.30583 h -0.89944 c -1.74409,11.0042 -3.47923,22.00839 -5.25938,33.26432 h -4.39622 c 0.89943,-16.88389 1.79799,-33.749802 2.69699,-50.696617 4.34248,-0.278677 8.09139,-0.665304 11.84038,-0.728181 6.20335,-0.116894 11.13903,3.002781 15.6252,6.796712 0.73769,0.620334 0.96149,2.616194 0.58405,3.677049 -2.53525,7.05743 -7.19227,9.251081 -15.09475,6.832677 4.9357,9.39493 9.62865,18.30436 14.38458,27.4116 z"
     id="path18-4"
     style="fill:#000000;stroke:none;stroke-width:0.899034" />
  <path
     d="m 725.60408,156.91625 -5.9427,0.89901 c -1.40244,-7.59684 -2.61613,-14.89702 -4.16255,-22.11627 -0.38671,-1.79807 0.79974,-4.82783 -3.01174,-4.96268 -7.11135,-0.25169 -8.50484,0.27866 -9.73659,4.49518 q -2.93975,10.06021 -5.87966,20.10244 c -1.24069,4.22547 -1.24069,4.21647 -6.00557,4.05465 0.15244,-0.81813 0.22486,-1.62727 0.4497,-2.39144 5.07955,-17.76494 10.20408,-35.5209 15.22965,-53.30382 0.53036,-1.88797 1.31257,-2.62518 3.2905,-2.49931 2.78695,0.16187 5.58299,0 8.53182,0 5.0796,18.27739 4.87271,36.95935 7.23725,55.72222 z"
     id="path20-9"
     style="fill:#000000;stroke:none;stroke-width:0.899034" />
  <path
     d="m 858.51738,156.215 -5.75382,1.0249 c -1.3215,-6.92257 -2.69699,-13.63837 -3.8568,-20.36316 -1.35754,-7.57886 -1.29455,-7.48896 -8.90942,-6.54497 -2.44542,0.29666 -3.46131,1.38451 -4.08167,3.65008 -1.91489,7.04844 -4.03668,14.03395 -6.09544,21.04642 -1.21374,4.13556 -1.23164,4.12657 -6.15837,3.59615 1.89694,-6.29325 3.87481,-12.51458 5.66387,-18.78984 3.47932,-12.19093 6.91364,-24.39084 10.20414,-36.62671 0.56669,-2.10375 1.46543,-2.69711 3.52418,-2.69711 8.64877,0 8.99029,-0.10783 10.21307,8.50487 1.79801,13.28775 3.11957,26.65641 4.62103,39.9981 0.25135,2.31052 0.41322,4.54911 0.62873,7.20127 z"
     id="path22-5"
     style="fill:#000000;stroke:none;stroke-width:0.899034" />
  <path
     d="m 692.93303,32.795396 h 31.07072 c 0,3.668066 0.0387,7.812617 -0.0497,11.957168 0,0.458561 -0.80889,1.132787 -1.34853,1.258655 -0.36847,0.08954 -1.16871,-0.476466 -1.3576,-0.89901 a 11.372799,11.372799 0 0 1 -0.42206,-2.571233 H 702.3957 c -0.14361,1.977873 -0.27899,3.739986 -0.4497,5.897671 2.31052,0 4.32437,0 6.33814,0 1.70819,0 2.84998,0.584418 2.93992,2.580223 0.10163,2.42741 0.39555,4.84582 0.65626,7.8396 -3.36237,0 -6.23926,0 -9.10724,0 -2.04075,0 -3.13759,0.69227 -3.37138,2.91288 -0.3591,3.41633 -1.04287,6.78772 -1.67215,10.69853 l 21.13628,0.97999 c 0.34195,-2.27456 0.58405,-4.58508 1.08788,-6.83266 0.16183,-0.70123 1.02485,-1.25866 1.55531,-1.87899 0.36849,0.75514 1.08777,1.52836 1.05187,2.26557 -0.17068,3.74897 -0.5392,7.47997 -0.89944,11.54362 h -28.76912 z"
     id="path24-6"
     style="fill:#000000;stroke:none;stroke-width:0.899034" />
</svg>
